<?xml version="1.0" encoding="UTF-8" standalone="no"?>
<!-- Generator: Adobe Illustrator 15.0.0, SVG Export Plug-In . SVG Version: 6.00 Build 0)  -->

<svg
   xmlns:dc="http://purl.org/dc/elements/1.1/"
   xmlns:cc="http://creativecommons.org/ns#"
   xmlns:rdf="http://www.w3.org/1999/02/22-rdf-syntax-ns#"
   xmlns:svg="http://www.w3.org/2000/svg"
   xmlns="http://www.w3.org/2000/svg"
   xmlns:sodipodi="http://sodipodi.sourceforge.net/DTD/sodipodi-0.dtd"
   xmlns:inkscape="http://www.inkscape.org/namespaces/inkscape"
   version="1.1"
   id="Layer_1"
   x="0px"
   y="0px"
   width="374.237"
   height="314.90601"
   viewBox="0 0 374.237 314.90601"
   enable-background="new 0 0 612 792"
   xml:space="preserve"
   inkscape:version="0.48.3.1 r9886"
   sodipodi:docname="100sofware_libre.svg"><metadata
   id="metadata19"><rdf:RDF><cc:Work
       rdf:about=""><dc:format>image/svg+xml</dc:format><dc:type
         rdf:resource="http://purl.org/dc/dcmitype/StillImage" /></cc:Work></rdf:RDF></metadata><defs
   id="defs17" /><sodipodi:namedview
   pagecolor="#ffffff"
   bordercolor="#666666"
   borderopacity="1"
   objecttolerance="10"
   gridtolerance="10"
   guidetolerance="10"
   inkscape:pageopacity="0"
   inkscape:pageshadow="2"
   inkscape:window-width="640"
   inkscape:window-height="480"
   id="namedview15"
   showgrid="false"
   fit-margin-top="0"
   fit-margin-left="0"
   fit-margin-right="0"
   fit-margin-bottom="0"
   inkscape:zoom="0.2979798"
   inkscape:cx="186.354"
   inkscape:cy="157.742"
   inkscape:window-x="0"
   inkscape:window-y="27"
   inkscape:window-maximized="0"
   inkscape:current-layer="Layer_1" />
<g
   id="g3"
   transform="translate(-119.646,-238.836)">
	<g
   id="g5">
		<polygon
   points="248.056,308.434 171.773,247.315 171.773,292.518 247.293,353.017 343.714,283.199 435.568,353.786 493.883,297.489 493.883,249.569 433.715,307.664 344.153,238.836 "
   id="polygon7"
   style="fill:#6d8d24" />
		<polygon
   points="248.056,385.354 171.773,324.235 171.773,369.431 247.293,429.937 343.714,360.112 435.568,430.703 493.883,374.412 493.883,326.482 433.715,384.584 344.153,315.76 "
   id="polygon9"
   style="fill:#6d8d24" />
		<polygon
   points="248.056,462.277 171.773,401.155 171.773,446.365 247.293,506.86 343.714,437.036 435.568,507.634 493.883,451.332 493.883,403.413 433.715,461.512 344.153,392.684 "
   id="polygon11"
   style="fill:#6d8d24" />
	</g>
	<rect
   x="119.646"
   y="238.836"
   width="29.743"
   height="314.90601"
   id="rect13"
   style="fill:#6d8d24" />
</g>
</svg>