<?xml version="1.0" encoding="utf-8"?>
<!-- Generator: Adobe Illustrator 15.0.0, SVG Export Plug-In . SVG Version: 6.00 Build 0)  -->
<!DOCTYPE svg PUBLIC "-//W3C//DTD SVG 1.1//EN" "http://www.w3.org/Graphics/SVG/1.1/DTD/svg11.dtd">
<svg version="1.1" id="Layer_1" xmlns="http://www.w3.org/2000/svg" xmlns:xlink="http://www.w3.org/1999/xlink" x="0px" y="0px"
	 width="612px" height="792px" viewBox="0 0 612 792" enable-background="new 0 0 612 792" xml:space="preserve">
<g>
	<g>
		<polygon fill="#6D8D24" points="493.883,249.569 433.715,307.664 344.153,238.836 248.056,308.434 171.773,247.315 
			171.773,292.518 247.293,353.017 343.714,283.199 435.568,353.786 493.883,297.489 		"/>
		<polygon fill="#6D8D24" points="493.883,326.482 433.715,384.584 344.153,315.76 248.056,385.354 171.773,324.235 
			171.773,369.431 247.293,429.937 343.714,360.112 435.568,430.703 493.883,374.412 		"/>
		<polygon fill="#6D8D24" points="493.883,403.413 433.715,461.512 344.153,392.684 248.056,462.277 171.773,401.155 
			171.773,446.365 247.293,506.86 343.714,437.036 435.568,507.634 493.883,451.332 		"/>
	</g>
	<rect x="119.646" y="238.836" fill="#6D8D24" width="29.743" height="314.906"/>
</g>
</svg>
