<?xml version="1.0" encoding="utf-8"?>
<!-- Generator: Adobe Illustrator 15.0.0, SVG Export Plug-In . SVG Version: 6.00 Build 0)  -->
<!DOCTYPE svg PUBLIC "-//W3C//DTD SVG 1.1//EN" "http://www.w3.org/Graphics/SVG/1.1/DTD/svg11.dtd">
<svg version="1.1" id="Layer_1" xmlns="http://www.w3.org/2000/svg" xmlns:xlink="http://www.w3.org/1999/xlink" x="0px" y="0px"
	 width="612px" height="792px" viewBox="0 0 612 792" enable-background="new 0 0 612 792" xml:space="preserve">
<g>
	<path fill="#6D8D24" d="M306.716,281.218c-63.453,0-115.083,51.63-115.083,115.095c0,63.461,51.63,115.087,115.083,115.087
		c63.465,0,115.091-51.634,115.091-115.087C421.807,332.855,370.181,281.218,306.716,281.218z M306.716,491.9
		c-52.708,0-95.576-42.887-95.576-95.592c0-52.701,42.868-95.584,95.576-95.584c52.72,0,95.584,42.883,95.584,95.584
		C402.3,449.014,359.436,491.9,306.716,491.9z"/>
	<path fill="#6D8D24" d="M306.716,246.103c-82.815,0-150.198,67.382-150.198,150.198c0,82.82,67.382,150.202,150.198,150.202
		c82.827,0,150.202-67.382,150.202-150.202C456.918,313.485,389.543,246.103,306.716,246.103z M306.716,526.996
		c-72.06,0-130.694-58.62-130.694-130.695c0-72.067,58.635-130.694,130.694-130.694c72.067,0,130.702,58.627,130.702,130.694
		C437.418,468.376,378.783,526.996,306.716,526.996z"/>
	<path fill="#6D8D24" d="M306.716,367.424c15.954,0,28.877,12.932,28.877,28.877c0,15.946-12.923,28.885-28.877,28.885
		c-15.945,0-28.877-12.938-28.877-28.885C277.839,380.355,290.771,367.424,306.716,367.424z"/>
</g>
</svg>
