<?xml version="1.0" encoding="UTF-8" standalone="no"?>
<!-- Generator: Adobe Illustrator 15.0.0, SVG Export Plug-In . SVG Version: 6.00 Build 0)  -->

<svg
   xmlns:dc="http://purl.org/dc/elements/1.1/"
   xmlns:cc="http://creativecommons.org/ns#"
   xmlns:rdf="http://www.w3.org/1999/02/22-rdf-syntax-ns#"
   xmlns:svg="http://www.w3.org/2000/svg"
   xmlns="http://www.w3.org/2000/svg"
   xmlns:sodipodi="http://sodipodi.sourceforge.net/DTD/sodipodi-0.dtd"
   xmlns:inkscape="http://www.inkscape.org/namespaces/inkscape"
   version="1.1"
   id="Layer_1"
   x="0px"
   y="0px"
   width="310.31601"
   height="310.30301"
   viewBox="0 0 310.31601 310.30301"
   enable-background="new 0 0 612 792"
   xml:space="preserve"
   inkscape:version="0.48.3.1 r9886"
   sodipodi:docname="anterior.svg"><metadata
   id="metadata3018"><rdf:RDF><cc:Work
       rdf:about=""><dc:format>image/svg+xml</dc:format><dc:type
         rdf:resource="http://purl.org/dc/dcmitype/StillImage" /></cc:Work></rdf:RDF></metadata><defs
   id="defs3016" /><sodipodi:namedview
   pagecolor="#ffffff"
   bordercolor="#666666"
   borderopacity="1"
   objecttolerance="10"
   gridtolerance="10"
   guidetolerance="10"
   inkscape:pageopacity="0"
   inkscape:pageshadow="2"
   inkscape:window-width="640"
   inkscape:window-height="480"
   id="namedview3014"
   showgrid="false"
   fit-margin-top="0"
   fit-margin-left="0"
   fit-margin-right="0"
   fit-margin-bottom="0"
   inkscape:zoom="0.2979798"
   inkscape:cx="155.158"
   inkscape:cy="155.152"
   inkscape:window-x="0"
   inkscape:window-y="27"
   inkscape:window-maximized="0"
   inkscape:current-layer="Layer_1" />
<path
   d="M 155.159,0 C 69.61,0 0,69.597 0,155.171 c 0,85.535 69.61,155.132 155.159,155.132 85.548,0 155.157,-69.597 155.157,-155.132 C 310.316,69.596 240.707,0 155.159,0 z M 26.288,155.171 c 0,-71.072 57.798,-128.883 128.871,-128.883 20.355,0 39.537,4.878 56.662,13.315 l -81.896,111.665 86.115,117.387 c -18.141,9.783 -38.878,15.347 -60.881,15.347 C 84.112,284.028 26.288,226.204 26.288,155.171 z m 223.793,86.827 -66.538,-90.729 63.413,-86.353 c 22.873,23.27 37.046,55.121 37.046,90.255 0.026,33.473 -12.907,63.901 -33.921,86.827 z"
   id="path3012"
   inkscape:connector-curvature="0"
   style="fill:#6d8d24" />
</svg>