<?xml version="1.0" encoding="utf-8"?>
<!-- Generator: Adobe Illustrator 15.0.0, SVG Export Plug-In . SVG Version: 6.00 Build 0)  -->
<!DOCTYPE svg PUBLIC "-//W3C//DTD SVG 1.1//EN" "http://www.w3.org/Graphics/SVG/1.1/DTD/svg11.dtd">
<svg version="1.1" id="Layer_1" xmlns="http://www.w3.org/2000/svg" xmlns:xlink="http://www.w3.org/1999/xlink" x="0px" y="0px"
	 width="612px" height="792px" viewBox="0 0 612 792" enable-background="new 0 0 612 792" xml:space="preserve">
<path fill="#6D8D24" d="M306.001,240.849c-85.549,0-155.159,69.597-155.159,155.171c0,85.535,69.61,155.132,155.159,155.132
	c85.548,0,155.157-69.597,155.157-155.132C461.158,310.445,391.549,240.849,306.001,240.849z M177.13,396.02
	c0-71.072,57.798-128.883,128.871-128.883c20.355,0,39.537,4.878,56.662,13.315l-81.896,111.665l86.115,117.387
	c-18.141,9.783-38.878,15.347-60.881,15.347C234.954,524.877,177.13,467.053,177.13,396.02z M400.923,482.847l-66.538-90.729
	l63.413-86.353c22.873,23.27,37.046,55.121,37.046,90.255C434.87,429.493,421.937,459.921,400.923,482.847z"/>
</svg>
