<?xml version="1.0" encoding="utf-8"?>
<!-- Generator: Adobe Illustrator 15.0.0, SVG Export Plug-In . SVG Version: 6.00 Build 0)  -->
<!DOCTYPE svg PUBLIC "-//W3C//DTD SVG 1.1//EN" "http://www.w3.org/Graphics/SVG/1.1/DTD/svg11.dtd">
<svg version="1.1" id="Layer_1" xmlns="http://www.w3.org/2000/svg" xmlns:xlink="http://www.w3.org/1999/xlink" x="0px" y="0px"
	 width="291.5px" height="58px" viewBox="0 0 291.5 58" enable-background="new 0 0 291.5 58" xml:space="preserve">
<g>
	<g enable-background="new    ">
		<path fill="#6D8D24" d="M66.584,42.737l5.808-25.811h9.944l5.808,25.811h-5.238l-1.024-4.669h-9.033l-1.025,4.669H66.584z
			 M76.453,21.254l-2.619,12.26h7.061l-2.619-12.26H76.453z"/>
		<path fill="#6D8D24" d="M96.836,34.083v8.654h-5.238V16.927h10.02c6.074,0,9.11,2.835,9.11,8.503c0,3.365-1.266,5.845-3.796,7.439
			l3.682,9.868h-5.73l-2.999-8.654H96.836z M104.465,28.466c0.607-0.759,0.91-1.759,0.91-2.998c0-1.24-0.322-2.227-0.967-2.961
			c-0.646-0.733-1.576-1.101-2.791-1.101h-4.781v8.198h4.857C102.934,29.604,103.857,29.225,104.465,28.466z"/>
		<path fill="#6D8D24" d="M115.13,42.737V16.927h16.701v4.555h-11.463v6.035h9.186v4.479h-9.186v6.187h11.463v4.555H115.13z"/>
		<path fill="#6D8D24" d="M145.646,35.222h-4.251v7.516h-5.238V16.927h9.489c6.123,0,9.186,2.986,9.186,8.958
			c0,3.012-0.778,5.32-2.334,6.927C150.941,34.419,148.658,35.222,145.646,35.222z M141.396,30.743h4.213
			c2.606,0,3.909-1.619,3.909-4.858c0-1.594-0.316-2.738-0.948-3.435c-0.633-0.696-1.62-1.044-2.961-1.044h-4.213V30.743z"/>
		<path fill="#6D8D24" d="M155.629,42.737l5.807-25.811h9.945l5.807,25.811h-5.238l-1.023-4.669h-9.034l-1.024,4.669H155.629z
			 M165.498,21.254l-2.619,12.26h7.06l-2.619-12.26H165.498z"/>
		<path fill="#6D8D24" d="M203.87,42.737h-14.462V16.472h2.924v23.646h11.538V42.737z"/>
		<path fill="#6D8D24" d="M207.21,42.737V16.472h2.923v26.266H207.21z"/>
		<path fill="#6D8D24" d="M216.167,42.737V16.472h5.466l10.059,23.685h0.797V16.472h2.885v26.266h-5.352l-10.211-23.685h-0.721
			v23.685H216.167z"/>
		<path fill="#6D8D24" d="M244.179,34.842c0,3.797,2.05,5.693,6.149,5.693c2.125,0,3.726-0.448,4.801-1.347
			c1.076-0.897,1.613-2.347,1.613-4.347v-18.37h2.885v18.295c0,2.936-0.777,5.062-2.334,6.376c-1.557,1.316-3.853,1.975-6.889,1.975
			c-3.037,0-5.32-0.658-6.852-1.975c-1.531-1.314-2.297-3.44-2.297-6.376V16.472h2.923V34.842z"/>
		<path fill="#6D8D24" d="M266.309,16.472l6.643,11.235l6.68-11.235h3.15l-8.084,13.322l8.084,12.943h-3.303l-6.604-10.894
			l-6.719,10.894h-3.15l8.123-12.867l-8.123-13.398H266.309z"/>
	</g>
	<g>
		<g>
			<path fill="#6D8D24" d="M30.219,50.5c-11.855,0-21.5-9.645-21.5-21.5s9.645-21.5,21.5-21.5c11.854,0,21.5,9.645,21.5,21.5
				S42.073,50.5,30.219,50.5z M30.219,12.618c-9.033,0-16.38,7.349-16.38,16.382c0,9.032,7.347,16.381,16.38,16.381
				c9.032,0,16.383-7.349,16.383-16.381C46.602,19.967,39.251,12.618,30.219,12.618z"/>
		</g>
		<g>
			<g>
				<path fill="#6D8D24" d="M34.263,18.101c0.607,0.605,0.607,1.588,0,2.193l-12.748,12.75c-0.606,0.604-1.589,0.604-2.193,0l0,0
					c-0.605-0.606-0.605-1.588-0.002-2.193l12.751-12.75C32.676,17.495,33.657,17.494,34.263,18.101L34.263,18.101z"/>
			</g>
			<g>
				<path fill="#6D8D24" d="M37.69,21.528c0.606,0.604,0.605,1.588,0,2.192l-12.75,12.75c-0.605,0.605-1.587,0.605-2.192,0l0,0
					c-0.605-0.605-0.605-1.588-0.001-2.193l12.752-12.749C36.104,20.923,37.086,20.922,37.69,21.528L37.69,21.528z"/>
			</g>
			<g>
				<path fill="#6D8D24" d="M41.119,24.955c0.605,0.606,0.605,1.588-0.002,2.193l-12.749,12.75c-0.605,0.605-1.587,0.605-2.191,0
					l0,0c-0.607-0.605-0.607-1.588-0.001-2.193l12.748-12.75C39.53,24.35,40.514,24.35,41.119,24.955L41.119,24.955z"/>
			</g>
		</g>
	</g>
</g>
</svg>
