<?xml version="1.0" encoding="UTF-8" standalone="no"?>
<!-- Generator: Adobe Illustrator 15.0.0, SVG Export Plug-In . SVG Version: 6.00 Build 0)  -->

<svg
   xmlns:dc="http://purl.org/dc/elements/1.1/"
   xmlns:cc="http://creativecommons.org/ns#"
   xmlns:rdf="http://www.w3.org/1999/02/22-rdf-syntax-ns#"
   xmlns:svg="http://www.w3.org/2000/svg"
   xmlns="http://www.w3.org/2000/svg"
   xmlns:sodipodi="http://sodipodi.sourceforge.net/DTD/sodipodi-0.dtd"
   xmlns:inkscape="http://www.inkscape.org/namespaces/inkscape"
   version="1.1"
   id="Layer_1"
   x="0px"
   y="0px"
   width="274.06299"
   height="43"
   viewBox="0 0 274.06299 43"
   enable-background="new 0 0 291.5 58"
   xml:space="preserve"
   inkscape:version="0.48.3.1 r9886"
   sodipodi:docname="arepa_linux.svg"><metadata
   id="metadata3086"><rdf:RDF><cc:Work
       rdf:about=""><dc:format>image/svg+xml</dc:format><dc:type
         rdf:resource="http://purl.org/dc/dcmitype/StillImage" /></cc:Work></rdf:RDF></metadata><defs
   id="defs3084" /><sodipodi:namedview
   pagecolor="#ffffff"
   bordercolor="#666666"
   borderopacity="1"
   objecttolerance="10"
   gridtolerance="10"
   guidetolerance="10"
   inkscape:pageopacity="0"
   inkscape:pageshadow="2"
   inkscape:window-width="640"
   inkscape:window-height="480"
   id="namedview3082"
   showgrid="false"
   fit-margin-top="0"
   fit-margin-left="0"
   fit-margin-right="0"
   fit-margin-bottom="0"
   inkscape:zoom="1.5608919"
   inkscape:cx="137.031"
   inkscape:cy="21.5"
   inkscape:window-x="0"
   inkscape:window-y="27"
   inkscape:window-maximized="0"
   inkscape:current-layer="Layer_1" />
<g
   id="g3038"
   transform="translate(-8.719,-7.5)">
	<g
   enable-background="new    "
   id="g3040">
		<path
   d="m 66.584,42.737 5.808,-25.811 h 9.944 l 5.808,25.811 h -5.238 l -1.024,-4.669 h -9.033 l -1.025,4.669 h -5.24 z m 9.869,-21.483 -2.619,12.26 h 7.061 l -2.619,-12.26 h -1.823 z"
   id="path3042"
   inkscape:connector-curvature="0"
   style="fill:#6d8d24" />
		<path
   d="m 96.836,34.083 v 8.654 h -5.238 v -25.81 h 10.02 c 6.074,0 9.11,2.835 9.11,8.503 0,3.365 -1.266,5.845 -3.796,7.439 l 3.682,9.868 h -5.73 l -2.999,-8.654 h -5.049 z m 7.629,-5.617 c 0.607,-0.759 0.91,-1.759 0.91,-2.998 0,-1.24 -0.322,-2.227 -0.967,-2.961 -0.646,-0.733 -1.576,-1.101 -2.791,-1.101 h -4.781 v 8.198 h 4.857 c 1.241,0 2.164,-0.379 2.772,-1.138 z"
   id="path3044"
   inkscape:connector-curvature="0"
   style="fill:#6d8d24" />
		<path
   d="m 115.13,42.737 v -25.81 h 16.701 v 4.555 h -11.463 v 6.035 h 9.186 v 4.479 h -9.186 v 6.187 h 11.463 v 4.555 H 115.13 z"
   id="path3046"
   inkscape:connector-curvature="0"
   style="fill:#6d8d24" />
		<path
   d="m 145.646,35.222 h -4.251 v 7.516 h -5.238 V 16.927 h 9.489 c 6.123,0 9.186,2.986 9.186,8.958 0,3.012 -0.778,5.32 -2.334,6.927 -1.557,1.607 -3.84,2.41 -6.852,2.41 z m -4.25,-4.479 h 4.213 c 2.606,0 3.909,-1.619 3.909,-4.858 0,-1.594 -0.316,-2.738 -0.948,-3.435 -0.633,-0.696 -1.62,-1.044 -2.961,-1.044 h -4.213 v 9.337 z"
   id="path3048"
   inkscape:connector-curvature="0"
   style="fill:#6d8d24" />
		<path
   d="m 155.629,42.737 5.807,-25.811 h 9.945 l 5.807,25.811 h -5.238 l -1.023,-4.669 h -9.034 l -1.024,4.669 h -5.24 z m 9.869,-21.483 -2.619,12.26 h 7.06 l -2.619,-12.26 h -1.822 z"
   id="path3050"
   inkscape:connector-curvature="0"
   style="fill:#6d8d24" />
		<path
   d="M 203.87,42.737 H 189.408 V 16.472 h 2.924 v 23.646 h 11.538 v 2.619 z"
   id="path3052"
   inkscape:connector-curvature="0"
   style="fill:#6d8d24" />
		<path
   d="M 207.21,42.737 V 16.472 h 2.923 v 26.266 h -2.923 z"
   id="path3054"
   inkscape:connector-curvature="0"
   style="fill:#6d8d24" />
		<path
   d="M 216.167,42.737 V 16.472 h 5.466 l 10.059,23.685 h 0.797 V 16.472 h 2.885 v 26.266 h -5.352 L 219.811,19.053 h -0.721 v 23.685 h -2.923 z"
   id="path3056"
   inkscape:connector-curvature="0"
   style="fill:#6d8d24" />
		<path
   d="m 244.179,34.842 c 0,3.797 2.05,5.693 6.149,5.693 2.125,0 3.726,-0.448 4.801,-1.347 1.076,-0.897 1.613,-2.347 1.613,-4.347 v -18.37 h 2.885 v 18.295 c 0,2.936 -0.777,5.062 -2.334,6.376 -1.557,1.316 -3.853,1.975 -6.889,1.975 -3.037,0 -5.32,-0.658 -6.852,-1.975 -1.531,-1.314 -2.297,-3.44 -2.297,-6.376 V 16.472 h 2.923 v 18.37 z"
   id="path3058"
   inkscape:connector-curvature="0"
   style="fill:#6d8d24" />
		<path
   d="m 266.309,16.472 6.643,11.235 6.68,-11.235 h 3.15 l -8.084,13.322 8.084,12.943 h -3.303 l -6.604,-10.894 -6.719,10.894 h -3.15 l 8.123,-12.867 -8.123,-13.398 h 3.303 z"
   id="path3060"
   inkscape:connector-curvature="0"
   style="fill:#6d8d24" />
	</g>
	<g
   id="g3062">
		<g
   id="g3064">
			<path
   d="m 30.219,50.5 c -11.855,0 -21.5,-9.645 -21.5,-21.5 0,-11.855 9.645,-21.5 21.5,-21.5 11.854,0 21.5,9.645 21.5,21.5 0,11.855 -9.646,21.5 -21.5,21.5 z m 0,-37.882 c -9.033,0 -16.38,7.349 -16.38,16.382 0,9.032 7.347,16.381 16.38,16.381 9.032,0 16.383,-7.349 16.383,-16.381 0,-9.033 -7.351,-16.382 -16.383,-16.382 z"
   id="path3066"
   inkscape:connector-curvature="0"
   style="fill:#6d8d24" />
		</g>
		<g
   id="g3068">
			<g
   id="g3070">
				<path
   d="m 34.263,18.101 c 0.607,0.605 0.607,1.588 0,2.193 l -12.748,12.75 c -0.606,0.604 -1.589,0.604 -2.193,0 l 0,0 C 18.717,32.438 18.717,31.456 19.32,30.851 l 12.751,-12.75 c 0.605,-0.606 1.586,-0.607 2.192,0 l 0,0 z"
   id="path3072"
   inkscape:connector-curvature="0"
   style="fill:#6d8d24" />
			</g>
			<g
   id="g3074">
				<path
   d="m 37.69,21.528 c 0.606,0.604 0.605,1.588 0,2.192 L 24.94,36.47 c -0.605,0.605 -1.587,0.605 -2.192,0 l 0,0 C 22.143,35.865 22.143,34.882 22.747,34.277 L 35.499,21.528 c 0.605,-0.605 1.587,-0.606 2.191,0 l 0,0 z"
   id="path3076"
   inkscape:connector-curvature="0"
   style="fill:#6d8d24" />
			</g>
			<g
   id="g3078">
				<path
   d="m 41.119,24.955 c 0.605,0.606 0.605,1.588 -0.002,2.193 l -12.749,12.75 c -0.605,0.605 -1.587,0.605 -2.191,0 l 0,0 C 25.57,39.293 25.57,38.31 26.176,37.705 l 12.748,-12.75 c 0.606,-0.605 1.59,-0.605 2.195,0 l 0,0 z"
   id="path3080"
   inkscape:connector-curvature="0"
   style="fill:#6d8d24" />
			</g>
		</g>
	</g>
</g>
</svg>