<?xml version="1.0" encoding="utf-8"?>
<!-- Generator: Adobe Illustrator 15.0.0, SVG Export Plug-In . SVG Version: 6.00 Build 0)  -->
<!DOCTYPE svg PUBLIC "-//W3C//DTD SVG 1.1//EN" "http://www.w3.org/Graphics/SVG/1.1/DTD/svg11.dtd">
<svg version="1.1" id="Layer_1" xmlns="http://www.w3.org/2000/svg" xmlns:xlink="http://www.w3.org/1999/xlink" x="0px" y="0px"
	 width="612px" height="792px" viewBox="0 0 612 792" enable-background="new 0 0 612 792" xml:space="preserve">
<g>
	<g>
		<g>
			<path fill="#6D8D24" d="M332.957,472.752h-53.924v-49.795h-49.794v-53.934h49.794v-49.774h53.924v49.774h49.806v53.934h-49.806
				V472.752z M295.632,456.143h20.737v-49.783h49.784v-20.738h-49.784v-49.774h-20.737v49.774h-49.785v20.738h49.785V456.143z"/>
		</g>
	</g>
	<g>
		<path fill="#6D8D24" d="M306.001,518.387c-67.486,0-122.397-54.912-122.397-122.386c0-67.496,54.911-122.407,122.397-122.407
			c67.484,0,122.396,54.912,122.396,122.407C428.397,463.475,373.485,518.387,306.001,518.387z M306.001,294.331
			c-56.066,0-101.66,45.604-101.66,101.649c0,56.056,45.594,101.649,101.66,101.649c56.045,0,101.658-45.594,101.658-101.649
			C407.659,339.935,362.046,294.331,306.001,294.331z"/>
	</g>
	<g>
		<path fill="#6D8D24" d="M306.001,555.742c-88.088,0-159.744-71.664-159.744-159.742c0-88.087,71.656-159.743,159.744-159.743
			c88.076,0,159.742,71.656,159.742,159.743C465.743,484.078,394.077,555.742,306.001,555.742z M306.001,256.984
			c-76.638,0-139.006,62.348-139.006,138.995s62.348,139.005,139.006,139.005c76.646,0,138.994-62.357,138.994-139.005
			S382.647,256.984,306.001,256.984z"/>
	</g>
</g>
</svg>
