<?xml version="1.0" encoding="utf-8"?>
<!-- Generator: Adobe Illustrator 15.0.0, SVG Export Plug-In . SVG Version: 6.00 Build 0)  -->
<!DOCTYPE svg PUBLIC "-//W3C//DTD SVG 1.1//EN" "http://www.w3.org/Graphics/SVG/1.1/DTD/svg11.dtd">
<svg version="1.1" id="Layer_1" xmlns="http://www.w3.org/2000/svg" xmlns:xlink="http://www.w3.org/1999/xlink" x="0px" y="0px"
	 width="612px" height="792px" viewBox="0 0 612 792" enable-background="new 0 0 612 792" xml:space="preserve">
<g>
	<path fill="#6D8D24" d="M305.996,243.19c-84.254,0-152.81,68.556-152.81,152.794c0,84.27,68.556,152.825,152.81,152.825
		c84.27,0,152.817-68.556,152.817-152.825C458.813,311.738,390.266,243.19,305.996,243.19z M305.996,528.979
		c-73.322,0-132.971-59.656-132.971-132.994c0-73.322,59.648-132.963,132.971-132.963c73.33,0,132.971,59.641,132.971,132.963
		C438.967,469.322,379.311,528.979,305.996,528.979z"/>
</g>
<g>
	<path fill="#6D8D24" d="M188.728,396.316h31.983c0,2.99,0.17,5.941,0.494,8.861l-31.812,3.422
		C188.959,404.56,188.728,400.465,188.728,396.316z"/>
	<path fill="#6D8D24" d="M189.314,384.134c0.418-4.125,1.035-8.174,1.869-12.168l31.289,6.559c-0.572,2.874-1.043,5.81-1.359,8.784
		L189.314,384.134z"/>
	<path fill="#6D8D24" d="M191.331,420.675l31.28-6.651c0.626,2.92,1.414,5.771,2.333,8.575l-30.407,9.95
		C193.27,428.679,192.188,424.715,191.331,420.675z"/>
	<path fill="#6D8D24" d="M194.312,360.131c1.268-3.94,2.728-7.772,4.389-11.519l29.24,12.971c-1.213,2.696-2.248,5.462-3.167,8.297
		L194.312,360.131z"/>
	<path fill="#6D8D24" d="M198.994,444.029l29.172-13.148c1.213,2.734,2.572,5.384,4.079,7.957l-27.657,16.076
		C202.533,451.392,200.664,447.761,198.994,444.029z"/>
	<path fill="#6D8D24" d="M204.225,337.688c2.039-3.569,4.265-7.007,6.683-10.329l25.903,18.757c-1.746,2.403-3.353,4.906-4.828,7.47
		L204.225,337.688z"/>
	<path fill="#6D8D24" d="M211.285,465.174l25.85-18.857c1.754,2.395,3.631,4.696,5.625,6.906l-23.694,21.477
		C216.3,471.663,213.696,468.48,211.285,465.174z"/>
	<path fill="#6D8D24" d="M218.57,317.826c2.728-3.044,5.602-5.957,8.638-8.722l21.492,23.702c-2.202,2.001-4.288,4.118-6.265,6.327
		L218.57,317.826z"/>
	<path fill="#6D8D24" d="M227.756,483.359l21.3-23.856c2.248,1.993,4.558,3.87,6.999,5.632l-18.788,25.889
		C233.96,488.636,230.793,486.071,227.756,483.359z"/>
	<path fill="#6D8D24" d="M236.711,301.371c3.283-2.418,6.721-4.667,10.267-6.745l16.115,27.634c-2.565,1.498-5.075,3.136-7.455,4.89
		L236.711,301.371z"/>
	<path fill="#6D8D24" d="M247.58,497.721l15.945-27.734c2.564,1.476,5.207,2.82,7.934,4.041l-12.932,29.24
		C254.765,501.607,251.118,499.753,247.58,497.721z"/>
	<path fill="#6D8D24" d="M257.886,289.01c3.708-1.661,7.54-3.144,11.434-4.434l10.036,30.369c-2.852,0.942-5.648,2.017-8.352,3.245
		L257.886,289.01z"/>
	<path fill="#6D8D24" d="M270.007,507.648l9.788-30.454c2.812,0.911,5.701,1.669,8.637,2.287l-6.535,31.312
		C277.833,509.95,273.877,508.899,270.007,507.648z"/>
	<path fill="#6D8D24" d="M281.186,281.354c3.979-0.85,8.02-1.506,12.129-1.955l3.407,31.813c-2.974,0.324-5.91,0.796-8.784,1.414
		L281.186,281.354z"/>
	<path fill="#6D8D24" d="M293.994,512.67l3.269-31.821c2.851,0.294,5.786,0.448,8.745,0.448l0.17,31.983h-0.17
		C301.951,513.28,297.927,513.079,293.994,512.67z"/>
	<path fill="#6D8D24" d="M305.59,278.72h0.418c4.117,0,8.204,0.216,12.222,0.634l-3.269,31.821
		c-2.951-0.309-5.933-0.471-8.953-0.471L305.59,278.72z"/>
	<path fill="#6D8D24" d="M315.116,480.803c2.989-0.317,5.909-0.781,8.8-1.398l6.666,31.288c-3.979,0.842-8.019,1.483-12.105,1.923
		L315.116,480.803z"/>
	<path fill="#6D8D24" d="M323.753,312.55l6.598-31.304c4.04,0.85,7.996,1.916,11.874,3.167l-9.85,30.431
		C329.562,313.94,326.689,313.167,323.753,312.55z"/>
	<path fill="#6D8D24" d="M332.498,477.109c2.828-0.942,5.625-2.009,8.328-3.222l13.08,29.187c-3.732,1.662-7.541,3.137-11.457,4.42
		L332.498,477.109z"/>
	<path fill="#6D8D24" d="M340.68,318.05l13.025-29.218c3.746,1.669,7.408,3.539,10.932,5.586l-16.016,27.688
		C346.057,320.607,343.406,319.255,340.68,318.05z"/>
	<path fill="#6D8D24" d="M348.76,469.816c2.565-1.498,5.084-3.137,7.479-4.883l18.827,25.857c-3.306,2.402-6.722,4.644-10.267,6.698
		L348.76,469.816z"/>
	<path fill="#6D8D24" d="M356.115,326.965l18.804-25.872c3.306,2.402,6.474,4.983,9.51,7.702l-21.384,23.794
		C360.836,330.604,358.525,328.719,356.115,326.965z"/>
	<path fill="#6D8D24" d="M363.168,459.303c2.21-2.001,4.311-4.11,6.312-6.328l23.794,21.393c-2.743,3.036-5.632,5.94-8.676,8.676
		L363.168,459.303z"/>
	<path fill="#6D8D24" d="M369.356,338.894l23.756-21.407c2.75,3.036,5.315,6.211,7.741,9.518l-25.857,18.834
		C373.227,343.42,371.357,341.095,369.356,338.894z"/>
	<path fill="#86A047" d="M375.081,446.037c1.769-2.41,3.392-4.92,4.874-7.501l27.696,15.992c-2.04,3.538-4.272,6.976-6.667,10.282
		L375.081,446.037z"/>
	<path fill="#6D8D24" d="M379.871,353.34l27.656-16.077c2.063,3.539,3.933,7.192,5.602,10.939l-29.194,13.064
		C382.722,358.531,381.369,355.89,379.871,353.34z"/>
	<path fill="#A0B46F" d="M383.996,430.609c1.182-2.711,2.271-5.492,3.184-8.335l30.422,9.85c-1.229,3.901-2.727,7.726-4.372,11.449
		L383.996,430.609z"/>
	<path fill="#6D8D24" d="M387.117,369.556l30.423-9.873c1.251,3.862,2.31,7.826,3.167,11.851l-31.295,6.636
		C388.801,375.234,388.037,372.36,387.117,369.556z"/>
	<path fill="#BCCA98" d="M389.474,413.668c0.603-2.889,1.058-5.833,1.375-8.822l31.813,3.268c-0.448,4.103-1.059,8.135-1.893,12.105
		L389.474,413.668z"/>
	<path fill="#D9E1C6" d="M390.826,386.984l31.82-3.33c0.418,4.025,0.626,8.104,0.626,12.245h-31.999
		C391.281,392.887,391.135,389.92,390.826,386.984z"/>
</g>
<path fill="#6D8D24" d="M336.67,345.499v26.931h-6.057v-26.931h-49.227v26.931h-6.057v-26.931h-11.21v38.133h17.267v62.869h10.777
	v-34.2h27.225l-0.086,34.2h11.303v-62.869h17.274v-38.133H336.67z M292.604,356.724h26.785v15.706h-26.785V356.724z
	 M292.604,383.632h26.785v17.281h-26.785V383.632z"/>
</svg>
