<?xml version="1.0" encoding="UTF-8" standalone="no"?>
<!-- Generator: Adobe Illustrator 15.0.0, SVG Export Plug-In . SVG Version: 6.00 Build 0)  -->

<svg
   xmlns:dc="http://purl.org/dc/elements/1.1/"
   xmlns:cc="http://creativecommons.org/ns#"
   xmlns:rdf="http://www.w3.org/1999/02/22-rdf-syntax-ns#"
   xmlns:svg="http://www.w3.org/2000/svg"
   xmlns="http://www.w3.org/2000/svg"
   xmlns:sodipodi="http://sodipodi.sourceforge.net/DTD/sodipodi-0.dtd"
   xmlns:inkscape="http://www.inkscape.org/namespaces/inkscape"
   version="1.1"
   id="Layer_1"
   x="0px"
   y="0px"
   width="305.62701"
   height="305.61899"
   viewBox="0 0 305.62701 305.61899"
   enable-background="new 0 0 612 792"
   xml:space="preserve"
   inkscape:version="0.48.3.1 r9886"
   sodipodi:docname="buscar_experto.svg"><metadata
   id="metadata75"><rdf:RDF><cc:Work
       rdf:about=""><dc:format>image/svg+xml</dc:format><dc:type
         rdf:resource="http://purl.org/dc/dcmitype/StillImage" /></cc:Work></rdf:RDF></metadata><defs
   id="defs73" /><sodipodi:namedview
   pagecolor="#ffffff"
   bordercolor="#666666"
   borderopacity="1"
   objecttolerance="10"
   gridtolerance="10"
   guidetolerance="10"
   inkscape:pageopacity="0"
   inkscape:pageshadow="2"
   inkscape:window-width="640"
   inkscape:window-height="480"
   id="namedview71"
   showgrid="false"
   fit-margin-top="0"
   fit-margin-left="0"
   fit-margin-right="0"
   fit-margin-bottom="0"
   inkscape:zoom="0.2979798"
   inkscape:cx="152.814"
   inkscape:cy="152.809"
   inkscape:window-x="0"
   inkscape:window-y="27"
   inkscape:window-maximized="0"
   inkscape:current-layer="Layer_1" />
<g
   id="g3"
   transform="translate(-153.186,-243.19)">
	<path
   d="m 305.996,243.19 c -84.254,0 -152.81,68.556 -152.81,152.794 0,84.27 68.556,152.825 152.81,152.825 84.27,0 152.817,-68.556 152.817,-152.825 0,-84.246 -68.547,-152.794 -152.817,-152.794 z m 0,285.789 c -73.322,0 -132.971,-59.656 -132.971,-132.994 0,-73.322 59.648,-132.963 132.971,-132.963 73.33,0 132.971,59.641 132.971,132.963 0,73.337 -59.656,132.994 -132.971,132.994 z"
   id="path5"
   inkscape:connector-curvature="0"
   style="fill:#6d8d24" />
</g>
<g
   id="g7"
   transform="translate(-153.186,-243.19)">
	<path
   d="m 188.728,396.316 h 31.983 c 0,2.99 0.17,5.941 0.494,8.861 l -31.812,3.422 c -0.434,-4.039 -0.665,-8.134 -0.665,-12.283 z"
   id="path9"
   inkscape:connector-curvature="0"
   style="fill:#6d8d24" />
	<path
   d="m 189.314,384.134 c 0.418,-4.125 1.035,-8.174 1.869,-12.168 l 31.289,6.559 c -0.572,2.874 -1.043,5.81 -1.359,8.784 l -31.799,-3.175 z"
   id="path11"
   inkscape:connector-curvature="0"
   style="fill:#6d8d24" />
	<path
   d="m 191.331,420.675 31.28,-6.651 c 0.626,2.92 1.414,5.771 2.333,8.575 l -30.407,9.95 c -1.267,-3.87 -2.349,-7.834 -3.206,-11.874 z"
   id="path13"
   inkscape:connector-curvature="0"
   style="fill:#6d8d24" />
	<path
   d="m 194.312,360.131 c 1.268,-3.94 2.728,-7.772 4.389,-11.519 l 29.24,12.971 c -1.213,2.696 -2.248,5.462 -3.167,8.297 l -30.462,-9.749 z"
   id="path15"
   inkscape:connector-curvature="0"
   style="fill:#6d8d24" />
	<path
   d="m 198.994,444.029 29.172,-13.148 c 1.213,2.734 2.572,5.384 4.079,7.957 l -27.657,16.076 c -2.055,-3.522 -3.924,-7.153 -5.594,-10.885 z"
   id="path17"
   inkscape:connector-curvature="0"
   style="fill:#6d8d24" />
	<path
   d="m 204.225,337.688 c 2.039,-3.569 4.265,-7.007 6.683,-10.329 l 25.903,18.757 c -1.746,2.403 -3.353,4.906 -4.828,7.47 l -27.758,-15.898 z"
   id="path19"
   inkscape:connector-curvature="0"
   style="fill:#6d8d24" />
	<path
   d="m 211.285,465.174 25.85,-18.857 c 1.754,2.395 3.631,4.696 5.625,6.906 L 219.066,474.7 c -2.766,-3.037 -5.37,-6.22 -7.781,-9.526 z"
   id="path21"
   inkscape:connector-curvature="0"
   style="fill:#6d8d24" />
	<path
   d="m 218.57,317.826 c 2.728,-3.044 5.602,-5.957 8.638,-8.722 l 21.492,23.702 c -2.202,2.001 -4.288,4.118 -6.265,6.327 L 218.57,317.826 z"
   id="path23"
   inkscape:connector-curvature="0"
   style="fill:#6d8d24" />
	<path
   d="m 227.756,483.359 21.3,-23.856 c 2.248,1.993 4.558,3.87 6.999,5.632 l -18.788,25.889 c -3.307,-2.388 -6.474,-4.953 -9.511,-7.665 z"
   id="path25"
   inkscape:connector-curvature="0"
   style="fill:#6d8d24" />
	<path
   d="m 236.711,301.371 c 3.283,-2.418 6.721,-4.667 10.267,-6.745 l 16.115,27.634 c -2.565,1.498 -5.075,3.136 -7.455,4.89 l -18.927,-25.779 z"
   id="path27"
   inkscape:connector-curvature="0"
   style="fill:#6d8d24" />
	<path
   d="m 247.58,497.721 15.945,-27.734 c 2.564,1.476 5.207,2.82 7.934,4.041 l -12.932,29.24 c -3.762,-1.661 -7.409,-3.515 -10.947,-5.547 z"
   id="path29"
   inkscape:connector-curvature="0"
   style="fill:#6d8d24" />
	<path
   d="m 257.886,289.01 c 3.708,-1.661 7.54,-3.144 11.434,-4.434 l 10.036,30.369 c -2.852,0.942 -5.648,2.017 -8.352,3.245 l -13.118,-29.18 z"
   id="path31"
   inkscape:connector-curvature="0"
   style="fill:#6d8d24" />
	<path
   d="m 270.007,507.648 9.788,-30.454 c 2.812,0.911 5.701,1.669 8.637,2.287 l -6.535,31.312 c -4.064,-0.843 -8.02,-1.894 -11.89,-3.145 z"
   id="path33"
   inkscape:connector-curvature="0"
   style="fill:#6d8d24" />
	<path
   d="m 281.186,281.354 c 3.979,-0.85 8.02,-1.506 12.129,-1.955 l 3.407,31.813 c -2.974,0.324 -5.91,0.796 -8.784,1.414 l -6.752,-31.272 z"
   id="path35"
   inkscape:connector-curvature="0"
   style="fill:#6d8d24" />
	<path
   d="m 293.994,512.67 3.269,-31.821 c 2.851,0.294 5.786,0.448 8.745,0.448 l 0.17,31.983 h -0.17 c -4.057,0 -8.081,-0.201 -12.014,-0.61 z"
   id="path37"
   inkscape:connector-curvature="0"
   style="fill:#6d8d24" />
	<path
   d="m 305.59,278.72 h 0.418 c 4.117,0 8.204,0.216 12.222,0.634 l -3.269,31.821 c -2.951,-0.309 -5.933,-0.471 -8.953,-0.471 L 305.59,278.72 z"
   id="path39"
   inkscape:connector-curvature="0"
   style="fill:#6d8d24" />
	<path
   d="m 315.116,480.803 c 2.989,-0.317 5.909,-0.781 8.8,-1.398 l 6.666,31.288 c -3.979,0.842 -8.019,1.483 -12.105,1.923 l -3.361,-31.813 z"
   id="path41"
   inkscape:connector-curvature="0"
   style="fill:#6d8d24" />
	<path
   d="m 323.753,312.55 6.598,-31.304 c 4.04,0.85 7.996,1.916 11.874,3.167 l -9.85,30.431 c -2.813,-0.904 -5.686,-1.677 -8.622,-2.294 z"
   id="path43"
   inkscape:connector-curvature="0"
   style="fill:#6d8d24" />
	<path
   d="m 332.498,477.109 c 2.828,-0.942 5.625,-2.009 8.328,-3.222 l 13.08,29.187 c -3.732,1.662 -7.541,3.137 -11.457,4.42 l -9.951,-30.385 z"
   id="path45"
   inkscape:connector-curvature="0"
   style="fill:#6d8d24" />
	<path
   d="m 340.68,318.05 13.025,-29.218 c 3.746,1.669 7.408,3.539 10.932,5.586 l -16.016,27.688 c -2.564,-1.499 -5.215,-2.851 -7.941,-4.056 z"
   id="path47"
   inkscape:connector-curvature="0"
   style="fill:#6d8d24" />
	<path
   d="m 348.76,469.816 c 2.565,-1.498 5.084,-3.137 7.479,-4.883 l 18.827,25.857 c -3.306,2.402 -6.722,4.644 -10.267,6.698 L 348.76,469.816 z"
   id="path49"
   inkscape:connector-curvature="0"
   style="fill:#6d8d24" />
	<path
   d="m 356.115,326.965 18.804,-25.872 c 3.306,2.402 6.474,4.983 9.51,7.702 l -21.384,23.794 c -2.209,-1.985 -4.52,-3.87 -6.93,-5.624 z"
   id="path51"
   inkscape:connector-curvature="0"
   style="fill:#6d8d24" />
	<path
   d="m 363.168,459.303 c 2.21,-2.001 4.311,-4.11 6.312,-6.328 l 23.794,21.393 c -2.743,3.036 -5.632,5.94 -8.676,8.676 l -21.43,-23.741 z"
   id="path53"
   inkscape:connector-curvature="0"
   style="fill:#6d8d24" />
	<path
   d="m 369.356,338.894 23.756,-21.407 c 2.75,3.036 5.315,6.211 7.741,9.518 l -25.857,18.834 c -1.769,-2.419 -3.639,-4.744 -5.64,-6.945 z"
   id="path55"
   inkscape:connector-curvature="0"
   style="fill:#6d8d24" />
	<path
   d="m 375.081,446.037 c 1.769,-2.41 3.392,-4.92 4.874,-7.501 l 27.696,15.992 c -2.04,3.538 -4.272,6.976 -6.667,10.282 l -25.903,-18.773 z"
   id="path57"
   inkscape:connector-curvature="0"
   style="fill:#86a047" />
	<path
   d="m 379.871,353.34 27.656,-16.077 c 2.063,3.539 3.933,7.192 5.602,10.939 l -29.194,13.064 c -1.213,-2.735 -2.566,-5.376 -4.064,-7.926 z"
   id="path59"
   inkscape:connector-curvature="0"
   style="fill:#6d8d24" />
	<path
   d="m 383.996,430.609 c 1.182,-2.711 2.271,-5.492 3.184,-8.335 l 30.422,9.85 c -1.229,3.901 -2.727,7.726 -4.372,11.449 l -29.234,-12.964 z"
   id="path61"
   inkscape:connector-curvature="0"
   style="fill:#a0b46f" />
	<path
   d="m 387.117,369.556 30.423,-9.873 c 1.251,3.862 2.31,7.826 3.167,11.851 l -31.295,6.636 c -0.611,-2.936 -1.375,-5.81 -2.295,-8.614 z"
   id="path63"
   inkscape:connector-curvature="0"
   style="fill:#6d8d24" />
	<path
   d="m 389.474,413.668 c 0.603,-2.889 1.058,-5.833 1.375,-8.822 l 31.813,3.268 c -0.448,4.103 -1.059,8.135 -1.893,12.105 l -31.295,-6.551 z"
   id="path65"
   inkscape:connector-curvature="0"
   style="fill:#bcca98" />
	<path
   d="m 390.826,386.984 31.82,-3.33 c 0.418,4.025 0.626,8.104 0.626,12.245 h -31.999 c 0.008,-3.012 -0.138,-5.979 -0.447,-8.915 z"
   id="path67"
   inkscape:connector-curvature="0"
   style="fill:#d9e1c6" />
</g>
<path
   d="m 183.484,102.309 v 26.931 h -6.057 V 102.309 H 128.2 v 26.931 h -6.057 v -26.931 h -11.21 v 38.133 H 128.2 v 62.869 h 10.777 v -34.2 h 27.225 l -0.086,34.2 h 11.303 v -62.869 h 17.274 v -38.133 h -11.209 z m -44.066,11.225 h 26.785 v 15.706 h -26.785 v -15.706 z m 0,26.908 h 26.785 v 17.281 h -26.785 v -17.281 z"
   id="path69"
   inkscape:connector-curvature="0"
   style="fill:#6d8d24" />
</svg>