<?xml version="1.0" encoding="UTF-8" standalone="no"?>
<!-- Generator: Adobe Illustrator 15.0.0, SVG Export Plug-In . SVG Version: 6.00 Build 0)  -->

<svg
   xmlns:dc="http://purl.org/dc/elements/1.1/"
   xmlns:cc="http://creativecommons.org/ns#"
   xmlns:rdf="http://www.w3.org/1999/02/22-rdf-syntax-ns#"
   xmlns:svg="http://www.w3.org/2000/svg"
   xmlns="http://www.w3.org/2000/svg"
   xmlns:sodipodi="http://sodipodi.sourceforge.net/DTD/sodipodi-0.dtd"
   xmlns:inkscape="http://www.inkscape.org/namespaces/inkscape"
   version="1.1"
   id="Layer_1"
   x="0px"
   y="0px"
   width="229.74818"
   height="59.979"
   viewBox="0 0 229.74818 59.979"
   enable-background="new 0 0 245 74"
   xml:space="preserve"
   inkscape:version="0.48.3.1 r9886"
   sodipodi:docname="canaima_popular.svg"><metadata
   id="metadata3044"><rdf:RDF><cc:Work
       rdf:about=""><dc:format>image/svg+xml</dc:format><dc:type
         rdf:resource="http://purl.org/dc/dcmitype/StillImage" /></cc:Work></rdf:RDF></metadata><defs
   id="defs3042" /><sodipodi:namedview
   pagecolor="#ffffff"
   bordercolor="#666666"
   borderopacity="1"
   objecttolerance="10"
   gridtolerance="10"
   guidetolerance="10"
   inkscape:pageopacity="0"
   inkscape:pageshadow="2"
   inkscape:window-width="640"
   inkscape:window-height="480"
   id="namedview3040"
   showgrid="false"
   fit-margin-top="0"
   fit-margin-left="0"
   fit-margin-right="0"
   fit-margin-bottom="0"
   inkscape:zoom="1.8571429"
   inkscape:cx="114.5"
   inkscape:cy="29.99"
   inkscape:window-x="0"
   inkscape:window-y="27"
   inkscape:window-maximized="0"
   inkscape:current-layer="Layer_1" />
<g
   id="g3002"
   transform="translate(-8,-7.011)">
	<g
   id="g3004">
		<path
   d="m 169.921,13.235 c 0,-1.58 1.279,-2.86 2.865,-2.86 1.583,0 2.864,1.28 2.864,2.86 0,1.584 -1.281,2.862 -2.864,2.862 -1.586,10e-4 -2.865,-1.278 -2.865,-2.862 z"
   id="path3006"
   inkscape:connector-curvature="0"
   style="fill:#6d8d24" />
		<path
   d="m 73.788,24.63 h 12.554 c 0.234,0 0.421,-0.185 0.421,-0.417 v -4.954 c 0,-0.227 -0.187,-0.423 -0.421,-0.423 H 73.788 c -3.421,0 -6.204,2.619 -6.204,5.838 v 17.159 c 0,3.221 2.783,5.979 6.204,5.979 h 12.546 c 0.234,0 0.429,-0.194 0.429,-0.425 v -5.048 c 0,-0.236 -0.194,-0.425 -0.429,-0.425 H 73.788 c -0.225,0 -0.411,0.043 -0.411,-0.223 V 24.877 c 0,-0.234 0.186,-0.247 0.411,-0.247 z"
   id="path3008"
   inkscape:connector-curvature="0"
   style="fill:#6d8d24" />
		<path
   d="m 169.924,18.829 -0.003,28.558 c 0,0.23 0.19,0.425 0.428,0.425 h 5.03 c 0.238,0 0.427,-0.194 0.427,-0.425 V 18.829 h -5.882 z"
   id="path3010"
   inkscape:connector-curvature="0"
   style="fill:#6d8d24" />
		<path
   d="m 202.416,18.719 h -5.562 -0.129 v 23.968 h -2.796 V 18.719 H 180.19 l 0.014,28.661 c 0,0.236 0.181,0.426 0.4,0.426 h 4.738 c 0.224,0 0.402,-0.189 0.402,-0.426 l -0.007,-23.14 h 2.997 v 23.571 h 13.669 0.013 V 24.24 h 2.984 l 0.007,23.14 c 0,0.236 0.179,0.426 0.394,0.426 h 4.652 c 0.217,0 0.392,-0.189 0.392,-0.426 V 18.557 l -8.429,0.162 z"
   id="path3012"
   inkscape:connector-curvature="0"
   style="fill:#6d8d24" />
		<path
   d="m 139.122,18.84 h -5.072 c -0.238,0 -0.427,0.192 -0.427,0.426 l -0.004,23.374 h -2.912 V 18.829 h -14.303 v 28.558 c 0,0.23 0.192,0.425 0.427,0.425 h 4.934 c 0.231,0 0.415,-0.194 0.415,-0.425 V 24.231 h 3.122 v 23.58 h 14.247 V 21.478 19.266 c 0,-0.234 -0.193,-0.426 -0.427,-0.426 z"
   id="path3014"
   inkscape:connector-curvature="0"
   style="fill:#6d8d24" />
		<path
   d="m 106.767,18.829 h -11.16 l -6.415,28.589 c -0.031,0.217 0.108,0.39 0.325,0.39 h 5.021 c 0.221,0 0.434,-0.173 0.504,-0.39 l 1.073,-4.851 h 10.141 l 1.09,4.863 c 0.064,0.217 0.281,0.39 0.502,0.39 h 5.021 c 0.217,0 0.359,-0.173 0.326,-0.39 l -6.428,-28.601 z m -9.546,18.624 2.825,-13.216 h 2.278 l 2.825,13.216 h -7.928 z"
   id="path3016"
   inkscape:connector-curvature="0"
   style="fill:#6d8d24" />
		<path
   d="m 160.447,18.829 h -11.165 l -6.412,28.589 c -0.033,0.217 0.107,0.39 0.327,0.39 h 5.021 c 0.219,0 0.434,-0.173 0.5,-0.39 l 1.074,-4.851 h 10.145 l 1.085,4.863 c 0.066,0.217 0.283,0.39 0.502,0.39 h 5.021 c 0.222,0 0.357,-0.173 0.328,-0.39 l -6.426,-28.601 z m -9.548,18.624 2.823,-13.216 h 2.28 l 2.822,13.216 h -7.925 z"
   id="path3018"
   inkscape:connector-curvature="0"
   style="fill:#6d8d24" />
		<path
   d="M 231.313,18.829 H 220.15 l -6.414,28.589 c -0.027,0.217 0.112,0.39 0.331,0.39 h 5.02 c 0.222,0 0.434,-0.173 0.504,-0.39 l 1.073,-4.851 h 10.138 l 1.089,4.863 c 0.066,0.217 0.281,0.39 0.504,0.39 h 5.02 c 0.221,0 0.356,-0.173 0.33,-0.39 l -6.432,-28.601 z m -9.543,18.624 2.825,-13.216 h 2.28 l 2.825,13.216 h -7.93 z"
   id="path3020"
   inkscape:connector-curvature="0"
   style="fill:#6d8d24" />
	</g>
	<g
   enable-background="new    "
   id="g3022">
		<path
   d="M 73.602,63.366 H 71.67 v 3.416 H 69.289 V 55.053 h 4.312 c 2.782,0 4.174,1.356 4.174,4.071 0,1.368 -0.354,2.418 -1.061,3.147 -0.706,0.731 -1.744,1.095 -3.112,1.095 z M 71.67,61.331 h 1.914 c 1.185,0 1.777,-0.735 1.777,-2.207 0,-0.725 -0.145,-1.245 -0.432,-1.562 -0.288,-0.315 -0.736,-0.474 -1.346,-0.474 H 71.67 v 4.243 z"
   id="path3024"
   inkscape:connector-curvature="0"
   style="fill:#6d8d24" />
		<path
   d="m 87.564,65.532 c -0.73,0.971 -1.987,1.457 -3.77,1.457 -1.783,0 -3.039,-0.486 -3.769,-1.457 -0.73,-0.973 -1.096,-2.493 -1.096,-4.562 0,-2.07 0.365,-3.608 1.096,-4.615 0.729,-1.006 1.986,-1.509 3.769,-1.509 1.783,0 3.039,0.503 3.77,1.509 0.729,1.007 1.095,2.545 1.095,4.615 0,2.069 -0.365,3.59 -1.095,4.562 z m -5.675,-1.518 c 0.34,0.604 0.975,0.905 1.906,0.905 0.931,0 1.567,-0.301 1.906,-0.905 0.339,-0.604 0.509,-1.615 0.509,-3.036 0,-1.42 -0.173,-2.451 -0.518,-3.096 -0.345,-0.645 -0.978,-0.967 -1.897,-0.967 -0.919,0 -1.552,0.322 -1.897,0.967 -0.345,0.645 -0.518,1.676 -0.518,3.096 0,1.42 0.17,2.432 0.509,3.036 z"
   id="path3026"
   inkscape:connector-curvature="0"
   style="fill:#6d8d24" />
		<path
   d="m 95.008,63.366 h -1.932 v 3.416 H 90.695 V 55.053 h 4.312 c 2.782,0 4.174,1.356 4.174,4.071 0,1.368 -0.354,2.418 -1.061,3.147 -0.706,0.731 -1.744,1.095 -3.112,1.095 z m -1.932,-2.035 h 1.914 c 1.185,0 1.777,-0.735 1.777,-2.207 0,-0.725 -0.145,-1.245 -0.432,-1.562 -0.288,-0.315 -0.736,-0.474 -1.346,-0.474 h -1.914 v 4.243 z"
   id="path3028"
   inkscape:connector-curvature="0"
   style="fill:#6d8d24" />
		<path
   d="m 103.132,62.866 c 0,1.369 0.695,2.053 2.087,2.053 1.392,0 2.087,-0.684 2.087,-2.053 v -7.813 h 2.381 v 7.763 c 0,1.438 -0.371,2.492 -1.113,3.164 -0.741,0.674 -1.86,1.01 -3.354,1.01 -1.495,0 -2.613,-0.336 -3.355,-1.01 -0.741,-0.672 -1.112,-1.727 -1.112,-3.164 v -7.763 h 2.381 v 7.813 z"
   id="path3030"
   inkscape:connector-curvature="0"
   style="fill:#6d8d24" />
		<path
   d="m 118.812,66.782 h -6.676 V 55.053 h 2.381 v 9.625 h 4.295 v 2.104 z"
   id="path3032"
   inkscape:connector-curvature="0"
   style="fill:#6d8d24" />
		<path
   d="m 119.293,66.782 2.64,-11.729 h 4.519 l 2.64,11.729 h -2.381 l -0.465,-2.121 h -4.105 l -0.466,2.121 h -2.382 z m 4.485,-9.763 -1.19,5.572 h 3.208 l -1.189,-5.572 h -0.829 z"
   id="path3034"
   inkscape:connector-curvature="0"
   style="fill:#6d8d24" />
		<path
   d="m 133.041,62.85 v 3.933 h -2.381 v -11.73 h 4.554 c 2.76,0 4.14,1.288 4.14,3.864 0,1.529 -0.575,2.656 -1.725,3.381 l 1.673,4.484 h -2.604 l -1.362,-3.933 h -2.295 z m 3.467,-2.554 c 0.276,-0.344 0.414,-0.799 0.414,-1.362 0,-0.563 -0.146,-1.012 -0.44,-1.345 -0.293,-0.334 -0.716,-0.5 -1.268,-0.5 h -2.173 v 3.725 h 2.207 c 0.564,-10e-4 0.983,-0.172 1.26,-0.518 z"
   id="path3036"
   inkscape:connector-curvature="0"
   style="fill:#6d8d24" />
	</g>
	<path
   d="M 30.5,7.011 C 18.093,7.011 8,17.104 8,29.511 c 0,12.406 10.093,22.5 22.5,22.5 12.406,0 22.5,-10.094 22.5,-22.5 0,-12.407 -10.094,-22.5 -22.5,-22.5 z m 16.739,18.832 h -4.435 v -8.242 c 2.176,2.247 3.743,5.081 4.435,8.242 z m -28.83,-8.471 v 8.471 h -4.646 c 0.716,-3.267 2.357,-6.191 4.646,-8.471 z m -5.034,12.471 h 7.034 c 1.104,0 2,-0.896 2,-2 V 14.404 c 0.801,-0.431 1.646,-0.787 2.516,-1.088 v 18.133 h -5.728 c -1.104,0 -2,0.896 -2,2 v 6.853 C 14.866,37.434 13.451,33.801 13.375,29.843 z m 7.795,14.03 c 0.013,-0.09 0.027,-0.179 0.027,-0.271 v -8.153 h 5.728 c 1.104,0 2,-0.896 2,-2 V 12.447 c 0.52,-0.048 1.044,-0.08 1.575,-0.08 0.604,0 1.201,0.033 1.789,0.095 v 20.987 c 0,1.104 0.896,2 2,2 h 5.728 v 8.153 c 0,0.051 0.011,0.098 0.015,0.148 -2.728,1.831 -6.006,2.902 -9.531,2.902 -3.442,10e-4 -6.644,-1.027 -9.331,-2.779 z M 44.017,40.019 V 33.45 c 0,-1.104 -0.896,-2 -2,-2 H 36.289 V 13.396 c 0.872,0.313 1.716,0.685 2.516,1.129 v 13.318 c 0,1.104 0.896,2 2,2 h 6.823 c -0.074,3.831 -1.411,7.351 -3.611,10.176 z"
   id="path3038"
   inkscape:connector-curvature="0"
   style="fill:#6d8d24" />
</g>
</svg>