<?xml version="1.0" encoding="UTF-8" standalone="no"?>
<!-- Generator: Adobe Illustrator 15.0.0, SVG Export Plug-In . SVG Version: 6.00 Build 0)  -->

<svg
   xmlns:dc="http://purl.org/dc/elements/1.1/"
   xmlns:cc="http://creativecommons.org/ns#"
   xmlns:rdf="http://www.w3.org/1999/02/22-rdf-syntax-ns#"
   xmlns:svg="http://www.w3.org/2000/svg"
   xmlns="http://www.w3.org/2000/svg"
   xmlns:sodipodi="http://sodipodi.sourceforge.net/DTD/sodipodi-0.dtd"
   xmlns:inkscape="http://www.inkscape.org/namespaces/inkscape"
   version="1.1"
   id="Layer_1"
   x="0px"
   y="0px"
   width="170.16319"
   height="56.992001"
   viewBox="0 0 170.16319 56.992001"
   enable-background="new 0 0 187 74"
   xml:space="preserve"
   inkscape:version="0.48.3.1 r9886"
   sodipodi:docname="canaimaGNU-LINUX.svg"><metadata
   id="metadata47"><rdf:RDF><cc:Work
       rdf:about=""><dc:format>image/svg+xml</dc:format><dc:type
         rdf:resource="http://purl.org/dc/dcmitype/StillImage" /></cc:Work></rdf:RDF></metadata><defs
   id="defs45" /><sodipodi:namedview
   pagecolor="#ffffff"
   bordercolor="#666666"
   borderopacity="1"
   objecttolerance="10"
   gridtolerance="10"
   guidetolerance="10"
   inkscape:pageopacity="0"
   inkscape:pageshadow="2"
   inkscape:window-width="640"
   inkscape:window-height="480"
   id="namedview43"
   showgrid="false"
   fit-margin-top="0"
   fit-margin-left="0"
   fit-margin-right="0"
   fit-margin-bottom="0"
   inkscape:zoom="2.4331551"
   inkscape:cx="85.081"
   inkscape:cy="28.496"
   inkscape:window-x="0"
   inkscape:window-y="27"
   inkscape:window-maximized="0"
   inkscape:current-layer="Layer_1" />
<g
   id="g3"
   transform="translate(-8.419,-8.504)">
	<g
   id="g5">
		<path
   d="m 110.755,11.364 c 0,-1.581 1.279,-2.86 2.865,-2.86 1.583,0 2.864,1.279 2.864,2.86 0,1.584 -1.281,2.862 -2.864,2.862 -1.586,10e-4 -2.865,-1.278 -2.865,-2.862 z"
   id="path7"
   inkscape:connector-curvature="0"
   style="fill:#6d8d24" />
		<path
   d="m 14.623,22.759 h 12.554 c 0.234,0 0.421,-0.186 0.421,-0.418 v -4.953 c 0,-0.228 -0.187,-0.424 -0.421,-0.424 H 14.623 c -3.421,0 -6.204,2.62 -6.204,5.839 v 17.159 c 0,3.22 2.783,5.978 6.204,5.978 h 12.546 c 0.234,0 0.429,-0.194 0.429,-0.425 v -5.048 c 0,-0.236 -0.194,-0.425 -0.429,-0.425 H 14.623 c -0.225,0 -0.411,0.044 -0.411,-0.222 V 23.005 c -10e-4,-0.234 0.186,-0.246 0.411,-0.246 z"
   id="path9"
   inkscape:connector-curvature="0"
   style="fill:#6d8d24" />
		<path
   d="m 110.758,16.957 -0.003,28.558 c 0,0.23 0.19,0.425 0.428,0.425 h 5.03 c 0.238,0 0.427,-0.194 0.427,-0.425 V 16.957 h -5.882 z"
   id="path11"
   inkscape:connector-curvature="0"
   style="fill:#6d8d24" />
		<path
   d="m 143.25,16.848 h -5.562 -0.129 v 23.967 h -2.796 V 16.848 h -13.739 l 0.014,28.66 c 0,0.236 0.181,0.426 0.4,0.426 h 4.738 c 0.224,0 0.402,-0.189 0.402,-0.426 l -0.007,-23.139 h 2.997 v 23.57 h 13.669 0.013 v -23.57 h 2.984 l 0.007,23.139 c 0,0.236 0.179,0.426 0.394,0.426 h 4.652 c 0.217,0 0.392,-0.189 0.392,-0.426 V 16.685 l -8.429,0.163 z"
   id="path13"
   inkscape:connector-curvature="0"
   style="fill:#6d8d24" />
		<path
   d="m 79.957,16.968 h -5.072 c -0.238,0 -0.427,0.192 -0.427,0.427 L 74.454,40.768 H 71.542 V 16.957 H 57.239 v 28.558 c 0,0.23 0.192,0.425 0.427,0.425 H 62.6 c 0.231,0 0.415,-0.194 0.415,-0.425 V 22.36 h 3.122 V 45.939 H 80.384 V 19.606 17.394 C 80.383,17.16 80.191,16.968 79.957,16.968 z"
   id="path15"
   inkscape:connector-curvature="0"
   style="fill:#6d8d24" />
		<path
   d="m 47.601,16.957 h -11.16 l -6.415,28.589 c -0.031,0.217 0.108,0.39 0.325,0.39 h 5.021 c 0.221,0 0.434,-0.173 0.504,-0.39 l 1.073,-4.85 H 47.09 l 1.09,4.862 c 0.064,0.217 0.281,0.39 0.502,0.39 h 5.021 c 0.217,0 0.359,-0.173 0.326,-0.39 L 47.601,16.957 z M 38.055,35.582 40.88,22.365 h 2.278 l 2.825,13.217 h -7.928 z"
   id="path17"
   inkscape:connector-curvature="0"
   style="fill:#6d8d24" />
		<path
   d="M 101.281,16.957 H 90.117 l -6.412,28.589 c -0.033,0.217 0.107,0.39 0.327,0.39 h 5.021 c 0.219,0 0.434,-0.173 0.5,-0.39 l 1.074,-4.85 h 10.144 l 1.085,4.862 c 0.066,0.217 0.283,0.39 0.502,0.39 h 5.021 c 0.222,0 0.357,-0.173 0.328,-0.39 l -6.426,-28.601 z m -9.547,18.625 2.823,-13.217 h 2.28 l 2.822,13.217 h -7.925 z"
   id="path19"
   inkscape:connector-curvature="0"
   style="fill:#6d8d24" />
		<path
   d="m 172.147,16.957 h -11.163 l -6.414,28.589 c -0.027,0.217 0.112,0.39 0.331,0.39 h 5.02 c 0.222,0 0.434,-0.173 0.504,-0.39 l 1.073,-4.85 h 10.138 l 1.089,4.862 c 0.066,0.217 0.281,0.39 0.504,0.39 h 5.02 c 0.221,0 0.356,-0.173 0.33,-0.39 l -6.432,-28.601 z m -9.543,18.625 2.825,-13.217 h 2.28 l 2.825,13.217 h -7.93 z"
   id="path21"
   inkscape:connector-curvature="0"
   style="fill:#6d8d24" />
	</g>
	<g
   enable-background="new    "
   id="g23">
		<path
   d="m 55.829,60.701 v -2.07 h 3.415 v 6.09 c -1.645,0.264 -2.979,0.396 -4.002,0.396 -1.828,0 -3.085,-0.488 -3.769,-1.467 -0.685,-0.977 -1.026,-2.529 -1.026,-4.656 0,-2.128 0.356,-3.663 1.069,-4.605 0.713,-0.943 1.926,-1.415 3.64,-1.415 1.069,0 2.225,0.12 3.467,0.362 l 0.621,0.121 -0.069,1.846 c -1.38,-0.15 -2.51,-0.225 -3.389,-0.225 -0.88,0 -1.498,0.104 -1.854,0.311 -0.356,0.207 -0.618,0.59 -0.785,1.146 -0.167,0.559 -0.25,1.513 -0.25,2.863 0,1.352 0.167,2.298 0.5,2.838 0.334,0.541 1.023,0.811 2.07,0.811 l 1.432,-0.068 v -2.277 h -1.07 z"
   id="path25"
   inkscape:connector-curvature="0"
   style="fill:#6d8d24" />
		<path
   d="M 61.486,64.91 V 53.181 h 4.02 l 2.828,9.659 h 0.173 v -9.659 h 2.381 V 64.91 h -3.916 l -2.933,-9.66 h -0.172 v 9.66 h -2.381 z"
   id="path27"
   inkscape:connector-curvature="0"
   style="fill:#6d8d24" />
		<path
   d="m 75.717,60.994 c 0,1.369 0.695,2.053 2.087,2.053 1.392,0 2.087,-0.684 2.087,-2.053 v -7.813 h 2.381 v 7.763 c 0,1.438 -0.371,2.492 -1.113,3.164 -0.741,0.674 -1.86,1.01 -3.354,1.01 -1.495,0 -2.613,-0.336 -3.355,-1.01 -0.741,-0.672 -1.112,-1.727 -1.112,-3.164 v -7.763 h 2.381 v 7.813 z"
   id="path29"
   inkscape:connector-curvature="0"
   style="fill:#6d8d24" />
		<path
   d="m 83.704,64.771 4.968,-12.246 2.035,0.725 -4.968,12.246 -2.035,-0.725 z"
   id="path31"
   inkscape:connector-curvature="0"
   style="fill:#6d8d24" />
		<path
   d="M 99.158,64.91 H 92.482 V 53.181 h 2.381 v 9.625 h 4.295 v 2.104 z"
   id="path33"
   inkscape:connector-curvature="0"
   style="fill:#6d8d24" />
		<path
   d="M 100.623,64.91 V 53.181 h 2.381 V 64.91 h -2.381 z"
   id="path35"
   inkscape:connector-curvature="0"
   style="fill:#6d8d24" />
		<path
   d="M 105.557,64.91 V 53.181 h 4.02 l 2.828,9.659 h 0.174 v -9.659 h 2.381 V 64.91 h -3.916 l -2.934,-9.66 h -0.172 v 9.66 h -2.381 z"
   id="path37"
   inkscape:connector-curvature="0"
   style="fill:#6d8d24" />
		<path
   d="m 119.787,60.994 c 0,1.369 0.695,2.053 2.088,2.053 1.391,0 2.086,-0.684 2.086,-2.053 v -7.813 h 2.381 v 7.763 c 0,1.438 -0.371,2.492 -1.113,3.164 -0.74,0.674 -1.859,1.01 -3.354,1.01 -1.496,0 -2.613,-0.336 -3.355,-1.01 -0.742,-0.672 -1.113,-1.727 -1.113,-3.164 v -7.763 h 2.381 v 7.813 z"
   id="path39"
   inkscape:connector-curvature="0"
   style="fill:#6d8d24" />
		<path
   d="m 130.309,53.181 2.174,4.312 2.227,-4.312 h 2.465 l -3.381,5.985 3.381,5.744 h -2.639 l -2.174,-4.054 -2.225,4.054 h -2.467 l 3.381,-5.623 -3.381,-6.106 h 2.639 z"
   id="path41"
   inkscape:connector-curvature="0"
   style="fill:#6d8d24" />
	</g>
</g>
</svg>