<?xml version="1.0" encoding="UTF-8" standalone="no"?>
<!-- Generator: Adobe Illustrator 15.0.0, SVG Export Plug-In . SVG Version: 6.00 Build 0)  -->

<svg
   xmlns:dc="http://purl.org/dc/elements/1.1/"
   xmlns:cc="http://creativecommons.org/ns#"
   xmlns:rdf="http://www.w3.org/1999/02/22-rdf-syntax-ns#"
   xmlns:svg="http://www.w3.org/2000/svg"
   xmlns="http://www.w3.org/2000/svg"
   xmlns:sodipodi="http://sodipodi.sourceforge.net/DTD/sodipodi-0.dtd"
   xmlns:inkscape="http://www.inkscape.org/namespaces/inkscape"
   version="1.1"
   id="Layer_1"
   x="0px"
   y="0px"
   width="206.99742"
   height="52.284"
   viewBox="0 0 206.99742 52.284"
   enable-background="new 0 0 214.5 58"
   xml:space="preserve"
   inkscape:version="0.48.3.1 r9886"
   sodipodi:docname="canaima_colibri.svg"><metadata
   id="metadata3080"><rdf:RDF><cc:Work
       rdf:about=""><dc:format>image/svg+xml</dc:format><dc:type
         rdf:resource="http://purl.org/dc/dcmitype/StillImage" /></cc:Work></rdf:RDF></metadata><defs
   id="defs3078" /><sodipodi:namedview
   pagecolor="#ffffff"
   bordercolor="#666666"
   borderopacity="1"
   objecttolerance="10"
   gridtolerance="10"
   guidetolerance="10"
   inkscape:pageopacity="0"
   inkscape:pageshadow="2"
   inkscape:window-width="640"
   inkscape:window-height="480"
   id="namedview3076"
   showgrid="false"
   fit-margin-top="0"
   fit-margin-left="0"
   fit-margin-right="0"
   fit-margin-bottom="0"
   inkscape:zoom="2.1212121"
   inkscape:cx="102.998"
   inkscape:cy="26.142"
   inkscape:window-x="0"
   inkscape:window-y="27"
   inkscape:window-maximized="0"
   inkscape:current-layer="Layer_1" />
<g
   id="g3040"
   transform="translate(-4.252,-2.858)">
	<circle
   cx="151.26801"
   cy="5.5110002"
   r="2.645"
   id="circle3042"
   sodipodi:cx="151.26801"
   sodipodi:cy="5.5110002"
   sodipodi:rx="2.645"
   sodipodi:ry="2.645"
   style="fill:#6d8d24"
   d="m 153.91301,5.5110002 c 0,1.4607931 -1.18421,2.6449999 -2.645,2.6449999 -1.4608,0 -2.645,-1.1842068 -2.645,-2.6449999 0,-1.4607932 1.1842,-2.645 2.645,-2.645 1.46079,0 2.645,1.1842068 2.645,2.645 z" />
	<path
   d="m 59.863,16.03 h 11.591 c 0.211,0 0.386,-0.175 0.386,-0.385 v -4.576 c 0,-0.21 -0.175,-0.39 -0.386,-0.39 H 59.863 c -3.159,0 -5.729,2.418 -5.729,5.391 v 15.844 c 0,2.97 2.57,5.519 5.729,5.519 h 11.585 c 0.215,0 0.392,-0.176 0.392,-0.395 V 32.38 c 0,-0.217 -0.177,-0.397 -0.392,-0.397 H 59.863 c -0.204,0 -0.38,0.046 -0.38,-0.201 V 16.257 c 0,-0.217 0.176,-0.227 0.38,-0.227 z"
   id="path3044"
   inkscape:connector-curvature="0"
   style="fill:#6d8d24" />
	<path
   d="m 148.626,10.673 v 26.365 c 0,0.219 0.178,0.395 0.393,0.395 h 4.646 c 0.217,0 0.393,-0.176 0.393,-0.395 V 10.673 h -5.432 z"
   id="path3046"
   inkscape:connector-curvature="0"
   style="fill:#6d8d24" />
	<path
   d="m 178.63,10.573 h -5.134 -0.12 v 22.13 h -2.586 v -22.13 h -12.684 l 0.011,26.463 c 0,0.217 0.164,0.395 0.37,0.395 h 4.379 c 0.202,0 0.37,-0.178 0.37,-0.395 l -0.011,-21.37 h 2.768 v 21.767 h 12.623 0.014 V 15.666 h 2.752 l 0.007,21.37 c 0,0.217 0.161,0.395 0.366,0.395 h 4.295 c 0.199,0 0.362,-0.178 0.362,-0.395 V 10.419 l -7.782,0.154 z"
   id="path3048"
   inkscape:connector-curvature="0"
   style="fill:#6d8d24" />
	<path
   d="m 120.185,10.682 h -4.678 c -0.22,0 -0.396,0.18 -0.396,0.395 l -0.002,21.58 h -2.692 V 10.673 H 99.212 v 26.365 c 0,0.219 0.178,0.395 0.392,0.395 h 4.557 c 0.21,0 0.384,-0.176 0.384,-0.395 V 15.659 h 2.883 v 21.773 h 13.154 V 13.119 11.076 c -10e-4,-0.215 -0.179,-0.394 -0.397,-0.394 z"
   id="path3050"
   inkscape:connector-curvature="0"
   style="fill:#6d8d24" />
	<path
   d="m 90.313,10.673 h -10.31 l -5.92,26.398 c -0.027,0.203 0.102,0.359 0.307,0.359 h 4.635 c 0.203,0 0.402,-0.156 0.465,-0.359 l 0.986,-4.479 h 9.368 l 1.003,4.488 c 0.061,0.197 0.26,0.359 0.464,0.359 h 4.634 c 0.204,0 0.334,-0.162 0.306,-0.359 L 90.313,10.673 z m -8.81,17.195 2.605,-12.204 h 2.104 l 2.609,12.204 h -7.318 z"
   id="path3052"
   inkscape:connector-curvature="0"
   style="fill:#6d8d24" />
	<path
   d="m 139.874,10.673 h -10.308 l -5.922,26.398 c -0.026,0.203 0.104,0.359 0.304,0.359 h 4.638 c 0.202,0 0.4,-0.156 0.464,-0.359 l 0.99,-4.479 h 9.367 l 1.002,4.488 c 0.062,0.197 0.258,0.359 0.467,0.359 h 4.631 c 0.205,0 0.331,-0.162 0.305,-0.359 l -5.938,-26.407 z m -8.812,17.195 2.607,-12.204 h 2.106 l 2.604,12.204 h -7.317 z"
   id="path3054"
   inkscape:connector-curvature="0"
   style="fill:#6d8d24" />
	<path
   d="m 205.312,10.673 h -10.308 l -5.925,26.398 c -0.025,0.203 0.104,0.359 0.307,0.359 h 4.637 c 0.201,0 0.399,-0.156 0.461,-0.359 l 0.99,-4.479 h 9.367 l 1.006,4.488 c 0.059,0.197 0.258,0.359 0.461,0.359 h 4.633 c 0.207,0 0.331,-0.162 0.305,-0.359 l -5.934,-26.407 z m -8.813,17.195 2.607,-12.204 h 2.103 l 2.608,12.204 h -7.318 z"
   id="path3056"
   inkscape:connector-curvature="0"
   style="fill:#6d8d24" />
	<g
   enable-background="new    "
   id="g3058">
		<path
   d="m 62.578,54.774 c -1.126,0.244 -2.14,0.367 -3.042,0.367 -0.902,0 -1.625,-0.111 -2.166,-0.335 -0.541,-0.223 -0.967,-0.578 -1.273,-1.067 -0.309,-0.488 -0.521,-1.061 -0.638,-1.72 -0.117,-0.658 -0.175,-1.486 -0.175,-2.484 0,-2.092 0.294,-3.549 0.883,-4.372 0.59,-0.822 1.676,-1.234 3.258,-1.234 0.912,0 1.969,0.144 3.169,0.43 L 62.53,46.11 c -1.051,-0.158 -1.925,-0.238 -2.62,-0.238 -0.695,0 -1.192,0.094 -1.489,0.279 -0.297,0.185 -0.518,0.539 -0.66,1.059 -0.145,0.521 -0.215,1.406 -0.215,2.66 0,1.252 0.145,2.121 0.438,2.604 0.292,0.483 0.876,0.725 1.752,0.725 0.876,0 1.808,-0.074 2.795,-0.223 l 0.047,1.798 z"
   id="path3060"
   inkscape:connector-curvature="0"
   style="fill:#6d8d24" />
		<path
   d="m 71.76,53.796 c -0.675,0.896 -1.834,1.346 -3.479,1.346 -1.646,0 -2.807,-0.449 -3.48,-1.346 -0.674,-0.897 -1.012,-2.302 -1.012,-4.213 0,-1.911 0.338,-3.331 1.012,-4.26 0.674,-0.93 1.834,-1.395 3.48,-1.395 1.646,0 2.805,0.465 3.479,1.395 0.675,0.929 1.011,2.349 1.011,4.26 0,1.911 -0.336,3.315 -1.011,4.213 z m -5.239,-1.402 c 0.312,0.559 0.899,0.836 1.76,0.836 0.859,0 1.446,-0.277 1.76,-0.836 0.312,-0.557 0.47,-1.491 0.47,-2.803 0,-1.311 -0.159,-2.264 -0.478,-2.859 -0.318,-0.594 -0.902,-0.891 -1.752,-0.891 -0.85,0 -1.434,0.297 -1.752,0.891 -0.318,0.596 -0.479,1.549 -0.479,2.859 0,1.311 0.156,2.246 0.471,2.803 z"
   id="path3062"
   inkscape:connector-curvature="0"
   style="fill:#6d8d24" />
		<path
   d="M 80.813,54.95 H 74.65 V 44.12 h 2.198 v 8.887 h 3.965 v 1.943 z"
   id="path3064"
   inkscape:connector-curvature="0"
   style="fill:#6d8d24" />
		<path
   d="M 82.167,54.95 V 44.12 h 2.198 v 10.83 h -2.198 z"
   id="path3066"
   inkscape:connector-curvature="0"
   style="fill:#6d8d24" />
		<path
   d="m 86.722,44.12 h 4.253 c 1.125,0 1.97,0.226 2.532,0.677 0.562,0.452 0.844,1.182 0.844,2.19 0,0.605 -0.09,1.086 -0.271,1.441 -0.181,0.355 -0.488,0.672 -0.924,0.947 0.478,0.201 0.831,0.494 1.06,0.876 0.229,0.382 0.342,0.913 0.342,1.593 0,1.051 -0.308,1.832 -0.924,2.341 -0.615,0.51 -1.48,0.765 -2.596,0.765 H 86.722 V 44.12 z m 4.14,1.879 H 88.92 v 2.58 h 1.959 c 0.828,0 1.242,-0.43 1.242,-1.289 0,-0.86 -0.419,-1.291 -1.259,-1.291 z m 0.065,4.428 H 88.92 v 2.645 h 2.007 c 0.478,0 0.83,-0.096 1.059,-0.287 0.229,-0.191 0.343,-0.541 0.343,-1.051 -10e-4,-0.872 -0.469,-1.307 -1.402,-1.307 z"
   id="path3068"
   inkscape:connector-curvature="0"
   style="fill:#6d8d24" />
		<path
   d="M 98.619,51.319 V 54.95 H 96.421 V 44.12 h 4.205 c 2.549,0 3.822,1.189 3.822,3.567 0,1.413 -0.531,2.453 -1.593,3.122 l 1.545,4.141 h -2.405 l -1.258,-3.631 h -2.118 z m 3.201,-2.357 c 0.255,-0.318 0.382,-0.738 0.382,-1.258 0,-0.521 -0.135,-0.935 -0.406,-1.242 -0.27,-0.309 -0.66,-0.463 -1.17,-0.463 h -2.007 v 3.44 h 2.038 c 0.521,0 0.908,-0.159 1.163,-0.477 z"
   id="path3070"
   inkscape:connector-curvature="0"
   style="fill:#6d8d24" />
		<path
   d="m 105.229,41.588 4.014,-1.688 0.653,1.912 -4.141,1.258 -0.526,-1.482 z m 1.067,13.362 V 44.12 h 2.197 v 10.83 h -2.197 z"
   id="path3072"
   inkscape:connector-curvature="0"
   style="fill:#6d8d24" />
	</g>
	<polygon
   points="10.92,30.489 4.252,30.489 4.252,36.835 40.411,36.835 40.538,36.835 40.538,30.682 40.411,30.682 40.411,30.489 28.874,30.489 28.874,21.578 40.538,21.578 40.538,15.423 22.717,15.423 22.717,30.489 17.073,30.489 17.073,9.014 40.538,9.014 40.538,2.858 10.92,2.858 "
   id="polygon3074"
   style="fill:#6d8d24" />
</g>
</svg>