<?xml version="1.0" encoding="UTF-8" standalone="no"?>
<!-- Generator: Adobe Illustrator 15.0.0, SVG Export Plug-In . SVG Version: 6.00 Build 0)  -->

<svg
   xmlns:dc="http://purl.org/dc/elements/1.1/"
   xmlns:cc="http://creativecommons.org/ns#"
   xmlns:rdf="http://www.w3.org/1999/02/22-rdf-syntax-ns#"
   xmlns:svg="http://www.w3.org/2000/svg"
   xmlns="http://www.w3.org/2000/svg"
   xmlns:sodipodi="http://sodipodi.sourceforge.net/DTD/sodipodi-0.dtd"
   xmlns:inkscape="http://www.inkscape.org/namespaces/inkscape"
   version="1.1"
   id="Layer_1"
   x="0px"
   y="0px"
   width="214.29091"
   height="71.946999"
   viewBox="0 0 214.29092 71.946999"
   enable-background="new 0 0 224.333 78"
   xml:space="preserve"
   inkscape:version="0.48.3.1 r9886"
   sodipodi:docname="canaima_caribay.svg"><metadata
   id="metadata3037"><rdf:RDF><cc:Work
       rdf:about=""><dc:format>image/svg+xml</dc:format><dc:type
         rdf:resource="http://purl.org/dc/dcmitype/StillImage" /></cc:Work></rdf:RDF></metadata><defs
   id="defs3035" /><sodipodi:namedview
   pagecolor="#ffffff"
   bordercolor="#666666"
   borderopacity="1"
   objecttolerance="10"
   gridtolerance="10"
   guidetolerance="10"
   inkscape:pageopacity="0"
   inkscape:pageshadow="2"
   inkscape:window-width="640"
   inkscape:window-height="480"
   id="namedview3033"
   showgrid="false"
   fit-margin-top="0"
   fit-margin-left="0"
   fit-margin-right="0"
   fit-margin-bottom="0"
   inkscape:zoom="2.0282349"
   inkscape:cx="445.24399"
   inkscape:cy="-164.63369"
   inkscape:window-x="0"
   inkscape:window-y="27"
   inkscape:window-maximized="0"
   inkscape:current-layer="Layer_1" />
<g
   id="g2995"
   transform="translate(-5.022,-3.0260013)">
	<g
   id="g2997">
		<circle
   cx="159.27699"
   cy="25.295"
   r="2.6470001"
   id="circle2999"
   sodipodi:cx="159.27699"
   sodipodi:cy="25.295"
   sodipodi:rx="2.6470001"
   sodipodi:ry="2.6470001"
   style="fill:#6d8d24"
   d="m 161.92399,25.295 c 0,1.461898 -1.1851,2.647 -2.647,2.647 -1.46189,0 -2.647,-1.185102 -2.647,-2.647 0,-1.461898 1.18511,-2.647 2.647,-2.647 1.4619,0 2.647,1.185102 2.647,2.647 z" />
		<path
   d="M 67.788,35.825 H 79.39 c 0.215,0 0.387,-0.173 0.387,-0.386 v -4.578 c 0,-0.213 -0.172,-0.395 -0.387,-0.395 H 67.788 c -3.162,0 -5.735,2.421 -5.735,5.4 v 15.855 c 0,2.976 2.573,5.523 5.735,5.523 h 11.596 c 0.217,0 0.393,-0.177 0.393,-0.394 v -4.663 c 0,-0.219 -0.176,-0.394 -0.393,-0.394 H 67.788 c -0.207,0 -0.382,0.042 -0.382,-0.206 V 36.051 c 0,-0.215 0.175,-0.226 0.382,-0.226 z"
   id="path3001"
   inkscape:connector-curvature="0"
   style="fill:#6d8d24" />
		<path
   d="m 156.633,30.465 -0.003,26.388 c 0,0.217 0.176,0.394 0.393,0.394 h 4.649 c 0.22,0 0.396,-0.177 0.396,-0.394 V 30.465 h -5.435 z"
   id="path3003"
   inkscape:connector-curvature="0"
   style="fill:#6d8d24" />
		<path
   d="m 186.662,30.363 h -5.141 -0.119 V 52.51 h -2.588 V 30.363 h -12.697 l 0.014,26.487 c 0,0.215 0.167,0.394 0.371,0.394 h 4.382 c 0.204,0 0.37,-0.179 0.37,-0.394 l -0.008,-21.387 h 2.771 v 21.782 h 12.631 0.014 V 35.464 h 2.754 l 0.008,21.387 c 0,0.215 0.163,0.394 0.364,0.394 h 4.302 c 0.197,0 0.359,-0.179 0.359,-0.394 v -26.64 l -7.787,0.152 z"
   id="path3005"
   inkscape:connector-curvature="0"
   style="fill:#6d8d24" />
		<path
   d="m 128.164,30.474 h -4.684 c -0.221,0 -0.396,0.177 -0.396,0.394 l -0.004,21.6 h -2.688 V 30.465 h -13.219 v 26.388 c 0,0.217 0.178,0.394 0.392,0.394 h 4.562 c 0.212,0 0.383,-0.177 0.383,-0.394 V 35.456 h 2.885 v 21.79 h 13.166 V 32.912 30.867 c -0.001,-0.217 -0.177,-0.393 -0.397,-0.393 z"
   id="path3007"
   inkscape:connector-curvature="0"
   style="fill:#6d8d24" />
		<path
   d="M 98.267,30.465 H 87.951 l -5.929,26.417 c -0.026,0.205 0.1,0.362 0.306,0.362 h 4.639 c 0.205,0 0.4,-0.157 0.467,-0.362 l 0.99,-4.481 h 9.371 l 1.008,4.494 c 0.059,0.199 0.258,0.359 0.461,0.359 h 4.641 c 0.203,0 0.33,-0.16 0.305,-0.359 l -5.943,-26.43 z m -8.821,17.21 2.61,-12.213 h 2.105 l 2.608,12.213 h -7.323 z"
   id="path3009"
   inkscape:connector-curvature="0"
   style="fill:#6d8d24" />
		<path
   d="m 147.874,30.465 h -10.319 l -5.924,26.417 c -0.029,0.205 0.098,0.362 0.305,0.362 h 4.637 c 0.205,0 0.402,-0.157 0.465,-0.362 l 0.992,-4.481 h 9.373 l 1.006,4.494 c 0.061,0.199 0.26,0.359 0.463,0.359 h 4.641 c 0.202,0 0.33,-0.16 0.304,-0.359 l -5.943,-26.43 z m -8.823,17.21 2.612,-12.213 h 2.105 l 2.607,12.213 h -7.324 z"
   id="path3011"
   inkscape:connector-curvature="0"
   style="fill:#6d8d24" />
		<path
   d="M 213.365,30.465 H 203.05 l -5.929,26.417 c -0.024,0.205 0.104,0.362 0.308,0.362 h 4.637 c 0.204,0 0.403,-0.157 0.466,-0.362 l 0.99,-4.481 h 9.372 l 1.005,4.494 c 0.063,0.199 0.26,0.359 0.466,0.359 h 4.639 c 0.204,0 0.33,-0.16 0.306,-0.359 l -5.945,-26.43 z m -8.821,17.21 2.61,-12.213 h 2.108 l 2.607,12.213 h -7.325 z"
   id="path3013"
   inkscape:connector-curvature="0"
   style="fill:#6d8d24" />
	</g>
	<g
   enable-background="new    "
   id="g3015">
		<path
   d="m 70.51,74.606 c -1.126,0.245 -2.142,0.367 -3.044,0.367 -0.904,0 -1.627,-0.111 -2.168,-0.335 -0.543,-0.223 -0.968,-0.579 -1.275,-1.068 -0.309,-0.488 -0.521,-1.062 -0.639,-1.721 -0.116,-0.659 -0.175,-1.488 -0.175,-2.487 0,-2.094 0.295,-3.552 0.885,-4.376 0.59,-0.823 1.677,-1.235 3.26,-1.235 0.914,0 1.972,0.144 3.173,0.431 l -0.064,1.754 c -1.052,-0.16 -1.926,-0.239 -2.622,-0.239 -0.696,0 -1.192,0.093 -1.49,0.278 -0.298,0.187 -0.519,0.54 -0.661,1.061 -0.145,0.521 -0.216,1.408 -0.216,2.662 0,1.254 0.146,2.123 0.438,2.606 0.292,0.483 0.877,0.725 1.754,0.725 0.877,0 1.809,-0.074 2.797,-0.223 l 0.047,1.8 z"
   id="path3017"
   inkscape:connector-curvature="0"
   style="fill:#6d8d24" />
		<path
   d="m 71.387,74.782 2.438,-10.84 h 4.177 l 2.438,10.84 h -2.199 l -0.43,-1.961 h -3.795 l -0.43,1.961 h -2.199 z m 4.145,-9.022 -1.101,5.148 h 2.966 L 76.296,65.76 h -0.764 z"
   id="path3019"
   inkscape:connector-curvature="0"
   style="fill:#6d8d24" />
		<path
   d="m 84.091,71.147 v 3.635 h -2.199 v -10.84 h 4.209 c 2.55,0 3.825,1.19 3.825,3.571 0,1.413 -0.532,2.454 -1.595,3.124 l 1.547,4.145 h -2.407 l -1.259,-3.635 h -2.121 z m 3.205,-2.359 c 0.254,-0.318 0.383,-0.738 0.383,-1.259 0,-0.521 -0.137,-0.936 -0.407,-1.243 -0.271,-0.309 -0.661,-0.463 -1.171,-0.463 h -2.01 v 3.443 h 2.041 c 0.521,10e-4 0.909,-0.159 1.164,-0.478 z"
   id="path3021"
   inkscape:connector-curvature="0"
   style="fill:#6d8d24" />
		<path
   d="m 91.775,74.782 v -10.84 h 2.2 v 10.84 h -2.2 z"
   id="path3023"
   inkscape:connector-curvature="0"
   style="fill:#6d8d24" />
		<path
   d="m 96.333,63.942 h 4.256 c 1.127,0 1.972,0.227 2.535,0.678 0.563,0.452 0.846,1.183 0.846,2.191 0,0.606 -0.092,1.087 -0.271,1.443 -0.182,0.355 -0.489,0.672 -0.925,0.948 0.478,0.202 0.831,0.494 1.06,0.877 0.229,0.382 0.344,0.914 0.344,1.594 0,1.052 -0.309,1.833 -0.926,2.343 -0.615,0.511 -1.482,0.766 -2.598,0.766 h -4.32 v -10.84 z m 4.145,1.881 h -1.944 v 2.583 h 1.961 c 0.829,0 1.243,-0.431 1.243,-1.291 0,-0.861 -0.42,-1.292 -1.26,-1.292 z m 0.064,4.432 h -2.009 v 2.646 h 2.009 c 0.479,0 0.831,-0.096 1.061,-0.287 0.228,-0.191 0.342,-0.542 0.342,-1.052 0,-0.871 -0.468,-1.307 -1.403,-1.307 z"
   id="path3025"
   inkscape:connector-curvature="0"
   style="fill:#6d8d24" />
		<path
   d="m 105.005,74.782 2.439,-10.84 h 4.176 l 2.439,10.84 h -2.199 l -0.431,-1.961 h -3.794 l -0.431,1.961 h -2.199 z m 4.145,-9.022 -1.1,5.148 h 2.965 l -1.1,-5.148 h -0.765 z"
   id="path3027"
   inkscape:connector-curvature="0"
   style="fill:#6d8d24" />
		<path
   d="m 119.034,74.782 h -2.2 v -4.384 l -3.348,-6.456 h 2.439 l 1.992,4.32 1.993,-4.32 h 2.438 l -3.315,6.456 v 4.384 z"
   id="path3029"
   inkscape:connector-curvature="0"
   style="fill:#6d8d24" />
	</g>
	<path
   d="M 46.593,28.2 49.691,25.021 27.546,3.026 5.022,25.277 l 3.11,3.164 9.762,-9.603 6.414,6.414 -9.495,9.499 9.34,9.338 -9.98,9.529 3.065,3.212 10.052,-9.603 0.339,0.17 9.41,9.855 3.214,-3.07 -9.483,-9.922 9.508,-9.508 -9.497,-9.498 6.301,-6.301 9.511,9.247 z m -12.629,6.517 -6.439,6.146 -6.131,-6.418 6.054,-6.052 0.099,0.097 0.096,-0.097 6.321,6.324 z m -6.322,-12.605 -0.096,-0.093 -0.099,0.093 -6.36,-6.357 6.287,-6.24 6.523,6.342 -6.255,6.255 z"
   id="path3031"
   inkscape:connector-curvature="0"
   style="fill:#6d8d24" />
</g>
</svg>