<?xml version="1.0" encoding="UTF-8" standalone="no"?>
<!-- Generator: Adobe Illustrator 15.0.0, SVG Export Plug-In . SVG Version: 6.00 Build 0)  -->

<svg
   xmlns:dc="http://purl.org/dc/elements/1.1/"
   xmlns:cc="http://creativecommons.org/ns#"
   xmlns:rdf="http://www.w3.org/1999/02/22-rdf-syntax-ns#"
   xmlns:svg="http://www.w3.org/2000/svg"
   xmlns="http://www.w3.org/2000/svg"
   xmlns:sodipodi="http://sodipodi.sourceforge.net/DTD/sodipodi-0.dtd"
   xmlns:inkscape="http://www.inkscape.org/namespaces/inkscape"
   version="1.1"
   id="Layer_1"
   x="0px"
   y="0px"
   width="229.74818"
   height="59.979"
   viewBox="0 0 229.74818 59.979"
   enable-background="new 0 0 245 74"
   xml:space="preserve"
   inkscape:version="0.48.5 r10040"
   sodipodi:docname="canaima_blanco_logo.svg"><metadata
     id="metadata3044"><rdf:RDF><cc:Work
         rdf:about=""><dc:format>image/svg+xml</dc:format><dc:type
           rdf:resource="http://purl.org/dc/dcmitype/StillImage" /><dc:title /></cc:Work></rdf:RDF></metadata><defs
     id="defs3042" /><sodipodi:namedview
     pagecolor="#ffffff"
     bordercolor="#666666"
     borderopacity="1"
     objecttolerance="10"
     gridtolerance="10"
     guidetolerance="10"
     inkscape:pageopacity="0"
     inkscape:pageshadow="2"
     inkscape:window-width="1920"
     inkscape:window-height="994"
     id="namedview3040"
     showgrid="false"
     fit-margin-top="0"
     fit-margin-left="0"
     fit-margin-right="0"
     fit-margin-bottom="0"
     inkscape:zoom="1.8571429"
     inkscape:cx="114.5"
     inkscape:cy="29.182308"
     inkscape:window-x="0"
     inkscape:window-y="41"
     inkscape:window-maximized="1"
     inkscape:current-layer="g3002" /><g
     id="g3002"
     transform="translate(-8,-7.011)"><g
       id="g3004"><path
         d="m 169.921,13.235 c 0,-1.58 1.279,-2.86 2.865,-2.86 1.583,0 2.864,1.28 2.864,2.86 0,1.584 -1.281,2.862 -2.864,2.862 -1.586,10e-4 -2.865,-1.278 -2.865,-2.862 z"
         id="path3006"
         inkscape:connector-curvature="0"
         style="fill:#6d8d24" /><path
         d="m 73.788,24.63 h 12.554 c 0.234,0 0.421,-0.185 0.421,-0.417 v -4.954 c 0,-0.227 -0.187,-0.423 -0.421,-0.423 H 73.788 c -3.421,0 -6.204,2.619 -6.204,5.838 v 17.159 c 0,3.221 2.783,5.979 6.204,5.979 h 12.546 c 0.234,0 0.429,-0.194 0.429,-0.425 v -5.048 c 0,-0.236 -0.194,-0.425 -0.429,-0.425 H 73.788 c -0.225,0 -0.411,0.043 -0.411,-0.223 V 24.877 c 0,-0.234 0.186,-0.247 0.411,-0.247 z"
         id="path3008"
         inkscape:connector-curvature="0"
         style="fill:#6d8d24" /><path
         d="m 169.924,18.829 -0.003,28.558 c 0,0.23 0.19,0.425 0.428,0.425 h 5.03 c 0.238,0 0.427,-0.194 0.427,-0.425 V 18.829 h -5.882 z"
         id="path3010"
         inkscape:connector-curvature="0"
         style="fill:#6d8d24" /><path
         d="m 202.416,18.719 h -5.562 -0.129 v 23.968 h -2.796 V 18.719 H 180.19 l 0.014,28.661 c 0,0.236 0.181,0.426 0.4,0.426 h 4.738 c 0.224,0 0.402,-0.189 0.402,-0.426 l -0.007,-23.14 h 2.997 v 23.571 h 13.669 0.013 V 24.24 h 2.984 l 0.007,23.14 c 0,0.236 0.179,0.426 0.394,0.426 h 4.652 c 0.217,0 0.392,-0.189 0.392,-0.426 V 18.557 l -8.429,0.162 z"
         id="path3012"
         inkscape:connector-curvature="0"
         style="fill:#6d8d24" /><path
         d="m 139.122,18.84 h -5.072 c -0.238,0 -0.427,0.192 -0.427,0.426 l -0.004,23.374 h -2.912 V 18.829 h -14.303 v 28.558 c 0,0.23 0.192,0.425 0.427,0.425 h 4.934 c 0.231,0 0.415,-0.194 0.415,-0.425 V 24.231 h 3.122 v 23.58 h 14.247 V 21.478 19.266 c 0,-0.234 -0.193,-0.426 -0.427,-0.426 z"
         id="path3014"
         inkscape:connector-curvature="0"
         style="fill:#6d8d24" /><path
         d="m 106.767,18.829 h -11.16 l -6.415,28.589 c -0.031,0.217 0.108,0.39 0.325,0.39 h 5.021 c 0.221,0 0.434,-0.173 0.504,-0.39 l 1.073,-4.851 h 10.141 l 1.09,4.863 c 0.064,0.217 0.281,0.39 0.502,0.39 h 5.021 c 0.217,0 0.359,-0.173 0.326,-0.39 l -6.428,-28.601 z m -9.546,18.624 2.825,-13.216 h 2.278 l 2.825,13.216 h -7.928 z"
         id="path3016"
         inkscape:connector-curvature="0"
         style="fill:#6d8d24" /><path
         d="m 160.447,18.829 h -11.165 l -6.412,28.589 c -0.033,0.217 0.107,0.39 0.327,0.39 h 5.021 c 0.219,0 0.434,-0.173 0.5,-0.39 l 1.074,-4.851 h 10.145 l 1.085,4.863 c 0.066,0.217 0.283,0.39 0.502,0.39 h 5.021 c 0.222,0 0.357,-0.173 0.328,-0.39 l -6.426,-28.601 z m -9.548,18.624 2.823,-13.216 h 2.28 l 2.822,13.216 h -7.925 z"
         id="path3018"
         inkscape:connector-curvature="0"
         style="fill:#6d8d24" /><path
         d="M 231.313,18.829 H 220.15 l -6.414,28.589 c -0.027,0.217 0.112,0.39 0.331,0.39 h 5.02 c 0.222,0 0.434,-0.173 0.504,-0.39 l 1.073,-4.851 h 10.138 l 1.089,4.863 c 0.066,0.217 0.281,0.39 0.504,0.39 h 5.02 c 0.221,0 0.356,-0.173 0.33,-0.39 l -6.432,-28.601 z m -9.543,18.624 2.825,-13.216 h 2.28 l 2.825,13.216 h -7.93 z"
         id="path3020"
         inkscape:connector-curvature="0"
         style="fill:#6d8d24" /></g><path
       d="M 30.5,7.011 C 18.093,7.011 8,17.104 8,29.511 c 0,12.406 10.093,22.5 22.5,22.5 12.406,0 22.5,-10.094 22.5,-22.5 0,-12.407 -10.094,-22.5 -22.5,-22.5 z m 16.739,18.832 h -4.435 v -8.242 c 2.176,2.247 3.743,5.081 4.435,8.242 z m -28.83,-8.471 v 8.471 h -4.646 c 0.716,-3.267 2.357,-6.191 4.646,-8.471 z m -5.034,12.471 h 7.034 c 1.104,0 2,-0.896 2,-2 V 14.404 c 0.801,-0.431 1.646,-0.787 2.516,-1.088 v 18.133 h -5.728 c -1.104,0 -2,0.896 -2,2 v 6.853 C 14.866,37.434 13.451,33.801 13.375,29.843 z m 7.795,14.03 c 0.013,-0.09 0.027,-0.179 0.027,-0.271 v -8.153 h 5.728 c 1.104,0 2,-0.896 2,-2 V 12.447 c 0.52,-0.048 1.044,-0.08 1.575,-0.08 0.604,0 1.201,0.033 1.789,0.095 v 20.987 c 0,1.104 0.896,2 2,2 h 5.728 v 8.153 c 0,0.051 0.011,0.098 0.015,0.148 -2.728,1.831 -6.006,2.902 -9.531,2.902 -3.442,10e-4 -6.644,-1.027 -9.331,-2.779 z M 44.017,40.019 V 33.45 c 0,-1.104 -0.896,-2 -2,-2 H 36.289 V 13.396 c 0.872,0.313 1.716,0.685 2.516,1.129 v 13.318 c 0,1.104 0.896,2 2,2 h 6.823 c -0.074,3.831 -1.411,7.351 -3.611,10.176 z"
       id="path3038"
       inkscape:connector-curvature="0"
       style="fill:#6d8d24" /><g
       transform="translate(50.07692,2.3956156)"
       style="font-size:18px;font-style:normal;font-variant:normal;font-weight:bold;font-stretch:normal;line-height:129.99999523%;letter-spacing:0px;word-spacing:0px;fill:#ffffff;fill-opacity:1;stroke:none;font-family:Titillium Web;-inkscape-font-specification:Titillium Web Bold"
       id="flowRoot3126"><path
         d="m 67.26975,60.101269 0,-2.16 3.564,0 0,6.354 c -1.716008,0.276 -3.108007,0.413999 -4.176,0.414 -1.908004,-1e-6 -3.222003,-0.51 -3.942,-1.53 -0.708001,-1.019998 -1.062001,-2.639996 -1.062,-4.86 -1e-6,-2.219992 0.371999,-3.82199 1.116,-4.806 0.743997,-0.983988 2.009996,-1.475988 3.798,-1.476 1.115993,1.2e-5 2.321992,0.126012 3.618,0.378 l 0.648,0.126 -0.072,1.926 c -1.440008,-0.15599 -2.622007,-0.23399 -3.546,-0.234 -0.912005,1e-5 -1.554005,0.10801 -1.926,0.324 -0.372004,0.216009 -0.648004,0.618009 -0.828,1.206 -0.168003,0.576008 -0.252003,1.572007 -0.252,2.988 -3e-6,1.404004 0.173996,2.388003 0.522,2.952 0.347996,0.564002 1.067995,0.846002 2.16,0.846 l 1.494,-0.072 0,-2.376 -1.116,0"
         style=""
         id="path3019" /><path
         d="m 73.179656,64.493269 0,-12.24 4.194,0 2.952,10.08 0.18,0 0,-10.08 2.484,0 0,12.24 -4.086,0 -3.06,-10.08 -0.18,0 0,10.08 -2.484,0"
         style=""
         id="path3021" /><path
         d="m 88.036125,60.407269 c -4e-6,1.428002 0.725996,2.142002 2.178,2.142 1.451993,2e-6 2.177992,-0.713998 2.178,-2.142 l 0,-8.154 2.484,0 0,8.1 c -1.1e-5,1.500002 -0.39001,2.604001 -1.17,3.312 -0.768009,0.696 -1.932007,1.043999 -3.492,1.044 -1.560004,-1e-6 -2.730003,-0.348 -3.51,-1.044 -0.768002,-0.707999 -1.152001,-1.811998 -1.152,-3.312 l 0,-8.1 2.484,0 0,8.154"
         style=""
         id="path3023" /><path
         d="m 96.382219,64.349269 5.184001,-12.78 2.124,0.756 -5.184001,12.78 -2.124,-0.756"
         style=""
         id="path3025" /><path
         d="m 112.52456,64.493269 -6.966,0 0,-12.24 2.484,0 0,10.044 4.482,0 0,2.196"
         style=""
         id="path3027" /><path
         d="m 113.85038,64.493269 0,-9 2.412,0 0,9 -2.412,0 m 0,-10.152 0,-2.448 2.412,0 0,2.448 -2.412,0"
         style=""
         id="path3029" /><path
         d="m 120.903,64.493269 -2.412,0 0,-9 2.394,0 0,0.504 c 0.816,-0.479991 1.56599,-0.719991 2.25,-0.72 1.19999,9e-6 2.02799,0.354008 2.484,1.062 0.45599,0.708007 0.68399,1.800006 0.684,3.276 l 0,4.878 -2.412,0 0,-4.806 c -1e-5,-0.767995 -0.09,-1.331994 -0.27,-1.692 -0.18001,-0.371994 -0.54001,-0.557993 -1.08,-0.558 -0.492,7e-6 -0.966,0.08401 -1.422,0.252 l -0.216,0.072 0,6.732"
         style=""
         id="path3031" /><path
         d="m 133.75022,55.493269 2.412,0 0,9 -2.394,0 0,-0.504 c -0.86401,0.48 -1.61401,0.719999 -2.25,0.72 -1.248,-1e-6 -2.088,-0.342 -2.52,-1.026 -0.432,-0.695999 -0.648,-1.853998 -0.648,-3.474 l 0,-4.716 2.412,0 0,4.752 c 0,0.888003 0.072,1.494002 0.216,1.818 0.14399,0.324002 0.49199,0.486002 1.044,0.486 0.52799,2e-6 1.02599,-0.084 1.494,-0.252 l 0.234,-0.072 0,-6.732"
         style=""
         id="path3033" /><path
         d="m 137.52544,55.493269 2.574,0 1.44,2.79 1.458,-2.79 2.574,0 -2.556,4.41 2.556,4.59 -2.574,0 -1.458,-2.754 -1.44,2.754 -2.574,0 2.466,-4.518 -2.466,-4.482"
         style=""
         id="path3035" /></g><path
       style="fill:#ffffff;fill-opacity:1;stroke:#000000;stroke-width:0.09584615;stroke-linecap:butt;stroke-linejoin:round;stroke-miterlimit:4;stroke-opacity:1;stroke-dasharray:none"
       d="M 15.476925,43.466281 C 5.3035822,39.945271 -0.95146667,29.663133 0.70316643,19.180967 2.0528854,10.630444 7.859518,3.9549382 16.183879,1.383805 c 12.77184,-3.9448196 26.072182,4.5218844 28.158906,17.925339 1.637702,10.519284 -5.156462,21.22732 -15.449804,24.34988 -3.527419,1.070068 -10.03762,0.976539 -13.416056,-0.192743 z m 14.673077,-5.368699 2.288461,-1.184316 0,-4.296748 0,-4.296749 -3.192307,0 c -4.952968,0 -4.884615,0.173841 -4.884615,-12.423077 l 0,-10.7307685 -1.884616,0 -1.884615,0 0,10.9307685 c 0,7.783761 -0.18603,11.116799 -0.646154,11.576923 -0.355385,0.355385 -2.051538,0.646154 -3.769231,0.646154 l -3.123077,0 0,4.495145 0,4.495144 2.019231,0.852929 c 1.110577,0.46911 2.382692,0.985433 2.826923,1.147384 0.444231,0.161951 2.867308,0.221797 5.384615,0.132991 3.431631,-0.121061 5.14957,-0.457818 6.865385,-1.34578 l 0,0 z M 10.361541,25.076642 c 0.444231,-0.280287 2.200961,-0.513323 3.903846,-0.517858 l 3.096154,-0.0082 0,-9.153846 c 0,-9.5782372 -0.14232,-10.1006418 -2.310428,-8.4807686 -0.750654,0.5608416 -0.924945,1.8852211 -1.045224,7.9423076 l -0.144348,7.269231 -4.4451816,0.156438 -4.4451813,0.156438 0.3431868,2.266639 c 0.3937225,2.600411 1.4639137,5.435716 2.7863591,7.382023 0.9069781,1.334843 0.9169251,1.31318 1.1838938,-2.578296 0.1833397,-2.672456 0.526904,-4.087028 1.0769232,-4.434062 z m 27.883518,4.437712 c 0.593159,-1.397406 1.246784,-3.570546 1.452498,-4.8292 l 0.374027,-2.288462 -4.066846,0 c -3.46968,0 -4.148694,-0.152935 -4.624252,-1.041524 -0.306574,-0.572838 -0.557407,-3.95662 -0.557407,-7.519516 0,-5.8535096 -0.100404,-6.5317267 -1.041524,-7.0353987 -0.572838,-0.3065736 -1.178607,-0.5574068 -1.346154,-0.5574068 -0.167546,0 -0.30463,4.1192305 -0.30463,9.1538455 l 0,9.153846 3.123077,0 c 1.717692,0 3.413846,0.29077 3.769231,0.646154 0.378108,0.378108 0.646154,2.192429 0.646154,4.373624 0,3.121668 0.121677,3.626486 0.748677,3.106123 0.411772,-0.34174 1.233989,-1.764679 1.827149,-3.162085 l 0,0 z M 10.900002,14.589 c 0,-2.517307 -0.18173,-4.576454 -0.403846,-4.575882 -0.9549914,0.0025 -4.9807689,6.99346 -4.9807689,8.649397 0,0.276875 1.2115385,0.503408 2.6923077,0.503408 l 2.6923072,0 0,-4.576923 z m 28.533201,3.903846 c -0.0096,-1.227329 -2.515549,-6.040916 -3.687652,-7.083455 l -1.153241,-1.025762 0,4.391147 0,4.391147 2.423076,0 c 1.582293,0 2.421252,-0.233551 2.417817,-0.673077 z"
       id="path2996"
       inkscape:connector-curvature="0"
       transform="translate(7.9999981,7.011)" /><path
       style="fill:#ffffff;fill-opacity:1;stroke:#000000;stroke-width:0.09584615;stroke-linecap:butt;stroke-linejoin:round;stroke-miterlimit:4;stroke-opacity:1;stroke-dasharray:none"
       d="M 64.746155,40.361423 C 60.186221,38.81313 59.900001,37.960908 59.900001,25.931927 l 0,-9.979783 1.569871,-1.758495 1.569872,-1.758495 7.884351,-0.17485 7.884352,-0.174851 -0.165761,2.597928 -0.165762,2.597927 -6.596154,0.151188 -6.596153,0.151189 0,8.868042 0,8.868042 6.760271,0 6.760272,0 -0.164118,2.557692 -0.164118,2.557692 -6.461538,0.100258 c -3.553846,0.05514 -6.825,-0.02315 -7.269231,-0.173988 z"
       id="path2998"
       inkscape:connector-curvature="0"
       transform="translate(7.9999981,7.011)" /><path
       style="fill:#ffffff;fill-opacity:1;stroke:#000000;stroke-width:0.09584615;stroke-linecap:butt;stroke-linejoin:round;stroke-miterlimit:4;stroke-opacity:1;stroke-dasharray:none"
       d="m 81.444299,40.569769 c 0.0032,-0.07404 1.418749,-6.434615 3.145643,-14.134615 l 3.139808,-14 5.406814,-0.152758 c 5.241041,-0.148074 5.416168,-0.115056 5.711948,1.076923 1.117378,4.502979 5.743798,25.875888 5.743798,26.534915 0,0.599936 -0.62216,0.81015 -2.39777,0.81015 -2.312086,0 -2.417804,-0.07215 -2.958534,-2.019231 -0.308423,-1.110576 -0.56212,-2.322115 -0.563772,-2.692307 -0.0022,-0.493304 -1.43845,-0.673077 -5.377359,-0.673077 l -5.374357,0 -0.316755,1.480769 c -0.74679,3.491098 -1.14123,3.903846 -3.73068,3.903846 -1.339041,0 -2.431994,-0.06058 -2.428784,-0.134615 z M 96.164276,24.415923 c -1.629604,-7.650303 -1.527684,-7.403846 -3.061801,-7.403846 -1.205512,0 -1.371924,0.374929 -2.463029,5.549229 -0.643592,3.052076 -1.309207,6.080922 -1.479145,6.73077 -0.299058,1.143596 -0.17084,1.181539 3.992677,1.181539 l 4.301657,0 -1.290359,-6.057692 z"
       id="path3000"
       inkscape:connector-curvature="0"
       transform="translate(7.9999981,7.011)" /><path
       style="fill:#ffffff;fill-opacity:1;stroke:#000000;stroke-width:0.09584615;stroke-linecap:butt;stroke-linejoin:round;stroke-miterlimit:4;stroke-opacity:1;stroke-dasharray:none"
       d="m 108.9,26.435154 0,-14.269231 6.73077,0 6.73077,0 0,11.846154 0,11.846153 1.88461,0 1.88462,0 0,-11.846153 0,-11.846154 2.69231,0 2.6923,0 0,14.269231 0,14.26923 -7,0 -7,0 0,-11.846153 0,-11.846154 -1.88461,0 -1.88462,0 0,11.846154 0,11.846153 -2.42307,0 -2.42308,0 0,-14.26923 z"
       id="path3002"
       inkscape:connector-curvature="0"
       transform="translate(7.9999981,7.011)" /><path
       style="fill:#ffffff;fill-opacity:1;stroke:#000000;stroke-width:0.09584615;stroke-linecap:butt;stroke-linejoin:round;stroke-miterlimit:4;stroke-opacity:1;stroke-dasharray:none"
       d="m 135.28461,40.335488 c 0,-0.235345 1.38257,-6.669775 3.07237,-14.298733 l 3.07237,-13.870832 5.42652,0 5.42653,0 3.08507,13.865385 c 1.6968,7.625961 3.08191,14.060391 3.07803,14.298733 -0.004,0.238342 -1.14759,0.359496 -2.54159,0.269231 -2.52013,-0.163184 -2.5379,-0.177912 -3.12191,-2.587195 l -0.58736,-2.423077 -5.3331,0 -5.33311,0 -0.58735,2.423077 c -0.58401,2.409283 -0.60178,2.424011 -3.12191,2.587195 -1.39401,0.09027 -2.53456,-0.02844 -2.53456,-0.263784 z M 150.9,29.929453 c 0,-0.451853 -1.34467,-6.911201 -2.43685,-11.705838 -0.3858,-1.693679 -2.81742,-1.693679 -3.20323,0 -1.09218,4.794637 -2.43684,11.253985 -2.43684,11.705838 0,0.318205 1.67692,0.544162 4.03846,0.544162 2.36154,0 4.03846,-0.225957 4.03846,-0.544162 z"
       id="path3004"
       inkscape:connector-curvature="0"
       transform="translate(7.9999981,7.011)" /><path
       style="fill:#ffffff;fill-opacity:1;stroke:#000000;stroke-width:0.09584615;stroke-linecap:butt;stroke-linejoin:round;stroke-miterlimit:4;stroke-opacity:1;stroke-dasharray:none"
       d="m 162.20769,26.464657 0,-14.298734 2.70125,0 2.70125,0 -0.14356,14.134615 -0.14355,14.134615 -2.5577,0.164119 -2.55769,0.164118 0,-14.298733 z"
       id="path3007"
       inkscape:connector-curvature="0"
       transform="translate(7.9999981,7.011)" /><path
       style="fill:#ffffff;fill-opacity:1;stroke:#000000;stroke-width:0.09584615;stroke-linecap:butt;stroke-linejoin:round;stroke-miterlimit:4;stroke-opacity:1;stroke-dasharray:none"
       d="m 163.09884,7.9504476 c -1.15826,-1.2798601 -1.12831,-2.4029851 0.0936,-3.5087616 1.88504,-1.7059398 3.86144,-0.7386282 3.86144,1.8899077 0,0.9207891 -0.39734,1.7013982 -1.04152,2.0461538 -1.44166,0.7715555 -1.88774,0.7061324 -2.91348,-0.4272999 z"
       id="path3009"
       inkscape:connector-curvature="0"
       transform="translate(7.9999981,7.011)" /><path
       style="fill:#ffffff;fill-opacity:1;stroke:#000000;stroke-width:0.09584615;stroke-linecap:butt;stroke-linejoin:round;stroke-miterlimit:4;stroke-opacity:1;stroke-dasharray:none"
       d="m 172.43846,26.435154 0,-14.269231 6.73077,0 6.73077,0 0,11.846154 0,11.846153 1.61538,0 1.61539,0 0,-11.846153 0,-11.846154 3.09615,-0.0038 c 1.70289,-0.0021 4.73173,-0.158298 6.73077,-0.347095 l 3.63462,-0.343266 0,14.616325 0,14.616325 -2.42308,0 -2.42308,0 0,-11.846153 0,-11.846154 -1.88461,0 -1.88462,0 0,11.846154 0,11.846153 -6.46154,0 -6.46154,0 0,-11.846153 0,-11.846154 -1.88461,0 -1.88462,0 0,11.846154 0,11.846153 -2.42307,0 -2.42308,0 0,-14.26923 z"
       id="path3011"
       inkscape:connector-curvature="0"
       transform="translate(7.9999981,7.011)" /><path
       style="fill:#ffffff;fill-opacity:1;stroke:#000000;stroke-width:0.09584615;stroke-linecap:butt;stroke-linejoin:round;stroke-miterlimit:4;stroke-opacity:1;stroke-dasharray:none"
       d="m 206.36154,39.685753 c 0,-0.560246 1.33269,-6.886478 2.96153,-14.058292 1.62885,-7.171813 2.96154,-13.134583 2.96154,-13.250599 0,-0.116016 2.40675,-0.210939 5.34833,-0.210939 4.62731,0 5.38633,0.127035 5.63017,0.942308 0.155,0.518269 1.50217,6.394231 2.9937,13.057692 1.49153,6.663461 2.8395,12.660577 2.99548,13.326923 0.26222,1.120164 0.0992,1.211538 -2.16127,1.211538 -2.60089,0 -2.9935,-0.409704 -3.74094,-3.903846 l -0.31675,-1.480769 -5.37436,0 c -3.93891,0 -5.37516,0.179773 -5.37736,0.673077 -0.002,0.370192 -0.25535,1.581731 -0.56377,2.692307 -0.54073,1.947077 -0.64645,2.019231 -2.95854,2.019231 -1.99305,0 -2.39776,-0.171932 -2.39776,-1.018631 z m 15.42063,-10.154445 c -0.14703,-0.51827 -0.80958,-3.547116 -1.47233,-6.73077 -1.15858,-5.56551 -1.25891,-5.788461 -2.60478,-5.788461 -1.35818,0 -1.44136,0.200071 -2.79808,6.730769 l -1.39828,6.730769 4.2704,0 c 3.8099,0 4.24157,-0.101611 4.00307,-0.942307 l 0,0 z"
       id="path3013"
       inkscape:connector-curvature="0"
       transform="translate(7.9999981,7.011)" /></g></svg>