<?xml version="1.0" encoding="UTF-8" standalone="no"?>
<!-- Generator: Adobe Illustrator 15.0.0, SVG Export Plug-In . SVG Version: 6.00 Build 0)  -->

<svg
   xmlns:dc="http://purl.org/dc/elements/1.1/"
   xmlns:cc="http://creativecommons.org/ns#"
   xmlns:rdf="http://www.w3.org/1999/02/22-rdf-syntax-ns#"
   xmlns:svg="http://www.w3.org/2000/svg"
   xmlns="http://www.w3.org/2000/svg"
   xmlns:sodipodi="http://sodipodi.sourceforge.net/DTD/sodipodi-0.dtd"
   xmlns:inkscape="http://www.inkscape.org/namespaces/inkscape"
   version="1.1"
   id="Layer_1"
   x="0px"
   y="0px"
   width="217.61819"
   height="65.356003"
   viewBox="0 0 217.61819 65.356003"
   enable-background="new 0 0 229.5 78"
   xml:space="preserve"
   inkscape:version="0.48.3.1 r9886"
   sodipodi:docname="canaima_educativo.svg"><metadata
   id="metadata3190"><rdf:RDF><cc:Work
       rdf:about=""><dc:format>image/svg+xml</dc:format><dc:type
         rdf:resource="http://purl.org/dc/dcmitype/StillImage" /></cc:Work></rdf:RDF></metadata><defs
   id="defs3188" /><sodipodi:namedview
   pagecolor="#ffffff"
   bordercolor="#666666"
   borderopacity="1"
   objecttolerance="10"
   gridtolerance="10"
   guidetolerance="10"
   inkscape:pageopacity="0"
   inkscape:pageshadow="2"
   inkscape:window-width="640"
   inkscape:window-height="480"
   id="namedview3186"
   showgrid="false"
   fit-margin-top="0"
   fit-margin-left="0"
   fit-margin-right="0"
   fit-margin-bottom="0"
   inkscape:zoom="1.9825708"
   inkscape:cx="108.80827"
   inkscape:cy="32.678"
   inkscape:window-x="0"
   inkscape:window-y="27"
   inkscape:window-maximized="0"
   inkscape:current-layer="Layer_1" />
<g
   id="g3142"
   transform="translate(-5.9417265,-6.322)">
	<g
   id="g3144">
		<g
   id="g3146">
			<circle
   cx="163.52499"
   cy="21.997"
   r="2.6470001"
   id="circle3148"
   sodipodi:cx="163.52499"
   sodipodi:cy="21.997"
   sodipodi:rx="2.6470001"
   sodipodi:ry="2.6470001"
   style="fill:#6d8d24"
   d="m 166.17199,21.997 c 0,1.461898 -1.1851,2.647 -2.647,2.647 -1.46189,0 -2.647,-1.185102 -2.647,-2.647 0,-1.461898 1.18511,-2.647 2.647,-2.647 1.4619,0 2.647,1.185102 2.647,2.647 z" />
			<path
   d="m 72.036,32.526 h 11.602 c 0.215,0 0.387,-0.173 0.387,-0.386 v -4.578 c 0,-0.213 -0.172,-0.39 -0.387,-0.39 H 72.036 c -3.162,0 -5.734,2.42 -5.734,5.396 v 15.857 c 0,2.977 2.572,5.523 5.734,5.523 h 11.596 c 0.217,0 0.393,-0.176 0.393,-0.395 v -4.664 c 0,-0.217 -0.176,-0.393 -0.393,-0.393 H 72.036 c -0.207,0 -0.38,0.041 -0.38,-0.207 V 32.754 c 0,-0.215 0.173,-0.228 0.38,-0.228 z"
   id="path3150"
   inkscape:connector-curvature="0"
   style="fill:#6d8d24" />
			<path
   d="m 160.881,27.168 -0.003,26.387 c 0,0.217 0.178,0.395 0.395,0.395 h 4.649 c 0.218,0 0.394,-0.178 0.394,-0.395 V 27.168 h -5.435 z"
   id="path3152"
   inkscape:connector-curvature="0"
   style="fill:#6d8d24" />
			<path
   d="m 190.911,27.064 h -5.143 -0.119 v 22.148 h -2.588 V 27.064 h -12.695 l 0.012,26.488 c 0,0.217 0.167,0.395 0.371,0.395 h 4.382 c 0.204,0 0.37,-0.178 0.37,-0.395 l -0.006,-21.388 h 2.77 v 21.784 h 12.631 0.016 V 32.165 h 2.754 l 0.006,21.388 c 0,0.217 0.165,0.395 0.364,0.395 h 4.302 c 0.197,0 0.359,-0.178 0.359,-0.395 V 26.912 l -7.786,0.152 z"
   id="path3154"
   inkscape:connector-curvature="0"
   style="fill:#6d8d24" />
			<path
   d="m 132.411,27.175 h -4.684 c -0.219,0 -0.396,0.178 -0.396,0.394 l -0.004,21.6 h -2.688 v -22 H 111.42 v 26.387 c 0,0.217 0.178,0.395 0.392,0.395 h 4.562 c 0.212,0 0.385,-0.178 0.385,-0.395 V 32.157 h 2.883 v 21.792 h 13.166 V 29.615 27.568 c 0,-0.215 -0.174,-0.393 -0.397,-0.393 z"
   id="path3156"
   inkscape:connector-curvature="0"
   style="fill:#6d8d24" />
			<path
   d="M 102.517,27.168 H 92.198 l -5.929,26.42 c -0.026,0.201 0.102,0.359 0.306,0.359 h 4.639 c 0.205,0 0.402,-0.158 0.467,-0.359 l 0.99,-4.484 h 9.371 l 1.008,4.492 c 0.059,0.201 0.258,0.361 0.461,0.361 h 4.641 c 0.203,0 0.332,-0.16 0.305,-0.361 l -5.94,-26.428 z m -8.824,17.21 2.61,-12.215 h 2.105 l 2.608,12.215 h -7.323 z"
   id="path3158"
   inkscape:connector-curvature="0"
   style="fill:#6d8d24" />
			<path
   d="m 152.121,27.168 h -10.319 l -5.924,26.42 c -0.027,0.201 0.098,0.359 0.305,0.359 h 4.639 c 0.205,0 0.4,-0.158 0.463,-0.359 l 0.993,-4.484 h 9.372 l 1.006,4.492 c 0.061,0.201 0.26,0.361 0.463,0.361 h 4.641 c 0.202,0 0.33,-0.16 0.304,-0.361 l -5.943,-26.428 z m -8.822,17.21 2.612,-12.215 h 2.105 l 2.607,12.215 h -7.324 z"
   id="path3160"
   inkscape:connector-curvature="0"
   style="fill:#6d8d24" />
			<path
   d="m 217.612,27.168 h -10.315 l -5.929,26.42 c -0.024,0.201 0.104,0.359 0.308,0.359 h 4.637 c 0.204,0 0.405,-0.158 0.466,-0.359 l 0.99,-4.484 h 9.374 l 1.003,4.492 c 0.065,0.201 0.262,0.361 0.466,0.361 h 4.64 c 0.203,0 0.329,-0.16 0.305,-0.361 l -5.945,-26.428 z m -8.82,17.21 2.612,-12.215 h 2.106 l 2.609,12.215 h -7.327 z"
   id="path3162"
   inkscape:connector-curvature="0"
   style="fill:#6d8d24" />
		</g>
		<g
   enable-background="new    "
   id="g3164">
			<path
   d="m 67.888,71.486 v -10.84 h 7.014 v 1.912 h -4.814 v 2.535 h 3.858 v 1.881 h -3.858 v 2.598 h 4.814 v 1.914 h -7.014 z"
   id="path3166"
   inkscape:connector-curvature="0"
   style="fill:#6d8d24" />
			<path
   d="m 80.37,71.486 h -3.65 v -10.84 h 3.65 c 0.936,0 1.705,0.098 2.312,0.295 0.605,0.197 1.075,0.521 1.411,0.973 0.334,0.451 0.565,0.982 0.693,1.594 0.127,0.611 0.191,1.406 0.191,2.383 0,0.979 -0.059,1.789 -0.176,2.432 -0.117,0.643 -0.338,1.217 -0.662,1.721 -0.324,0.506 -0.794,0.871 -1.41,1.1 -0.617,0.227 -1.402,0.342 -2.359,0.342 z m 2.312,-4.304 c 0.021,-0.34 0.032,-0.811 0.032,-1.41 0,-0.599 -0.021,-1.082 -0.064,-1.443 C 82.607,63.968 82.507,63.64 82.347,63.341 82.188,63.044 81.951,62.839 81.638,62.728 81.324,62.617 80.902,62.56 80.37,62.56 h -1.451 v 7.014 h 1.451 c 0.797,0 1.376,-0.201 1.737,-0.605 0.308,-0.33 0.499,-0.926 0.575,-1.787 z"
   id="path3168"
   inkscape:connector-curvature="0"
   style="fill:#6d8d24" />
			<path
   d="m 88.993,67.867 c 0,1.266 0.644,1.896 1.93,1.896 1.285,0 1.929,-0.631 1.929,-1.896 v -7.221 h 2.2 v 7.174 c 0,1.328 -0.344,2.303 -1.029,2.924 -0.686,0.623 -1.719,0.934 -3.1,0.934 -1.382,0 -2.416,-0.311 -3.101,-0.934 -0.686,-0.621 -1.028,-1.596 -1.028,-2.924 v -7.174 h 2.199 v 7.221 z"
   id="path3170"
   inkscape:connector-curvature="0"
   style="fill:#6d8d24" />
			<path
   d="m 104.185,71.311 c -1.127,0.244 -2.141,0.367 -3.045,0.367 -0.902,0 -1.625,-0.111 -2.168,-0.336 -0.541,-0.223 -0.967,-0.578 -1.275,-1.066 -0.308,-0.49 -0.52,-1.062 -0.637,-1.723 -0.117,-0.658 -0.176,-1.488 -0.176,-2.486 0,-2.094 0.295,-3.553 0.885,-4.375 0.59,-0.824 1.676,-1.236 3.26,-1.236 0.914,0 1.971,0.143 3.172,0.43 l -0.062,1.754 c -1.053,-0.158 -1.928,-0.238 -2.623,-0.238 -0.696,0 -1.193,0.092 -1.49,0.279 -0.298,0.186 -0.518,0.539 -0.662,1.059 -0.143,0.521 -0.215,1.408 -0.215,2.662 0,1.254 0.146,2.123 0.438,2.607 0.292,0.482 0.877,0.725 1.753,0.725 0.877,0 1.81,-0.074 2.799,-0.223 l 0.046,1.8 z"
   id="path3172"
   inkscape:connector-curvature="0"
   style="fill:#6d8d24" />
			<path
   d="m 105.062,71.486 2.439,-10.84 h 4.176 l 2.439,10.84 h -2.2 l -0.431,-1.961 h -3.793 l -0.432,1.961 h -2.198 z m 4.144,-9.023 -1.1,5.15 h 2.965 l -1.1,-5.15 h -0.765 z"
   id="path3174"
   inkscape:connector-curvature="0"
   style="fill:#6d8d24" />
			<path
   d="m 114.005,62.592 v -1.945 h 7.971 v 1.945 h -2.87 v 8.895 h -2.2 v -8.895 h -2.901 z"
   id="path3176"
   inkscape:connector-curvature="0"
   style="fill:#6d8d24" />
			<path
   d="m 123.361,71.486 v -10.84 h 2.2 v 10.84 h -2.2 z"
   id="path3178"
   inkscape:connector-curvature="0"
   style="fill:#6d8d24" />
			<path
   d="m 133.786,60.646 h 2.312 l -2.52,10.84 h -4.064 l -2.52,-10.84 h 2.312 l 1.881,8.926 h 0.717 l 1.882,-8.926 z"
   id="path3180"
   inkscape:connector-curvature="0"
   style="fill:#6d8d24" />
			<path
   d="m 144.873,70.33 c -0.675,0.898 -1.836,1.348 -3.483,1.348 -1.646,0 -2.809,-0.449 -3.482,-1.348 -0.676,-0.898 -1.013,-2.303 -1.013,-4.217 0,-1.912 0.337,-3.334 1.013,-4.264 0.674,-0.93 1.836,-1.395 3.482,-1.395 1.647,0 2.809,0.465 3.483,1.395 0.674,0.93 1.013,2.352 1.013,4.264 0,1.914 -0.338,3.319 -1.013,4.217 z m -5.245,-1.402 c 0.314,0.559 0.901,0.836 1.762,0.836 0.861,0 1.448,-0.277 1.762,-0.836 0.314,-0.559 0.471,-1.492 0.471,-2.807 0,-1.311 -0.16,-2.266 -0.479,-2.861 -0.318,-0.594 -0.903,-0.893 -1.754,-0.893 -0.85,0 -1.434,0.299 -1.753,0.893 -0.319,0.596 -0.479,1.551 -0.479,2.861 0,1.315 0.157,2.248 0.47,2.807 z"
   id="path3182"
   inkscape:connector-curvature="0"
   style="fill:#6d8d24" />
		</g>
	</g>
	<path
   d="M 52.18,38.464 36.838,28.969 V 10.524 C 36.815,8.088 35.102,6.322 32.725,6.322 32.011,6.326 31.28,6.501 30.558,6.843 L 9.731,16.586 c -2.255,1.056 -3.813,3.658 -3.789,6.32 l 0.02,22.023 17.416,10.861 c 1.075,0.84 2.607,1.32 4.193,1.32 1.21,0 2.371,-0.27 3.352,-0.783 L 51.32,45.712 c 0.707,-0.365 1.291,-0.836 1.733,-1.404 1.448,-1.863 1.096,-4.31 -0.873,-5.844 z M 31.95,28.268 17.865,34.894 v -8.083 l 9.311,-4.516 V 18.45 l -12.846,6.349 -0.199,0.096 v 14.821 l 12.001,7.874 0.178,0.117 12.716,-6.886 -0.491,-0.327 C 38.088,40.199 37.679,39.877 37.261,39.556 36.836,39.225 36.409,38.895 35.947,38.585 L 35.777,38.47 26.594,43.004 18.79,38.01 32.783,31.783 48.349,41.748 28.667,51.99 c -0.29,0.154 -0.678,0.236 -1.096,0.236 -0.56,0 -1,-0.15 -1.222,-0.318 L 10.463,42.365 V 22.866 c -0.003,-0.48 0.572,-1.493 1.343,-1.85 l 20.145,-9.428 v 16.68 z"
   id="path3184"
   inkscape:connector-curvature="0"
   style="fill:#6d8d24" />
</g>
</svg>