<?xml version="1.0" encoding="UTF-8" standalone="no"?>
<!-- Generator: Adobe Illustrator 15.0.0, SVG Export Plug-In . SVG Version: 6.00 Build 0)  -->

<svg
   xmlns:dc="http://purl.org/dc/elements/1.1/"
   xmlns:cc="http://creativecommons.org/ns#"
   xmlns:rdf="http://www.w3.org/1999/02/22-rdf-syntax-ns#"
   xmlns:svg="http://www.w3.org/2000/svg"
   xmlns="http://www.w3.org/2000/svg"
   xmlns:sodipodi="http://sodipodi.sourceforge.net/DTD/sodipodi-0.dtd"
   xmlns:inkscape="http://www.inkscape.org/namespaces/inkscape"
   version="1.1"
   id="Layer_1"
   x="0px"
   y="0px"
   width="45"
   height="45"
   viewBox="0 0 45 45"
   enable-background="new 0 0 245 74"
   xml:space="preserve"
   inkscape:version="0.48.3.1 r9886"
   sodipodi:docname="canaima_popular.svg"><metadata
   id="metadata45"><rdf:RDF><cc:Work
       rdf:about=""><dc:format>image/svg+xml</dc:format><dc:type
         rdf:resource="http://purl.org/dc/dcmitype/StillImage" /><dc:title></dc:title></cc:Work></rdf:RDF></metadata><defs
   id="defs43" /><sodipodi:namedview
   pagecolor="#ffffff"
   bordercolor="#666666"
   borderopacity="1"
   objecttolerance="10"
   gridtolerance="10"
   guidetolerance="10"
   inkscape:pageopacity="0"
   inkscape:pageshadow="2"
   inkscape:window-width="640"
   inkscape:window-height="480"
   id="namedview41"
   showgrid="false"
   fit-margin-top="0"
   fit-margin-left="0"
   fit-margin-right="0"
   fit-margin-bottom="0"
   inkscape:zoom="1.8571429"
   inkscape:cx="45.664423"
   inkscape:cy="33.207609"
   inkscape:window-x="0"
   inkscape:window-y="27"
   inkscape:window-maximized="0"
   inkscape:current-layer="g3" />
<g
   id="g3"
   transform="translate(-8,-7.011)">
	
	
	<path
   d="M 30.5,7.011 C 18.093,7.011 8,17.104 8,29.511 c 0,12.406 10.093,22.5 22.5,22.5 12.406,0 22.5,-10.094 22.5,-22.5 0,-12.407 -10.094,-22.5 -22.5,-22.5 z m 16.739,18.832 h -4.435 v -8.242 c 2.176,2.247 3.743,5.081 4.435,8.242 z m -28.83,-8.471 v 8.471 h -4.646 c 0.716,-3.267 2.357,-6.191 4.646,-8.471 z m -5.034,12.471 h 7.034 c 1.104,0 2,-0.896 2,-2 V 14.404 c 0.801,-0.431 1.646,-0.787 2.516,-1.088 v 18.133 h -5.728 c -1.104,0 -2,0.896 -2,2 v 6.853 C 14.866,37.434 13.451,33.801 13.375,29.843 z m 7.795,14.03 c 0.013,-0.09 0.027,-0.179 0.027,-0.271 v -8.153 h 5.728 c 1.104,0 2,-0.896 2,-2 V 12.447 c 0.52,-0.048 1.044,-0.08 1.575,-0.08 0.604,0 1.201,0.033 1.789,0.095 v 20.987 c 0,1.104 0.896,2 2,2 h 5.728 v 8.153 c 0,0.051 0.011,0.098 0.015,0.148 -2.728,1.831 -6.006,2.902 -9.531,2.902 -3.442,10e-4 -6.644,-1.027 -9.331,-2.779 z M 44.017,40.019 V 33.45 c 0,-1.104 -0.896,-2 -2,-2 H 36.289 V 13.396 c 0.872,0.313 1.716,0.685 2.516,1.129 v 13.318 c 0,1.104 0.896,2 2,2 h 6.823 c -0.074,3.831 -1.411,7.351 -3.611,10.176 z"
   id="path39"
   inkscape:connector-curvature="0"
   style="fill:#6d8d24" />
</g>
</svg>