<?xml version="1.0" encoding="UTF-8" standalone="no"?>
<!-- Generator: Adobe Illustrator 15.0.0, SVG Export Plug-In . SVG Version: 6.00 Build 0)  -->

<svg
   xmlns:dc="http://purl.org/dc/elements/1.1/"
   xmlns:cc="http://creativecommons.org/ns#"
   xmlns:rdf="http://www.w3.org/1999/02/22-rdf-syntax-ns#"
   xmlns:svg="http://www.w3.org/2000/svg"
   xmlns="http://www.w3.org/2000/svg"
   xmlns:sodipodi="http://sodipodi.sourceforge.net/DTD/sodipodi-0.dtd"
   xmlns:inkscape="http://www.inkscape.org/namespaces/inkscape"
   version="1.1"
   id="Layer_1"
   x="0px"
   y="0px"
   width="202.9704"
   height="53.414001"
   viewBox="0 0 202.97039 53.414001"
   enable-background="new 0 0 211.667 63.333"
   xml:space="preserve"
   inkscape:version="0.48.3.1 r9886"
   sodipodi:docname="canaima_universitario.svg"><metadata
   id="metadata3105"><rdf:RDF><cc:Work
       rdf:about=""><dc:format>image/svg+xml</dc:format><dc:type
         rdf:resource="http://purl.org/dc/dcmitype/StillImage" /></cc:Work></rdf:RDF></metadata><defs
   id="defs3103" /><sodipodi:namedview
   pagecolor="#ffffff"
   bordercolor="#666666"
   borderopacity="1"
   objecttolerance="10"
   gridtolerance="10"
   guidetolerance="10"
   inkscape:pageopacity="0"
   inkscape:pageshadow="2"
   inkscape:window-width="665"
   inkscape:window-height="480"
   id="namedview3101"
   showgrid="false"
   fit-margin-top="0"
   fit-margin-left="0"
   fit-margin-right="0"
   fit-margin-bottom="0"
   inkscape:zoom="2.1496028"
   inkscape:cx="27.742014"
   inkscape:cy="15.46936"
   inkscape:window-x="0"
   inkscape:window-y="27"
   inkscape:window-maximized="0"
   inkscape:current-layer="g3047" />
<g
   id="g3047"
   transform="translate(-4.6820034,-5.46)">
	
	
	
	
	
	
	
	
	<g
   id="g3148"><path
     style="fill:#6d8d24"
     inkscape:connector-curvature="0"
     id="path3049"
     d="m 148.374,11.891 c 0,-1.383 1.119,-2.502 2.5,-2.502 1.385,0 2.504,1.119 2.504,2.502 0,1.383 -1.119,2.504 -2.504,2.504 -1.381,0 -2.5,-1.121 -2.5,-2.504 z" /><path
     style="fill:#6d8d24"
     inkscape:connector-curvature="0"
     id="path3051"
     d="m 64.353,21.85 h 10.974 c 0.203,0 0.363,-0.163 0.363,-0.363 v -4.331 c 0,-0.201 -0.16,-0.371 -0.363,-0.371 H 64.353 c -2.989,0 -5.423,2.289 -5.423,5.104 v 14.997 c 0,2.814 2.434,5.223 5.423,5.223 h 10.966 c 0.207,0 0.371,-0.166 0.371,-0.371 v -4.411 c 0,-0.206 -0.164,-0.373 -0.371,-0.373 H 64.353 c -0.196,0 -0.36,0.039 -0.36,-0.192 V 22.063 c 0,-0.202 0.164,-0.213 0.36,-0.213 z" /><path
     style="fill:#6d8d24"
     inkscape:connector-curvature="0"
     id="path3053"
     d="m 148.374,16.782 v 24.955 c 0,0.205 0.164,0.371 0.37,0.371 h 4.399 c 0.206,0 0.371,-0.166 0.371,-0.371 V 16.782 h -5.14 z" /><path
     style="fill:#6d8d24"
     inkscape:connector-curvature="0"
     id="path3055"
     d="m 176.772,16.683 h -4.861 -0.111 v 20.946 h -2.448 V 16.683 h -12.005 l 0.01,25.05 c 0,0.205 0.158,0.373 0.354,0.373 h 4.141 c 0.195,0 0.35,-0.168 0.35,-0.373 l -0.004,-20.224 h 2.616 v 20.599 h 11.945 0.015 V 21.509 h 2.607 l 0.004,20.224 c 0,0.205 0.154,0.373 0.346,0.373 h 4.064 c 0.188,0 0.342,-0.168 0.342,-0.373 V 16.539 l -7.365,0.144 z" /><path
     style="fill:#6d8d24"
     inkscape:connector-curvature="0"
     id="path3057"
     d="m 121.454,16.789 h -4.434 c -0.207,0 -0.374,0.168 -0.374,0.372 V 37.588 H 114.1 V 16.782 h -12.498 v 24.955 c 0,0.205 0.168,0.371 0.367,0.371 h 4.315 c 0.199,0 0.363,-0.166 0.363,-0.371 V 21.5 h 2.728 v 20.607 h 12.449 V 19.096 17.16 c 0.001,-0.203 -0.167,-0.371 -0.37,-0.371 z" /><path
     style="fill:#6d8d24"
     inkscape:connector-curvature="0"
     id="path3059"
     d="m 93.178,16.782 h -9.76 l -5.602,24.983 c -0.029,0.19 0.09,0.341 0.286,0.341 h 4.386 c 0.195,0 0.381,-0.15 0.439,-0.341 l 0.938,-4.24 h 8.865 l 0.951,4.25 c 0.059,0.191 0.244,0.341 0.437,0.341 h 4.389 c 0.192,0 0.315,-0.149 0.29,-0.341 L 93.178,16.782 z m -8.344,16.275 2.469,-11.55 h 1.993 l 2.466,11.55 h -6.928 z" /><path
     style="fill:#6d8d24"
     inkscape:connector-curvature="0"
     id="path3061"
     d="m 140.088,16.782 h -9.756 l -5.602,24.983 c -0.028,0.19 0.09,0.341 0.286,0.341 h 4.386 c 0.191,0 0.381,-0.15 0.44,-0.341 l 0.937,-4.24 h 8.865 l 0.951,4.25 c 0.056,0.191 0.244,0.341 0.438,0.341 h 4.389 c 0.191,0 0.311,-0.149 0.286,-0.341 l -5.62,-24.993 z m -8.339,16.275 2.466,-11.55 h 1.993 l 2.469,11.55 h -6.928 z" /><path
     style="fill:#6d8d24"
     inkscape:connector-curvature="0"
     id="path3063"
     d="m 202.026,16.782 h -9.756 l -5.605,24.983 c -0.025,0.19 0.098,0.341 0.289,0.341 h 4.386 c 0.192,0 0.385,-0.15 0.44,-0.341 l 0.938,-4.24 h 8.864 l 0.951,4.25 c 0.056,0.191 0.245,0.341 0.438,0.341 h 4.388 c 0.193,0 0.312,-0.149 0.291,-0.341 l -5.624,-24.993 z m -8.34,16.275 2.469,-11.55 h 1.99 l 2.469,11.55 h -6.928 z" /><g
     id="g3065"
     enable-background="new    ">
		<path
   style="fill:#6d8d24"
   inkscape:connector-curvature="0"
   id="path3067"
   d="m 62.419,55.271 c 0,1.196 0.608,1.794 1.824,1.794 1.216,0 1.824,-0.598 1.824,-1.794 v -6.829 h 2.08 v 6.783 c 0,1.257 -0.323,2.179 -0.972,2.767 -0.649,0.588 -1.627,0.882 -2.933,0.882 -1.307,0 -2.284,-0.294 -2.933,-0.882 -0.649,-0.588 -0.973,-1.51 -0.973,-2.767 v -6.783 h 2.081 v 6.829 z" />
		<path
   style="fill:#6d8d24"
   inkscape:connector-curvature="0"
   id="path3069"
   d="M 70.29,58.693 V 48.442 h 3.512 l 2.473,8.442 h 0.15 v -8.442 h 2.08 V 58.693 H 75.083 L 72.52,50.25 h -0.15 v 8.442 h -2.08 z" />
		<path
   style="fill:#6d8d24"
   inkscape:connector-curvature="0"
   id="path3071"
   d="M 80.736,58.693 V 48.442 h 2.08 v 10.251 h -2.08 z" />
		<path
   style="fill:#6d8d24"
   inkscape:connector-curvature="0"
   id="path3073"
   d="m 90.594,48.442 h 2.187 L 90.399,58.693 H 86.555 L 84.172,48.442 h 2.187 l 1.778,8.442 h 0.679 l 1.778,-8.442 z" />
		<path
   style="fill:#6d8d24"
   inkscape:connector-curvature="0"
   id="path3075"
   d="M 94.137,58.693 V 48.442 h 6.633 v 1.809 h -4.553 v 2.397 h 3.648 v 1.778 h -3.648 v 2.458 h 4.553 v 1.809 h -6.633 z" />
		<path
   style="fill:#6d8d24"
   inkscape:connector-curvature="0"
   id="path3077"
   d="m 104.569,55.255 v 3.438 h -2.08 V 48.442 h 3.98 c 2.412,0 3.617,1.125 3.617,3.377 0,1.336 -0.502,2.321 -1.507,2.954 l 1.462,3.92 h -2.275 l -1.191,-3.438 h -2.006 z m 3.031,-2.23 c 0.24,-0.302 0.361,-0.699 0.361,-1.191 0,-0.492 -0.128,-0.884 -0.385,-1.176 -0.256,-0.291 -0.625,-0.438 -1.107,-0.438 h -1.9 v 3.257 h 1.93 c 0.493,0 0.859,-0.151 1.101,-0.452 z" />
		<path
   style="fill:#6d8d24"
   inkscape:connector-curvature="0"
   id="path3079"
   d="m 114.987,50.07 c -1.096,0 -1.644,0.361 -1.644,1.085 0,0.322 0.136,0.568 0.407,0.739 0.271,0.171 0.906,0.417 1.906,0.738 1,0.322 1.701,0.687 2.104,1.093 0.402,0.407 0.604,1.033 0.604,1.877 0,1.076 -0.327,1.89 -0.98,2.442 -0.653,0.552 -1.508,0.829 -2.562,0.829 -0.784,0 -1.744,-0.12 -2.879,-0.361 l -0.543,-0.105 0.211,-1.613 c 1.347,0.181 2.377,0.271 3.09,0.271 1.065,0 1.599,-0.442 1.599,-1.327 0,-0.321 -0.124,-0.572 -0.37,-0.754 -0.246,-0.181 -0.736,-0.376 -1.469,-0.588 -1.166,-0.331 -1.988,-0.726 -2.465,-1.183 -0.479,-0.458 -0.717,-1.094 -0.717,-1.907 0,-1.025 0.312,-1.789 0.936,-2.292 0.623,-0.502 1.477,-0.754 2.562,-0.754 0.743,0 1.688,0.101 2.834,0.302 l 0.543,0.105 -0.166,1.644 c -1.419,-0.161 -2.419,-0.241 -3.001,-0.241 z" />
		<path
   style="fill:#6d8d24"
   inkscape:connector-curvature="0"
   id="path3081"
   d="M 120.038,58.693 V 48.442 h 2.08 v 10.251 h -2.08 z" />
		<path
   style="fill:#6d8d24"
   inkscape:connector-curvature="0"
   id="path3083"
   d="m 123.428,50.281 v -1.839 h 7.538 v 1.839 h -2.714 v 8.412 h -2.08 v -8.412 h -2.744 z" />
		<path
   style="fill:#6d8d24"
   inkscape:connector-curvature="0"
   id="path3085"
   d="m 130.861,58.693 2.307,-10.251 h 3.95 l 2.306,10.251 h -2.08 l -0.407,-1.854 h -3.588 l -0.406,1.854 h -2.082 z m 3.919,-8.532 -1.039,4.869 h 2.803 l -1.039,-4.869 h -0.725 z" />
		<path
   style="fill:#6d8d24"
   inkscape:connector-curvature="0"
   id="path3087"
   d="m 142.875,55.255 v 3.438 h -2.08 V 48.442 h 3.98 c 2.411,0 3.617,1.125 3.617,3.377 0,1.336 -0.502,2.321 -1.508,2.954 l 1.463,3.92 h -2.276 l -1.19,-3.438 h -2.006 z m 3.031,-2.23 c 0.241,-0.302 0.362,-0.699 0.362,-1.191 0,-0.492 -0.129,-0.884 -0.385,-1.176 -0.256,-0.291 -0.625,-0.438 -1.107,-0.438 h -1.9 v 3.257 h 1.93 c 0.491,0 0.859,-0.151 1.1,-0.452 z" />
		<path
   style="fill:#6d8d24"
   inkscape:connector-curvature="0"
   id="path3089"
   d="M 150.142,58.693 V 48.442 h 2.08 v 10.251 h -2.08 z" />
		<path
   style="fill:#6d8d24"
   inkscape:connector-curvature="0"
   id="path3091"
   d="m 161.546,57.6 c -0.638,0.85 -1.736,1.273 -3.294,1.273 -1.559,0 -2.656,-0.424 -3.294,-1.273 C 154.32,56.751 154,55.421 154,53.613 c 0,-1.81 0.32,-3.153 0.958,-4.033 0.638,-0.879 1.735,-1.319 3.294,-1.319 1.558,0 2.656,0.44 3.294,1.319 0.638,0.88 0.958,2.224 0.958,4.033 0,1.808 -0.32,3.137 -0.958,3.987 z m -4.96,-1.327 c 0.297,0.528 0.852,0.792 1.666,0.792 0.814,0 1.369,-0.264 1.666,-0.792 0.297,-0.527 0.444,-1.411 0.444,-2.653 0,-1.241 -0.15,-2.143 -0.452,-2.706 -0.301,-0.562 -0.854,-0.844 -1.658,-0.844 -0.804,0 -1.357,0.281 -1.658,0.844 -0.302,0.563 -0.452,1.465 -0.452,2.706 0,1.242 0.148,2.126 0.444,2.653 z" />
	</g></g>
	<g
   id="g3093">
		<path
   d="m 5.057,19.51 h 5.773 c 0.203,0 0.375,-0.168 0.375,-0.372 v -7.854 h 27.583 l 0.01,-1.341 v 9.195 c 0,0.204 0.165,0.372 0.375,0.372 h 5.773 c 0.203,0 0.374,-0.168 0.374,-0.372 V 5.46 H 4.682 v 13.678 c 0,0.204 0.168,0.372 0.375,0.372 z"
   id="path3095"
   inkscape:connector-curvature="0"
   style="fill:#6d8d24" />
		<path
   d="m 44.942,22.688 h -4.431 c -0.202,0 -0.37,0.167 -0.37,0.374 L 40.137,37.628 H 9.868 9.861 V 23.062 c 0,-0.207 -0.168,-0.374 -0.378,-0.374 h -4.43 c -0.203,0 -0.371,0.167 -0.371,0.374 V 42.108 H 45.32 V 23.062 c 0,-0.207 -0.171,-0.374 -0.378,-0.374 z"
   id="path3097"
   inkscape:connector-curvature="0"
   style="fill:#6d8d24" />
		<circle
   cx="24.971001"
   cy="29.57"
   r="5.6500001"
   id="circle3099"
   sodipodi:cx="24.971001"
   sodipodi:cy="29.57"
   sodipodi:rx="5.6500001"
   sodipodi:ry="5.6500001"
   style="fill:#6d8d24"
   d="m 30.621001,29.57 c 0,3.120409 -2.529591,5.65 -5.65,5.65 -3.120409,0 -5.65,-2.529591 -5.65,-5.65 0,-3.120409 2.529591,-5.65 5.65,-5.65 3.120409,0 5.65,2.529591 5.65,5.65 z" />
	</g>
</g>
</svg>