<?xml version="1.0" encoding="UTF-8" standalone="no"?>
<!-- Generator: Adobe Illustrator 15.0.0, SVG Export Plug-In . SVG Version: 6.00 Build 0)  -->

<svg
   xmlns:dc="http://purl.org/dc/elements/1.1/"
   xmlns:cc="http://creativecommons.org/ns#"
   xmlns:rdf="http://www.w3.org/1999/02/22-rdf-syntax-ns#"
   xmlns:svg="http://www.w3.org/2000/svg"
   xmlns="http://www.w3.org/2000/svg"
   xmlns:sodipodi="http://sodipodi.sourceforge.net/DTD/sodipodi-0.dtd"
   xmlns:inkscape="http://www.inkscape.org/namespaces/inkscape"
   version="1.1"
   id="Layer_1"
   x="0px"
   y="0px"
   width="224.02444"
   height="56.338997"
   viewBox="0 0 224.02445 56.338997"
   enable-background="new 0 0 234.333 67.667"
   xml:space="preserve"
   inkscape:version="0.48.3.1 r9886"
   sodipodi:docname="canaima_comunitario.svg"><metadata
   id="metadata3139"><rdf:RDF><cc:Work
       rdf:about=""><dc:format>image/svg+xml</dc:format><dc:type
         rdf:resource="http://purl.org/dc/dcmitype/StillImage" /></cc:Work></rdf:RDF></metadata><defs
   id="defs3137" /><sodipodi:namedview
   pagecolor="#ffffff"
   bordercolor="#666666"
   borderopacity="1"
   objecttolerance="10"
   gridtolerance="10"
   guidetolerance="10"
   inkscape:pageopacity="0"
   inkscape:pageshadow="2"
   inkscape:window-width="640"
   inkscape:window-height="480"
   id="namedview3135"
   showgrid="false"
   fit-margin-top="0"
   fit-margin-left="0"
   fit-margin-right="0"
   fit-margin-bottom="0"
   inkscape:zoom="1.9416813"
   inkscape:cx="112.0125"
   inkscape:cy="28.169499"
   inkscape:window-x="0"
   inkscape:window-y="27"
   inkscape:window-maximized="0"
   inkscape:current-layer="Layer_1" />
<g
   id="g3083"
   transform="translate(-5.1539998,-5.664001)">
	<g
   id="g3085">
		<circle
   cx="166.248"
   cy="9.9320002"
   r="2.7750001"
   id="circle3087"
   sodipodi:cx="166.248"
   sodipodi:cy="9.9320002"
   sodipodi:rx="2.7750001"
   sodipodi:ry="2.7750001"
   style="fill:#6d8d24"
   d="m 169.023,9.9320002 c 0,1.5325898 -1.24241,2.7749998 -2.775,2.7749998 -1.53259,0 -2.775,-1.24241 -2.775,-2.7749998 0,-1.5325903 1.24241,-2.7750001 2.775,-2.7750001 1.53259,0 2.775,1.2424098 2.775,2.7750001 z" />
		<path
   d="m 70.35,20.968 h 12.163 c 0.221,0 0.399,-0.179 0.399,-0.405 v -4.796 c 0,-0.223 -0.179,-0.411 -0.399,-0.411 H 70.35 c -3.313,0 -6.01,2.537 -6.01,5.656 v 16.622 c 0,3.121 2.696,5.791 6.01,5.791 h 12.151 c 0.229,0 0.411,-0.189 0.411,-0.412 v -4.891 c 0,-0.229 -0.183,-0.41 -0.411,-0.41 H 70.35 c -0.219,0 -0.4,0.043 -0.4,-0.215 v -16.29 c 0,-0.226 0.181,-0.239 0.4,-0.239 z"
   id="path3089"
   inkscape:connector-curvature="0"
   style="fill:#6d8d24" />
		<path
   d="m 163.477,15.351 -0.004,27.662 c 0,0.223 0.189,0.412 0.417,0.412 h 4.872 c 0.227,0 0.415,-0.189 0.415,-0.412 V 15.351 h -5.7 z"
   id="path3091"
   inkscape:connector-curvature="0"
   style="fill:#6d8d24" />
		<path
   d="m 194.955,15.243 h -5.387 -0.13 V 38.46 h -2.71 V 15.243 h -13.306 l 0.014,27.764 c 0,0.227 0.174,0.412 0.385,0.412 h 4.595 c 0.214,0 0.389,-0.186 0.389,-0.412 l -0.009,-22.415 h 2.9 v 22.833 h 13.243 0.016 V 20.592 h 2.887 l 0.007,22.415 c 0,0.227 0.171,0.412 0.381,0.412 h 4.508 c 0.213,0 0.379,-0.186 0.379,-0.412 V 15.084 l -8.162,0.159 z"
   id="path3093"
   inkscape:connector-curvature="0"
   style="fill:#6d8d24" />
		<path
   d="m 133.634,15.359 h -4.907 c -0.229,0 -0.415,0.185 -0.415,0.412 l -0.001,22.642 h -2.822 V 15.351 h -13.856 v 27.662 c 0,0.223 0.186,0.412 0.409,0.412 h 4.78 c 0.226,0 0.405,-0.189 0.405,-0.412 v -22.43 h 3.021 v 22.842 h 13.803 V 17.917 15.771 c 0,-0.227 -0.187,-0.412 -0.417,-0.412 z"
   id="path3095"
   inkscape:connector-curvature="0"
   style="fill:#6d8d24" />
		<path
   d="M 102.299,15.351 H 91.481 l -6.212,27.693 c -0.028,0.211 0.105,0.377 0.318,0.377 h 4.864 c 0.217,0 0.421,-0.166 0.486,-0.377 l 1.042,-4.701 h 9.822 l 1.057,4.711 c 0.062,0.209 0.271,0.377 0.484,0.377 h 4.86 c 0.215,0 0.348,-0.168 0.321,-0.377 l -6.224,-27.703 z m -9.248,18.042 2.733,-12.806 h 2.21 l 2.73,12.806 h -7.673 z"
   id="path3097"
   inkscape:connector-curvature="0"
   style="fill:#6d8d24" />
		<path
   d="m 154.296,15.351 h -10.814 l -6.214,27.693 c -0.028,0.211 0.104,0.377 0.318,0.377 h 4.864 c 0.213,0 0.419,-0.166 0.485,-0.377 l 1.043,-4.701 h 9.822 l 1.055,4.711 c 0.061,0.209 0.271,0.377 0.48,0.377 h 4.867 c 0.217,0 0.347,-0.168 0.318,-0.377 l -6.224,-27.703 z m -9.248,18.042 2.734,-12.806 h 2.21 l 2.733,12.806 h -7.677 z"
   id="path3099"
   inkscape:connector-curvature="0"
   style="fill:#6d8d24" />
		<path
   d="m 222.947,15.351 h -10.813 l -6.218,27.693 c -0.024,0.211 0.11,0.377 0.325,0.377 h 4.86 c 0.217,0 0.423,-0.166 0.486,-0.377 l 1.038,-4.701 h 9.827 l 1.049,4.711 c 0.069,0.209 0.276,0.377 0.489,0.377 h 4.864 c 0.214,0 0.348,-0.168 0.321,-0.377 l -6.228,-27.703 z m -9.244,18.042 2.731,-12.806 h 2.21 l 2.734,12.806 h -7.675 z"
   id="path3101"
   inkscape:connector-curvature="0"
   style="fill:#6d8d24" />
	</g>
	<g
   enable-background="new    "
   id="g3103">
		<path
   d="m 72.779,61.618 c -1.181,0.256 -2.245,0.385 -3.191,0.385 -0.947,0 -1.705,-0.117 -2.272,-0.352 -0.568,-0.234 -1.014,-0.607 -1.337,-1.119 -0.323,-0.512 -0.546,-1.113 -0.669,-1.805 -0.122,-0.689 -0.184,-1.559 -0.184,-2.607 0,-2.193 0.31,-3.723 0.928,-4.586 0.618,-0.863 1.757,-1.295 3.417,-1.295 0.958,0 2.066,0.15 3.325,0.451 l -0.067,1.838 c -1.103,-0.166 -2.019,-0.25 -2.748,-0.25 -0.729,0 -1.251,0.098 -1.562,0.291 -0.312,0.195 -0.543,0.566 -0.693,1.111 -0.15,0.547 -0.226,1.477 -0.226,2.791 0,1.314 0.153,2.225 0.459,2.732 0.307,0.508 0.919,0.76 1.839,0.76 0.919,0 1.896,-0.078 2.932,-0.234 l 0.049,1.889 z"
   id="path3105"
   inkscape:connector-curvature="0"
   style="fill:#6d8d24" />
		<path
   d="m 82.412,60.591 c -0.708,0.941 -1.925,1.412 -3.651,1.412 -1.726,0 -2.943,-0.471 -3.651,-1.412 -0.707,-0.941 -1.061,-2.414 -1.061,-4.42 0,-2.004 0.354,-3.494 1.061,-4.469 0.708,-0.975 1.925,-1.463 3.651,-1.463 1.726,0 2.943,0.488 3.651,1.463 0.707,0.975 1.061,2.465 1.061,4.469 -0.001,2.006 -0.354,3.478 -1.061,4.42 z M 76.914,59.12 c 0.329,0.586 0.944,0.877 1.847,0.877 0.903,0 1.518,-0.291 1.847,-0.877 0.328,-0.584 0.492,-1.564 0.492,-2.941 0,-1.375 -0.167,-2.375 -0.501,-2.998 -0.334,-0.625 -0.947,-0.936 -1.838,-0.936 -0.892,0 -1.504,0.311 -1.838,0.936 -0.334,0.623 -0.501,1.623 -0.501,2.998 -10e-4,1.377 0.163,2.357 0.492,2.941 z"
   id="path3107"
   inkscape:connector-curvature="0"
   style="fill:#6d8d24" />
		<path
   d="M 85.444,61.802 V 50.44 h 3.927 l 2.005,8.287 2.006,-8.287 h 3.927 v 11.361 h -2.307 v -8.789 h -0.25 l -2.223,8.289 H 90.223 L 88,53.013 h -0.25 v 8.789 h -2.306 z"
   id="path3109"
   inkscape:connector-curvature="0"
   style="fill:#6d8d24" />
		<path
   d="m 101.987,58.009 c 0,1.326 0.674,1.988 2.021,1.988 1.347,0 2.021,-0.662 2.021,-1.988 V 50.44 h 2.307 v 7.52 c 0,1.393 -0.359,2.414 -1.078,3.064 -0.719,0.652 -1.802,0.979 -3.25,0.979 -1.448,0 -2.531,-0.326 -3.25,-0.979 -0.719,-0.65 -1.077,-1.672 -1.077,-3.064 v -7.52 h 2.306 v 7.569 z"
   id="path3111"
   inkscape:connector-curvature="0"
   style="fill:#6d8d24" />
		<path
   d="M 110.708,61.802 V 50.44 h 3.894 l 2.74,9.357 h 0.167 V 50.44 h 2.306 v 11.361 h -3.793 l -2.84,-9.357 h -0.168 v 9.357 h -2.306 z"
   id="path3113"
   inkscape:connector-curvature="0"
   style="fill:#6d8d24" />
		<path
   d="M 122.288,61.802 V 50.44 h 2.306 v 11.361 h -2.306 z"
   id="path3115"
   inkscape:connector-curvature="0"
   style="fill:#6d8d24" />
		<path
   d="M 126.047,52.478 V 50.44 h 8.355 v 2.037 h -3.008 v 9.324 h -2.306 v -9.324 h -3.041 z"
   id="path3117"
   inkscape:connector-curvature="0"
   style="fill:#6d8d24" />
		<path
   d="m 134.286,61.802 2.557,-11.361 h 4.378 l 2.557,11.361 h -2.307 l -0.451,-2.055 h -3.977 l -0.451,2.055 h -2.306 z m 4.344,-9.457 -1.153,5.396 h 3.108 l -1.153,-5.396 h -0.802 z"
   id="path3119"
   inkscape:connector-curvature="0"
   style="fill:#6d8d24" />
		<path
   d="m 147.602,57.993 v 3.809 h -2.306 V 50.44 h 4.411 c 2.674,0 4.011,1.248 4.011,3.742 0,1.482 -0.558,2.574 -1.671,3.275 l 1.621,4.344 h -2.523 l -1.32,-3.809 h -2.223 z m 3.359,-2.474 c 0.267,-0.334 0.4,-0.773 0.4,-1.318 0,-0.547 -0.142,-0.98 -0.426,-1.305 -0.284,-0.322 -0.693,-0.484 -1.229,-0.484 h -2.105 v 3.609 h 2.14 c 0.546,0 0.953,-0.167 1.22,-0.502 z"
   id="path3121"
   inkscape:connector-curvature="0"
   style="fill:#6d8d24" />
		<path
   d="M 155.656,61.802 V 50.44 h 2.306 v 11.361 h -2.306 z"
   id="path3123"
   inkscape:connector-curvature="0"
   style="fill:#6d8d24" />
		<path
   d="m 168.297,60.591 c -0.708,0.941 -1.925,1.412 -3.651,1.412 -1.726,0 -2.943,-0.471 -3.651,-1.412 -0.707,-0.941 -1.061,-2.414 -1.061,-4.42 0,-2.004 0.354,-3.494 1.061,-4.469 0.708,-0.975 1.925,-1.463 3.651,-1.463 1.726,0 2.943,0.488 3.651,1.463 0.707,0.975 1.061,2.465 1.061,4.469 0,2.006 -0.354,3.478 -1.061,4.42 z m -5.498,-1.471 c 0.329,0.586 0.944,0.877 1.847,0.877 0.903,0 1.518,-0.291 1.847,-0.877 0.328,-0.584 0.492,-1.564 0.492,-2.941 0,-1.375 -0.167,-2.375 -0.501,-2.998 -0.334,-0.625 -0.947,-0.936 -1.838,-0.936 -0.892,0 -1.504,0.311 -1.838,0.936 -0.334,0.623 -0.501,1.623 -0.501,2.998 0,1.377 0.164,2.357 0.492,2.941 z"
   id="path3125"
   inkscape:connector-curvature="0"
   style="fill:#6d8d24" />
	</g>
	<g
   id="g3127">
		<rect
   x="5.1539998"
   y="5.664"
   width="7.4819999"
   height="7.4829998"
   id="rect3129"
   style="fill:#6d8d24" />
		<polygon
   points="16.972,28.297 22.16,28.297 22.16,43.263 26.486,43.263 26.486,23.97 12.648,23.97 12.648,39.108 9.478,39.108 9.478,20.174 46.267,20.174 46.267,39.108 43.093,39.108 43.093,23.97 29.253,23.97 29.253,43.263 33.576,43.263 33.576,28.297 38.771,28.297 38.771,43.431 50.589,43.431 50.589,15.852 5.154,15.852 5.154,43.431 16.972,43.431 "
   id="polygon3131"
   style="fill:#6d8d24" />
		<rect
   x="43.103001"
   y="5.664"
   width="7.4840002"
   height="7.4829998"
   id="rect3133"
   style="fill:#6d8d24" />
	</g>
</g>
</svg>