<?xml version="1.0" encoding="utf-8"?>
<!-- Generator: Adobe Illustrator 15.0.0, SVG Export Plug-In . SVG Version: 6.00 Build 0)  -->
<!DOCTYPE svg PUBLIC "-//W3C//DTD SVG 1.1//EN" "http://www.w3.org/Graphics/SVG/1.1/DTD/svg11.dtd">
<svg version="1.1" id="Layer_1" xmlns="http://www.w3.org/2000/svg" xmlns:xlink="http://www.w3.org/1999/xlink" x="0px" y="0px"
	 width="612px" height="792px" viewBox="0 0 612 792" enable-background="new 0 0 612 792" xml:space="preserve">
<path fill="#6D8D24" d="M422.779,384.244l18.801-19.314L307.148,231.408L170.42,366.487l18.894,19.204l59.246-58.286l38.938,38.922
	L229.86,423.99l56.688,56.688l-60.575,57.857l18.615,19.49l61.013-58.286l2.054,1.026l57.125,59.826l19.508-18.623l-57.562-60.256
	l57.713-57.723l-57.646-57.647l38.248-38.249L422.779,384.244z M346.113,423.789l-39.082,37.297l-37.213-38.955l36.742-36.734
	l0.588,0.581l0.59-0.581L346.113,423.789z M307.738,347.274l-0.59-0.564l-0.597,0.564l-38.603-38.586l38.165-37.896l39.595,38.51
	L307.738,347.274z"/>
</svg>
