<?xml version="1.0" encoding="utf-8"?>
<!-- Generator: Adobe Illustrator 15.0.0, SVG Export Plug-In . SVG Version: 6.00 Build 0)  -->
<!DOCTYPE svg PUBLIC "-//W3C//DTD SVG 1.1//EN" "http://www.w3.org/Graphics/SVG/1.1/DTD/svg11.dtd">
<svg version="1.1" id="Layer_1" xmlns="http://www.w3.org/2000/svg" xmlns:xlink="http://www.w3.org/1999/xlink" x="0px" y="0px"
	 width="211.667px" height="63.333px" viewBox="0 0 211.667 63.333" enable-background="new 0 0 211.667 63.333"
	 xml:space="preserve">
<g>
	<path fill="#6D8D24" d="M148.374,11.891c0-1.383,1.119-2.502,2.5-2.502c1.385,0,2.504,1.119,2.504,2.502s-1.119,2.504-2.504,2.504
		C149.493,14.395,148.374,13.274,148.374,11.891z"/>
	<path fill="#6D8D24" d="M64.353,21.85h10.974c0.203,0,0.363-0.163,0.363-0.363v-4.331c0-0.201-0.16-0.371-0.363-0.371H64.353
		c-2.989,0-5.423,2.289-5.423,5.104v14.997c0,2.814,2.434,5.223,5.423,5.223h10.966c0.207,0,0.371-0.166,0.371-0.371v-4.411
		c0-0.206-0.164-0.373-0.371-0.373H64.353c-0.196,0-0.36,0.039-0.36-0.192V22.063C63.993,21.861,64.157,21.85,64.353,21.85z"/>
	<path fill="#6D8D24" d="M148.374,16.782v24.955c0,0.205,0.164,0.371,0.37,0.371h4.399c0.206,0,0.371-0.166,0.371-0.371V16.782
		H148.374z"/>
	<path fill="#6D8D24" d="M176.772,16.683h-4.861h-0.111v20.946h-2.448V16.683h-12.005l0.01,25.05c0,0.205,0.158,0.373,0.354,0.373
		h4.141c0.195,0,0.35-0.168,0.35-0.373l-0.004-20.224h2.616v20.599h11.945h0.015V21.509h2.607l0.004,20.224
		c0,0.205,0.154,0.373,0.346,0.373h4.064c0.188,0,0.342-0.168,0.342-0.373V16.539L176.772,16.683z"/>
	<path fill="#6D8D24" d="M121.454,16.789h-4.434c-0.207,0-0.374,0.168-0.374,0.372v20.427H114.1V16.782h-12.498v24.955
		c0,0.205,0.168,0.371,0.367,0.371h4.315c0.199,0,0.363-0.166,0.363-0.371V21.5h2.728v20.607h12.449V19.096v-1.936
		C121.825,16.957,121.657,16.789,121.454,16.789z"/>
	<path fill="#6D8D24" d="M93.178,16.782h-9.76l-5.602,24.983c-0.029,0.19,0.09,0.341,0.286,0.341h4.386
		c0.195,0,0.381-0.15,0.439-0.341l0.938-4.24h8.865l0.951,4.25c0.059,0.191,0.244,0.341,0.437,0.341h4.389
		c0.192,0,0.315-0.149,0.29-0.341L93.178,16.782z M84.834,33.057l2.469-11.55h1.993l2.466,11.55H84.834z"/>
	<path fill="#6D8D24" d="M140.088,16.782h-9.756l-5.602,24.983c-0.028,0.19,0.09,0.341,0.286,0.341h4.386
		c0.191,0,0.381-0.15,0.44-0.341l0.937-4.24h8.865l0.951,4.25c0.056,0.191,0.244,0.341,0.438,0.341h4.389
		c0.191,0,0.311-0.149,0.286-0.341L140.088,16.782z M131.749,33.057l2.466-11.55h1.993l2.469,11.55H131.749z"/>
	<path fill="#6D8D24" d="M202.026,16.782h-9.756l-5.605,24.983c-0.025,0.19,0.098,0.341,0.289,0.341h4.386
		c0.192,0,0.385-0.15,0.44-0.341l0.938-4.24h8.864l0.951,4.25c0.056,0.191,0.245,0.341,0.438,0.341h4.388
		c0.193,0,0.312-0.149,0.291-0.341L202.026,16.782z M193.686,33.057l2.469-11.55h1.99l2.469,11.55H193.686z"/>
	<g enable-background="new    ">
		<path fill="#6D8D24" d="M62.419,55.271c0,1.196,0.608,1.794,1.824,1.794s1.824-0.598,1.824-1.794v-6.829h2.08v6.783
			c0,1.257-0.323,2.179-0.972,2.767s-1.627,0.882-2.933,0.882c-1.307,0-2.284-0.294-2.933-0.882s-0.973-1.51-0.973-2.767v-6.783
			h2.081V55.271z"/>
		<path fill="#6D8D24" d="M70.29,58.693V48.442h3.512l2.473,8.442h0.15v-8.442h2.08v10.251h-3.422L72.52,50.25h-0.15v8.442H70.29z"
			/>
		<path fill="#6D8D24" d="M80.736,58.693V48.442h2.08v10.251H80.736z"/>
		<path fill="#6D8D24" d="M90.594,48.442h2.187l-2.382,10.251h-3.844l-2.383-10.251h2.187l1.778,8.442h0.679L90.594,48.442z"/>
		<path fill="#6D8D24" d="M94.137,58.693V48.442h6.633v1.809h-4.553v2.397h3.648v1.778h-3.648v2.458h4.553v1.809H94.137z"/>
		<path fill="#6D8D24" d="M104.569,55.255v3.438h-2.08V48.442h3.98c2.412,0,3.617,1.125,3.617,3.377
			c0,1.336-0.502,2.321-1.507,2.954l1.462,3.92h-2.275l-1.191-3.438H104.569z M107.6,53.025c0.24-0.302,0.361-0.699,0.361-1.191
			s-0.128-0.884-0.385-1.176c-0.256-0.291-0.625-0.438-1.107-0.438h-1.9v3.257h1.93C106.992,53.477,107.358,53.326,107.6,53.025z"/>
		<path fill="#6D8D24" d="M114.987,50.07c-1.096,0-1.644,0.361-1.644,1.085c0,0.322,0.136,0.568,0.407,0.739
			s0.906,0.417,1.906,0.738c1,0.322,1.701,0.687,2.104,1.093c0.402,0.407,0.604,1.033,0.604,1.877c0,1.076-0.327,1.89-0.98,2.442
			s-1.508,0.829-2.562,0.829c-0.784,0-1.744-0.12-2.879-0.361l-0.543-0.105l0.211-1.613c1.347,0.181,2.377,0.271,3.09,0.271
			c1.065,0,1.599-0.442,1.599-1.327c0-0.321-0.124-0.572-0.37-0.754c-0.246-0.181-0.736-0.376-1.469-0.588
			c-1.166-0.331-1.988-0.726-2.465-1.183c-0.479-0.458-0.717-1.094-0.717-1.907c0-1.025,0.312-1.789,0.936-2.292
			c0.623-0.502,1.477-0.754,2.562-0.754c0.743,0,1.688,0.101,2.834,0.302l0.543,0.105l-0.166,1.644
			C116.569,50.15,115.569,50.07,114.987,50.07z"/>
		<path fill="#6D8D24" d="M120.038,58.693V48.442h2.08v10.251H120.038z"/>
		<path fill="#6D8D24" d="M123.428,50.281v-1.839h7.538v1.839h-2.714v8.412h-2.08v-8.412H123.428z"/>
		<path fill="#6D8D24" d="M130.861,58.693l2.307-10.251h3.95l2.306,10.251h-2.08l-0.407-1.854h-3.588l-0.406,1.854H130.861z
			 M134.78,50.161l-1.039,4.869h2.803l-1.039-4.869H134.78z"/>
		<path fill="#6D8D24" d="M142.875,55.255v3.438h-2.08V48.442h3.98c2.411,0,3.617,1.125,3.617,3.377
			c0,1.336-0.502,2.321-1.508,2.954l1.463,3.92h-2.276l-1.19-3.438H142.875z M145.906,53.025c0.241-0.302,0.362-0.699,0.362-1.191
			s-0.129-0.884-0.385-1.176c-0.256-0.291-0.625-0.438-1.107-0.438h-1.9v3.257h1.93C145.297,53.477,145.665,53.326,145.906,53.025z"
			/>
		<path fill="#6D8D24" d="M150.142,58.693V48.442h2.08v10.251H150.142z"/>
		<path fill="#6D8D24" d="M161.546,57.6c-0.638,0.85-1.736,1.273-3.294,1.273c-1.559,0-2.656-0.424-3.294-1.273
			S154,55.421,154,53.613c0-1.81,0.32-3.153,0.958-4.033c0.638-0.879,1.735-1.319,3.294-1.319c1.558,0,2.656,0.44,3.294,1.319
			c0.638,0.88,0.958,2.224,0.958,4.033C162.504,55.421,162.184,56.75,161.546,57.6z M156.586,56.273
			c0.297,0.528,0.852,0.792,1.666,0.792s1.369-0.264,1.666-0.792c0.297-0.527,0.444-1.411,0.444-2.653
			c0-1.241-0.15-2.143-0.452-2.706c-0.301-0.562-0.854-0.844-1.658-0.844s-1.357,0.281-1.658,0.844
			c-0.302,0.563-0.452,1.465-0.452,2.706C156.142,54.862,156.29,55.746,156.586,56.273z"/>
	</g>
	<g>
		<path fill="#6D8D24" d="M5.057,19.51h5.773c0.203,0,0.375-0.168,0.375-0.372v-7.854h27.583l0.01-1.341v9.195
			c0,0.204,0.165,0.372,0.375,0.372h5.773c0.203,0,0.374-0.168,0.374-0.372V5.46H4.682v13.678C4.682,19.342,4.85,19.51,5.057,19.51z
			"/>
		<path fill="#6D8D24" d="M44.942,22.688h-4.431c-0.202,0-0.37,0.167-0.37,0.374l-0.004,14.566H9.868H9.861V23.062
			c0-0.207-0.168-0.374-0.378-0.374h-4.43c-0.203,0-0.371,0.167-0.371,0.374v19.046H45.32V23.062
			C45.32,22.855,45.149,22.688,44.942,22.688z"/>
		<circle fill="#6D8D24" cx="24.971" cy="29.57" r="5.65"/>
	</g>
</g>
</svg>
