<?xml version="1.0" encoding="utf-8"?>
<!-- Generator: Adobe Illustrator 15.0.0, SVG Export Plug-In . SVG Version: 6.00 Build 0)  -->
<!DOCTYPE svg PUBLIC "-//W3C//DTD SVG 1.1//EN" "http://www.w3.org/Graphics/SVG/1.1/DTD/svg11.dtd">
<svg version="1.1" id="Layer_1" xmlns="http://www.w3.org/2000/svg" xmlns:xlink="http://www.w3.org/1999/xlink" x="0px" y="0px"
	 width="61.627px" height="63.953px" viewBox="0 0 61.627 63.953" enable-background="new 0 0 61.627 63.953" xml:space="preserve">
<g>
	<path fill="#6D8D24" d="M30.813,15.617L14.454,31.978l16.359,16.36l16.36-16.36L30.813,15.617z M22.021,31.977l8.792-8.793
		l8.793,8.793l-8.793,8.792L22.021,31.977z"/>
	
		<rect x="27.881" y="29.044" transform="matrix(0.7071 -0.7071 0.7071 0.7071 -13.5862 31.1569)" fill="#6D8D24" width="5.866" height="5.866"/>
	<g>
		<polygon fill="#6D8D24" points="11.689,30.668 29.627,12.73 29.627,5.162 4.123,30.668 		"/>
		<polygon fill="#6D8D24" points="29.627,51.223 11.48,33.076 3.914,33.076 29.627,58.791 		"/>
		<polygon fill="#6D8D24" points="50.147,33.076 32.037,51.188 32.037,58.756 57.714,33.076 		"/>
		<polygon fill="#6D8D24" points="32.037,12.766 49.938,30.668 57.506,30.668 32.037,5.199 		"/>
	</g>
</g>
</svg>
