<?xml version="1.0" encoding="UTF-8" standalone="no"?>
<!-- Generator: Adobe Illustrator 15.0.0, SVG Export Plug-In . SVG Version: 6.00 Build 0)  -->

<svg
   xmlns:dc="http://purl.org/dc/elements/1.1/"
   xmlns:cc="http://creativecommons.org/ns#"
   xmlns:rdf="http://www.w3.org/1999/02/22-rdf-syntax-ns#"
   xmlns:svg="http://www.w3.org/2000/svg"
   xmlns="http://www.w3.org/2000/svg"
   xmlns:sodipodi="http://sodipodi.sourceforge.net/DTD/sodipodi-0.dtd"
   xmlns:inkscape="http://www.inkscape.org/namespaces/inkscape"
   version="1.1"
   id="Layer_1"
   x="0px"
   y="0px"
   width="271.16"
   height="329.18301"
   viewBox="0 0 271.16 329.18301"
   enable-background="new 0 0 612 792"
   xml:space="preserve"
   inkscape:version="0.48.3.1 r9886"
   sodipodi:docname="caribay.svg"><metadata
   id="metadata9"><rdf:RDF><cc:Work
       rdf:about=""><dc:format>image/svg+xml</dc:format><dc:type
         rdf:resource="http://purl.org/dc/dcmitype/StillImage" /></cc:Work></rdf:RDF></metadata><defs
   id="defs7" /><sodipodi:namedview
   pagecolor="#ffffff"
   bordercolor="#666666"
   borderopacity="1"
   objecttolerance="10"
   gridtolerance="10"
   guidetolerance="10"
   inkscape:pageopacity="0"
   inkscape:pageshadow="2"
   inkscape:window-width="640"
   inkscape:window-height="480"
   id="namedview5"
   showgrid="false"
   fit-margin-top="0"
   fit-margin-left="0"
   fit-margin-right="0"
   fit-margin-bottom="0"
   inkscape:zoom="0.2979798"
   inkscape:cx="135.58"
   inkscape:cy="164.591"
   inkscape:window-x="0"
   inkscape:window-y="27"
   inkscape:window-maximized="0"
   inkscape:current-layer="Layer_1" />
<path
   d="M 252.359,152.836 271.16,133.522 136.728,0 0,135.079 18.894,154.283 78.14,95.997 l 38.938,38.922 -57.638,57.663 56.688,56.688 -60.575,57.857 18.615,19.49 61.013,-58.286 2.054,1.026 57.125,59.826 19.508,-18.623 -57.562,-60.256 57.713,-57.723 -57.646,-57.647 38.248,-38.249 57.738,56.151 z m -76.666,39.545 -39.082,37.297 -37.213,-38.955 36.742,-36.734 0.588,0.581 0.59,-0.581 38.375,38.392 z m -38.375,-76.515 -0.59,-0.564 -0.597,0.564 -38.603,-38.586 38.165,-37.896 39.595,38.51 -37.97,37.972 z"
   id="path3"
   inkscape:connector-curvature="0"
   style="fill:#6d8d24" />
</svg>