<?xml version="1.0" encoding="utf-8"?>
<!-- Generator: Adobe Illustrator 15.0.0, SVG Export Plug-In . SVG Version: 6.00 Build 0)  -->
<!DOCTYPE svg PUBLIC "-//W3C//DTD SVG 1.1//EN" "http://www.w3.org/Graphics/SVG/1.1/DTD/svg11.dtd">
<svg version="1.1" id="Layer_1" xmlns="http://www.w3.org/2000/svg" xmlns:xlink="http://www.w3.org/1999/xlink" x="0px" y="0px"
	 width="612px" height="792px" viewBox="0 0 612 792" enable-background="new 0 0 612 792" xml:space="preserve">
<g>
	<path fill="#6D8D24" d="M431.896,200.316L317.39,284.333v8.316v42.861v8.336l109.134,80.092l115.459-84.731v-6.968v-44.229v-6.969
		L431.896,200.316z M347.155,314.516l55.103,4.589l9.695,42.931L347.155,314.516z M436.951,365.088l-15.394-68.187l-46.3-3.875
		l56.629-41.553l79.941,58.662L436.951,365.088z"/>
	<path fill="#6D8D24" d="M294.631,332.259V288.03v-6.967l-110.086-80.746L70.018,284.323v8.326v42.861v8.336l109.134,80.092
		l115.458-84.731L294.631,332.259L294.631,332.259z M184.564,251.494l54.974,40.353l-60.763,5.076l-14.631,64.806L99.22,314.109
		L184.564,251.494z M259.244,314L187.3,366.793l10.785-47.689L259.244,314z"/>
	<path fill="#6D8D24" d="M189.431,452.079v8.326v42.851v8.347l109.155,80.081l115.449-84.721v-6.968v-44.209v-6.979l-110.076-80.746
		L189.431,452.079z M343.577,448.292l-43.574,31.968l-39.629-29.053l43.594-31.948L343.577,448.292z M298.585,540.487
		l-79.953-58.643l21.857-16.027l59.493,43.624l63.439-46.559L383.91,477.9L298.585,540.487z"/>
</g>
</svg>
