<?xml version="1.0" encoding="UTF-8" standalone="no"?>
<!-- Generator: Adobe Illustrator 15.0.0, SVG Export Plug-In . SVG Version: 6.00 Build 0)  -->

<svg
   xmlns:dc="http://purl.org/dc/elements/1.1/"
   xmlns:cc="http://creativecommons.org/ns#"
   xmlns:rdf="http://www.w3.org/1999/02/22-rdf-syntax-ns#"
   xmlns:svg="http://www.w3.org/2000/svg"
   xmlns="http://www.w3.org/2000/svg"
   xmlns:sodipodi="http://sodipodi.sourceforge.net/DTD/sodipodi-0.dtd"
   xmlns:inkscape="http://www.inkscape.org/namespaces/inkscape"
   version="1.1"
   id="Layer_1"
   x="0px"
   y="0px"
   width="358.14099"
   height="344.41699"
   viewBox="0 0 358.14099 344.41699"
   enable-background="new 0 0 612 792"
   xml:space="preserve"
   inkscape:version="0.48.3.1 r9886"
   sodipodi:docname="compatibilidad_hardware.svg"><metadata
   id="metadata17"><rdf:RDF><cc:Work
       rdf:about=""><dc:format>image/svg+xml</dc:format><dc:type
         rdf:resource="http://purl.org/dc/dcmitype/StillImage" /></cc:Work></rdf:RDF></metadata><defs
   id="defs15" /><sodipodi:namedview
   pagecolor="#ffffff"
   bordercolor="#666666"
   borderopacity="1"
   objecttolerance="10"
   gridtolerance="10"
   guidetolerance="10"
   inkscape:pageopacity="0"
   inkscape:pageshadow="2"
   inkscape:window-width="640"
   inkscape:window-height="480"
   id="namedview13"
   showgrid="false"
   fit-margin-top="0"
   fit-margin-left="0"
   fit-margin-right="0"
   fit-margin-bottom="0"
   inkscape:zoom="0.2979798"
   inkscape:cx="178.906"
   inkscape:cy="172.512"
   inkscape:window-x="0"
   inkscape:window-y="27"
   inkscape:window-maximized="0"
   inkscape:current-layer="Layer_1" />
<g
   id="g3"
   transform="translate(-127.094,-224.095)">
	<polygon
   points="388.991,229.894 356.537,261.225 308.229,224.095 256.384,261.639 215.244,228.682 215.244,253.051 255.979,285.688 307.993,248.022 357.543,286.105 388.991,255.734 "
   id="polygon5"
   style="fill:#6d8d24" />
	<polygon
   points="388.991,271.378 356.537,302.729 308.229,265.592 256.384,303.127 215.244,270.17 215.244,294.547 255.979,327.176 307.993,289.507 357.543,327.589 388.991,297.231 "
   id="polygon7"
   style="fill:#6d8d24" />
	<polygon
   points="388.991,312.875 356.537,344.218 308.229,307.088 256.384,344.624 215.244,311.662 215.244,336.035 255.979,368.681 307.993,331.012 357.543,369.086 388.991,338.728 "
   id="polygon9"
   style="fill:#6d8d24" />
	<path
   d="m 127.094,377.325 v 149.212 h 89.537 v 41.975 h 179.067 v -41.975 h 89.537 V 377.325 H 127.094 z M 362.125,534.938 H 250.188 v -54.091 h 111.937 v 54.091 z m 89.537,-41.975 H 395.715 V 447.275 H 216.647 v 45.688 h -55.956 v -82.068 h 290.986 l -0.015,82.068 0,0 z"
   id="path11"
   inkscape:connector-curvature="0"
   style="fill:#6d8d24" />
</g>
</svg>