<?xml version="1.0" encoding="utf-8"?>
<!-- Generator: Adobe Illustrator 15.0.0, SVG Export Plug-In . SVG Version: 6.00 Build 0)  -->
<!DOCTYPE svg PUBLIC "-//W3C//DTD SVG 1.1//EN" "http://www.w3.org/Graphics/SVG/1.1/DTD/svg11.dtd">
<svg version="1.1" id="Layer_1" xmlns="http://www.w3.org/2000/svg" xmlns:xlink="http://www.w3.org/1999/xlink" x="0px" y="0px"
	 width="612px" height="792px" viewBox="0 0 612 792" enable-background="new 0 0 612 792" xml:space="preserve">
<g>
	<polygon fill="#6D8D24" points="307.993,248.022 357.543,286.105 388.991,255.734 388.991,229.894 356.537,261.225 
		308.229,224.095 256.384,261.639 215.244,228.682 215.244,253.051 255.979,285.688 	"/>
	<polygon fill="#6D8D24" points="307.993,289.507 357.543,327.589 388.991,297.231 388.991,271.378 356.537,302.729 
		308.229,265.592 256.384,303.127 215.244,270.17 215.244,294.547 255.979,327.176 	"/>
	<polygon fill="#6D8D24" points="307.993,331.012 357.543,369.086 388.991,338.728 388.991,312.875 356.537,344.218 
		308.229,307.088 256.384,344.624 215.244,311.662 215.244,336.035 255.979,368.681 	"/>
	<path fill="#6D8D24" d="M127.094,377.325v149.212h89.537v41.975h179.067v-41.975h89.537V377.325H127.094z M362.125,534.938H250.188
		v-54.091h111.937V534.938z M451.662,492.963h-55.947v-45.688H216.647v45.688h-55.956v-82.068h290.986L451.662,492.963
		L451.662,492.963z"/>
</g>
</svg>
