<?xml version="1.0" encoding="UTF-8" standalone="no"?>
<!-- Generator: Adobe Illustrator 15.0.0, SVG Export Plug-In . SVG Version: 6.00 Build 0)  -->

<svg
   xmlns:dc="http://purl.org/dc/elements/1.1/"
   xmlns:cc="http://creativecommons.org/ns#"
   xmlns:rdf="http://www.w3.org/1999/02/22-rdf-syntax-ns#"
   xmlns:svg="http://www.w3.org/2000/svg"
   xmlns="http://www.w3.org/2000/svg"
   xmlns:sodipodi="http://sodipodi.sourceforge.net/DTD/sodipodi-0.dtd"
   xmlns:inkscape="http://www.inkscape.org/namespaces/inkscape"
   version="1.1"
   id="Layer_1"
   x="0px"
   y="0px"
   width="285.54599"
   height="237.354"
   viewBox="0 0 285.54599 237.354"
   enable-background="new 0 0 612 792"
   xml:space="preserve"
   inkscape:version="0.48.3.1 r9886"
   sodipodi:docname="comunal.svg"><metadata
   id="metadata15"><rdf:RDF><cc:Work
       rdf:about=""><dc:format>image/svg+xml</dc:format><dc:type
         rdf:resource="http://purl.org/dc/dcmitype/StillImage" /></cc:Work></rdf:RDF></metadata><defs
   id="defs13" /><sodipodi:namedview
   pagecolor="#ffffff"
   bordercolor="#666666"
   borderopacity="1"
   objecttolerance="10"
   gridtolerance="10"
   guidetolerance="10"
   inkscape:pageopacity="0"
   inkscape:pageshadow="2"
   inkscape:window-width="640"
   inkscape:window-height="480"
   id="namedview11"
   showgrid="false"
   fit-margin-top="0"
   fit-margin-left="0"
   fit-margin-right="0"
   fit-margin-bottom="0"
   inkscape:zoom="0.2979798"
   inkscape:cx="142.773"
   inkscape:cy="118.677"
   inkscape:window-x="0"
   inkscape:window-y="27"
   inkscape:window-maximized="0"
   inkscape:current-layer="Layer_1" />
<g
   id="g3"
   transform="translate(-163.227,-277.323)">
	<rect
   x="163.22701"
   y="277.323"
   width="47.032001"
   height="47.032001"
   id="rect5"
   style="fill:#6d8d24" />
	<polygon
   points="237.511,419.562 270.123,419.562 270.123,513.608 297.301,513.608 297.301,392.384 210.333,392.384 210.333,487.498 190.406,487.498 190.406,368.529 421.594,368.529 421.594,487.498 401.668,487.498 401.668,392.384 314.699,392.384 314.699,513.608 341.867,513.608 341.867,419.562 374.488,419.562 374.488,514.677 448.773,514.677 448.773,341.351 163.227,341.351 163.227,514.677 237.511,514.677 "
   id="polygon7"
   style="fill:#6d8d24" />
	<rect
   x="401.73999"
   y="277.323"
   width="47.014"
   height="47.032001"
   id="rect9"
   style="fill:#6d8d24" />
</g>
</svg>