<?xml version="1.0" encoding="utf-8"?>
<!-- Generator: Adobe Illustrator 15.0.0, SVG Export Plug-In . SVG Version: 6.00 Build 0)  -->
<!DOCTYPE svg PUBLIC "-//W3C//DTD SVG 1.1//EN" "http://www.w3.org/Graphics/SVG/1.1/DTD/svg11.dtd">
<svg version="1.1" id="Layer_1" xmlns="http://www.w3.org/2000/svg" xmlns:xlink="http://www.w3.org/1999/xlink" x="0px" y="0px"
	 width="612px" height="792px" viewBox="0 0 612 792" enable-background="new 0 0 612 792" xml:space="preserve">
<g>
	<rect x="163.227" y="277.323" fill="#6D8D24" width="47.032" height="47.032"/>
	<polygon fill="#6D8D24" points="163.227,341.351 163.227,514.677 237.511,514.677 237.511,419.562 270.123,419.562 
		270.123,513.608 297.301,513.608 297.301,392.384 210.333,392.384 210.333,487.498 190.406,487.498 190.406,368.529 
		421.594,368.529 421.594,487.498 401.668,487.498 401.668,392.384 314.699,392.384 314.699,513.608 341.867,513.608 
		341.867,419.562 374.488,419.562 374.488,514.677 448.773,514.677 448.773,341.351 	"/>
	<rect x="401.74" y="277.323" fill="#6D8D24" width="47.014" height="47.032"/>
</g>
</svg>
