<?xml version="1.0" encoding="utf-8"?>
<!-- Generator: Adobe Illustrator 15.0.0, SVG Export Plug-In . SVG Version: 6.00 Build 0)  -->
<!DOCTYPE svg PUBLIC "-//W3C//DTD SVG 1.1//EN" "http://www.w3.org/Graphics/SVG/1.1/DTD/svg11.dtd">
<svg version="1.1" id="Layer_1" xmlns="http://www.w3.org/2000/svg" xmlns:xlink="http://www.w3.org/1999/xlink" x="0px" y="0px"
	 width="612px" height="792px" viewBox="0 0 612 792" enable-background="new 0 0 612 792" xml:space="preserve">
<g>
	<path fill="#6D8D24" d="M306.003,208.598c-46.532,0-84.386,37.853-84.386,84.386c0,46.528,37.854,84.372,84.386,84.372
		c46.528,0,84.38-37.848,84.38-84.372C390.383,246.451,352.531,208.598,306.003,208.598z M319.947,228.874
		c23.258,5.058,41.955,22.458,48.832,44.996l-11.561,11.555l-2.529-16.497l-24.18-3.701l-3.695-24.18l-16.512-2.529L319.947,228.874
		z M241.894,306.938l14.227-14.231l2.003,17.027l24.932,2.935l2.944,24.928l17.022,2.021l-16.132,16.142
		C264.357,348.888,246.96,330.195,241.894,306.938z M306.003,358.611c-1.384,0-2.728-0.111-4.089-0.203l28.186-28.176l-32.837-3.881
		l-2.944-24.918l-24.937-2.944l-3.866-32.846l-25.025,25.033c1.2-34.341,28.855-61.996,63.196-63.205l-19.681,19.69l31.85,4.864
		l3.695,24.175l24.17,3.692l4.873,31.849l22.838-22.837c0.088,1.356,0.207,2.699,0.207,4.083
		C371.635,329.175,342.189,358.611,306.003,358.611z"/>
	<rect x="222.902" y="446.296" fill="#C8B18B" width="166.195" height="27.576"/>
	<polygon fill="#6D8D24" points="303.665,545.467 222.754,486.119 222.754,524.046 303.665,583.402 389.246,520.613 
		389.246,482.677 	"/>
</g>
</svg>
