<?xml version="1.0" encoding="utf-8"?>
<!-- Generator: Adobe Illustrator 15.0.0, SVG Export Plug-In . SVG Version: 6.00 Build 0)  -->
<!DOCTYPE svg PUBLIC "-//W3C//DTD SVG 1.1//EN" "http://www.w3.org/Graphics/SVG/1.1/DTD/svg11.dtd">
<svg version="1.1" id="Layer_1" xmlns="http://www.w3.org/2000/svg" xmlns:xlink="http://www.w3.org/1999/xlink" x="0px" y="0px"
	 width="612px" height="792px" viewBox="0 0 612 792" enable-background="new 0 0 612 792" xml:space="preserve">
<g>
	<g>
		<rect x="213.027" y="204.775" fill="#6D8D24" width="30.551" height="30.551"/>
		<polygon fill="#6D8D24" points="213.027,246.363 213.027,358.955 261.281,358.955 261.281,297.168 282.466,297.168 
			282.466,358.259 300.124,358.259 300.124,279.516 243.628,279.516 243.628,341.302 230.684,341.302 230.684,264.021 
			380.861,264.021 380.861,341.302 367.916,341.302 367.916,279.516 311.422,279.516 311.422,358.259 329.068,358.259 
			329.068,297.168 350.26,297.168 350.26,358.955 398.514,358.955 398.514,246.363 		"/>
		<rect x="367.963" y="204.775" fill="#6D8D24" width="30.539" height="30.551"/>
	</g>
	<rect x="214.582" y="435.331" fill="#C8B18B" width="184.122" height="30.55"/>
	<polygon fill="#6D8D24" points="304.162,545.197 214.525,479.449 214.525,521.467 304.162,587.225 398.973,517.663 
		398.973,475.636 	"/>
</g>
</svg>
