<?xml version="1.0" encoding="UTF-8" standalone="no"?>
<!-- Generator: Adobe Illustrator 15.0.0, SVG Export Plug-In . SVG Version: 6.00 Build 0)  -->

<svg
   xmlns:dc="http://purl.org/dc/elements/1.1/"
   xmlns:cc="http://creativecommons.org/ns#"
   xmlns:rdf="http://www.w3.org/1999/02/22-rdf-syntax-ns#"
   xmlns:svg="http://www.w3.org/2000/svg"
   xmlns="http://www.w3.org/2000/svg"
   xmlns:sodipodi="http://sodipodi.sourceforge.net/DTD/sodipodi-0.dtd"
   xmlns:inkscape="http://www.inkscape.org/namespaces/inkscape"
   version="1.1"
   id="Layer_1"
   x="0px"
   y="0px"
   width="173.48599"
   height="402.789"
   viewBox="0 0 173.48599 402.789"
   enable-background="new 0 0 612 792"
   xml:space="preserve"
   inkscape:version="0.48.3.1 r9886"
   sodipodi:docname="descarga_canaima_caribay.svg"><metadata
   id="metadata3022"><rdf:RDF><cc:Work
       rdf:about=""><dc:format>image/svg+xml</dc:format><dc:type
         rdf:resource="http://purl.org/dc/dcmitype/StillImage" /></cc:Work></rdf:RDF></metadata><defs
   id="defs3020" /><sodipodi:namedview
   pagecolor="#ffffff"
   bordercolor="#666666"
   borderopacity="1"
   objecttolerance="10"
   gridtolerance="10"
   guidetolerance="10"
   inkscape:pageopacity="0"
   inkscape:pageshadow="2"
   inkscape:window-width="640"
   inkscape:window-height="480"
   id="namedview3018"
   showgrid="false"
   fit-margin-top="0"
   fit-margin-left="0"
   fit-margin-right="0"
   fit-margin-bottom="0"
   inkscape:zoom="0.2979798"
   inkscape:cx="86.743"
   inkscape:cy="201.395"
   inkscape:window-x="0"
   inkscape:window-y="27"
   inkscape:window-maximized="0"
   inkscape:current-layer="Layer_1" />
<g
   id="g3010"
   transform="translate(-219.257,-194.606)">
	<path
   d="m 367.109,281.931 10.742,-11.035 -76.809,-76.29 -78.127,77.18 10.8,10.973 33.851,-33.303 22.244,22.238 -32.934,32.947 32.39,32.39 -34.61,33.058 10.636,11.136 34.866,-33.303 1.173,0.587 32.64,34.183 11.141,-10.641 -32.885,-34.429 32.977,-32.98 -32.942,-32.938 21.854,-21.854 32.993,32.081 z m -43.804,22.594 -22.33,21.311 -21.262,-22.258 20.993,-20.988 0.337,0.331 0.336,-0.331 21.926,21.935 z m -21.931,-43.717 -0.337,-0.322 -0.341,0.322 -22.052,-22.047 21.802,-21.652 22.628,22.004 -21.7,21.695 z"
   id="path3012"
   inkscape:connector-curvature="0"
   style="fill:#6d8d24" />
	<rect
   x="219.31"
   y="454.52701"
   width="173.179"
   height="28.735001"
   id="rect3014"
   style="fill:#c8b18b" />
	<polygon
   points="303.566,597.395 392.743,531.967 392.743,492.437 303.566,557.864 219.257,496.024 219.257,535.544 "
   id="polygon3016"
   style="fill:#6d8d24" />
</g>
</svg>