<?xml version="1.0" encoding="UTF-8" standalone="no"?>
<!-- Generator: Adobe Illustrator 15.0.0, SVG Export Plug-In . SVG Version: 6.00 Build 0)  -->

<svg
   xmlns:dc="http://purl.org/dc/elements/1.1/"
   xmlns:cc="http://creativecommons.org/ns#"
   xmlns:rdf="http://www.w3.org/1999/02/22-rdf-syntax-ns#"
   xmlns:svg="http://www.w3.org/2000/svg"
   xmlns="http://www.w3.org/2000/svg"
   xmlns:sodipodi="http://sodipodi.sourceforge.net/DTD/sodipodi-0.dtd"
   xmlns:inkscape="http://www.inkscape.org/namespaces/inkscape"
   version="1.1"
   id="Layer_1"
   x="0px"
   y="0px"
   width="185.94601"
   height="382.45001"
   viewBox="0 0 185.94601 382.45001"
   enable-background="new 0 0 612 792"
   xml:space="preserve"
   inkscape:version="0.48.3.1 r9886"
   sodipodi:docname="descarga_canaima_comunitario.svg"><metadata
   id="metadata21"><rdf:RDF><cc:Work
       rdf:about=""><dc:format>image/svg+xml</dc:format><dc:type
         rdf:resource="http://purl.org/dc/dcmitype/StillImage" /></cc:Work></rdf:RDF></metadata><defs
   id="defs19" /><sodipodi:namedview
   pagecolor="#ffffff"
   bordercolor="#666666"
   borderopacity="1"
   objecttolerance="10"
   gridtolerance="10"
   guidetolerance="10"
   inkscape:pageopacity="0"
   inkscape:pageshadow="2"
   inkscape:window-width="640"
   inkscape:window-height="480"
   id="namedview17"
   showgrid="false"
   fit-margin-top="0"
   fit-margin-left="0"
   fit-margin-right="0"
   fit-margin-bottom="0"
   inkscape:zoom="0.2979798"
   inkscape:cx="92.973007"
   inkscape:cy="191.225"
   inkscape:window-x="0"
   inkscape:window-y="27"
   inkscape:window-maximized="0"
   inkscape:current-layer="Layer_1" />
<g
   id="g3"
   transform="translate(-213.02699,-204.77499)">
	<g
   id="g5">
		<rect
   x="213.02699"
   y="204.77499"
   width="30.551001"
   height="30.551001"
   id="rect7"
   style="fill:#6d8d24" />
		<polygon
   points="261.281,297.168 282.466,297.168 282.466,358.259 300.124,358.259 300.124,279.516 243.628,279.516 243.628,341.302 230.684,341.302 230.684,264.021 380.861,264.021 380.861,341.302 367.916,341.302 367.916,279.516 311.422,279.516 311.422,358.259 329.068,358.259 329.068,297.168 350.26,297.168 350.26,358.955 398.514,358.955 398.514,246.363 213.027,246.363 213.027,358.955 261.281,358.955 "
   id="polygon9"
   style="fill:#6d8d24" />
		<rect
   x="367.96301"
   y="204.77499"
   width="30.539"
   height="30.551001"
   id="rect11"
   style="fill:#6d8d24" />
	</g>
	<rect
   x="214.582"
   y="435.33099"
   width="184.12199"
   height="30.549999"
   id="rect13"
   style="fill:#c8b18b" />
	<polygon
   points="304.162,587.225 398.973,517.663 398.973,475.636 304.162,545.197 214.525,479.449 214.525,521.467 "
   id="polygon15"
   style="fill:#6d8d24" />
</g>
</svg>