<?xml version="1.0" encoding="UTF-8" standalone="no"?>
<!-- Generator: Adobe Illustrator 15.0.0, SVG Export Plug-In . SVG Version: 6.00 Build 0)  -->

<svg
   xmlns:dc="http://purl.org/dc/elements/1.1/"
   xmlns:cc="http://creativecommons.org/ns#"
   xmlns:rdf="http://www.w3.org/1999/02/22-rdf-syntax-ns#"
   xmlns:svg="http://www.w3.org/2000/svg"
   xmlns="http://www.w3.org/2000/svg"
   xmlns:sodipodi="http://sodipodi.sourceforge.net/DTD/sodipodi-0.dtd"
   xmlns:inkscape="http://www.inkscape.org/namespaces/inkscape"
   version="1.1"
   id="Layer_1"
   x="0px"
   y="0px"
   width="176.09599"
   height="401.27252"
   viewBox="0 0 176.09599 401.27252"
   enable-background="new 0 0 612 792"
   xml:space="preserve"
   inkscape:version="0.48.3.1 r9886"
   sodipodi:docname="descarga_canaima_educativo.svg"><metadata
   id="metadata3011"><rdf:RDF><cc:Work
       rdf:about=""><dc:format>image/svg+xml</dc:format><dc:type
         rdf:resource="http://purl.org/dc/dcmitype/StillImage" /></cc:Work></rdf:RDF></metadata><defs
   id="defs3009" /><sodipodi:namedview
   pagecolor="#ffffff"
   bordercolor="#666666"
   borderopacity="1"
   objecttolerance="10"
   gridtolerance="10"
   guidetolerance="10"
   inkscape:pageopacity="0"
   inkscape:pageshadow="2"
   inkscape:window-width="640"
   inkscape:window-height="480"
   id="namedview3007"
   showgrid="false"
   fit-margin-top="0"
   fit-margin-left="0"
   fit-margin-right="0"
   fit-margin-bottom="0"
   inkscape:zoom="0.2979798"
   inkscape:cx="88.048"
   inkscape:cy="200.637"
   inkscape:window-x="0"
   inkscape:window-y="27"
   inkscape:window-maximized="0"
   inkscape:current-layer="Layer_1" />
<g
   id="g2999"
   transform="translate(-217.952,-195.36449)">
	<rect
   x="218.005"
   y="451.621"
   width="175.784"
   height="29.167"
   id="rect3001"
   style="fill:#c8b18b" />
	<polygon
   points="303.53,596.637 394.048,530.225 394.048,490.101 303.53,556.513 217.952,493.741 217.952,533.856 "
   id="polygon3003"
   style="fill:#6d8d24" />
	<path
   d="m 385.331,312.853 -56.777,-35.156 v -0.054 -68.188 c -0.073,-8.224 -5.848,-14.154 -13.744,-14.09 -2.445,0.015 -4.93,0.625 -7.399,1.786 l -76.236,35.664 c -8.331,3.895 -13.202,13.344 -13.134,21.963 v 79.741 l -0.035,0.029 0.035,0.02 0.01,0.166 0.137,-0.073 63.18,39.476 c 6.805,5.291 18.089,6.086 26.239,1.84 l 74.66,-38.851 c 2.426,-1.259 4.412,-2.87 5.921,-4.798 4.84,-6.224 3.649,-14.409 -2.857,-19.475 z m -84.793,49.548 c -3.09,1.615 -7.872,1.143 -9.756,-0.342 l -58.789,-35.312 v -72.103 c -0.02,-2.396 2.504,-6.487 5.667,-7.961 l 75.603,-35.375 v 63.927 l -54.166,25.468 v -32.437 l 34.076,-16.546 v -11.167 l -45.146,22.314 v 52.751 l 43.346,28.435 43.976,-23.803 c -3.305,-2.201 -6.341,-4.612 -9.693,-6.853 l -34.624,18.595 -30.919,-21.543 55.001,-24.657 59.477,38.079 -74.053,38.53 z"
   id="path3005"
   inkscape:connector-curvature="0"
   style="fill:#6d8d24" />
</g>
</svg>