<?xml version="1.0" encoding="utf-8"?>
<!-- Generator: Adobe Illustrator 15.0.0, SVG Export Plug-In . SVG Version: 6.00 Build 0)  -->
<!DOCTYPE svg PUBLIC "-//W3C//DTD SVG 1.1//EN" "http://www.w3.org/Graphics/SVG/1.1/DTD/svg11.dtd">
<svg version="1.1" id="Layer_1" xmlns="http://www.w3.org/2000/svg" xmlns:xlink="http://www.w3.org/1999/xlink" x="0px" y="0px"
	 width="612px" height="792px" viewBox="0 0 612 792" enable-background="new 0 0 612 792" xml:space="preserve">
<g>
	<rect x="218.005" y="451.621" fill="#C8B18B" width="175.784" height="29.167"/>
	<polygon fill="#6D8D24" points="303.53,556.513 217.952,493.741 217.952,533.856 303.53,596.637 394.048,530.225 394.048,490.101 	
		"/>
	<path fill="#6D8D24" d="M385.331,312.853l-56.777-35.156v-0.054v-68.188c-0.073-8.224-5.848-14.154-13.744-14.09
		c-2.445,0.015-4.93,0.625-7.399,1.786l-76.236,35.664c-8.331,3.895-13.202,13.344-13.134,21.963v79.741l-0.035,0.029l0.035,0.02
		l0.01,0.166l0.137-0.073l63.18,39.476c6.805,5.291,18.089,6.086,26.239,1.84l74.66-38.851c2.426-1.259,4.412-2.87,5.921-4.798
		C393.028,326.104,391.837,317.919,385.331,312.853z M300.538,362.401c-3.09,1.615-7.872,1.143-9.756-0.342l-58.789-35.312v-72.103
		c-0.02-2.396,2.504-6.487,5.667-7.961l75.603-35.375v63.927l-54.166,25.468v-32.437l34.076-16.546v-11.167l-45.146,22.314v52.751
		l43.346,28.435l43.976-23.803c-3.305-2.201-6.341-4.612-9.693-6.853l-34.624,18.595l-30.919-21.543l55.001-24.657l59.477,38.079
		L300.538,362.401z"/>
</g>
</svg>
