<?xml version="1.0" encoding="utf-8"?>
<!-- Generator: Adobe Illustrator 15.0.0, SVG Export Plug-In . SVG Version: 6.00 Build 0)  -->
<!DOCTYPE svg PUBLIC "-//W3C//DTD SVG 1.1//EN" "http://www.w3.org/Graphics/SVG/1.1/DTD/svg11.dtd">
<svg version="1.1" id="Layer_1" xmlns="http://www.w3.org/2000/svg" xmlns:xlink="http://www.w3.org/1999/xlink" x="0px" y="0px"
	 width="612px" height="792px" viewBox="0 0 612 792" enable-background="new 0 0 612 792" xml:space="preserve">
<g>
	<path fill="#6D8D24" d="M367.109,281.931l10.742-11.035l-76.809-76.29l-78.127,77.18l10.8,10.973l33.851-33.303l22.244,22.238
		l-32.934,32.947l32.39,32.39l-34.61,33.058l10.636,11.136l34.866-33.303l1.173,0.587l32.64,34.183l11.141-10.641l-32.885-34.429
		l32.977-32.98l-32.942-32.938l21.854-21.854L367.109,281.931z M323.305,304.525l-22.33,21.311l-21.262-22.258l20.993-20.988
		l0.337,0.331l0.336-0.331L323.305,304.525z M301.374,260.808l-0.337-0.322l-0.341,0.322l-22.052-22.047l21.802-21.652
		l22.628,22.004L301.374,260.808z"/>
	<rect x="219.31" y="454.527" fill="#C8B18B" width="173.179" height="28.735"/>
	<polygon fill="#6D8D24" points="303.566,557.864 219.257,496.024 219.257,535.544 303.566,597.395 392.743,531.967 
		392.743,492.437 	"/>
</g>
</svg>
