<?xml version="1.0" encoding="utf-8"?>
<!-- Generator: Adobe Illustrator 15.0.0, SVG Export Plug-In . SVG Version: 6.00 Build 0)  -->
<!DOCTYPE svg PUBLIC "-//W3C//DTD SVG 1.1//EN" "http://www.w3.org/Graphics/SVG/1.1/DTD/svg11.dtd">
<svg version="1.1" id="Layer_1" xmlns="http://www.w3.org/2000/svg" xmlns:xlink="http://www.w3.org/1999/xlink" x="0px" y="0px"
	 width="612px" height="792px" viewBox="0 0 612 792" enable-background="new 0 0 612 792" xml:space="preserve">
<g>
	<rect x="242.178" y="385.563" fill="#6D8D24" width="126.734" height="22.87"/>
	<path fill="#6D8D24" d="M180.202,269.051v253.898h251.597V269.051H180.202z M399.688,298.896l-39.268,24.487l-46.391-28.934h85.658
		V298.896z M212.32,332.481l38.357,23.937l54.875-34.242l54.875,34.242l38.477-24.014V462.73l-38.477-22.342l-54.875,31.871
		l-54.875-31.871L212.32,462.66V332.481z M212.32,294.449h84.747l-46.39,28.934L212.32,299.46V294.449z M212.32,494.82
		l38.357-22.271l43.059,25.01H212.32V494.82z M317.361,497.559l43.059-25.01l39.268,22.785v2.225H317.361z"/>
</g>
</svg>
