<?xml version="1.0" encoding="UTF-8" standalone="no"?>
<!-- Generator: Adobe Illustrator 15.0.0, SVG Export Plug-In . SVG Version: 6.00 Build 0)  -->

<svg
   xmlns:dc="http://purl.org/dc/elements/1.1/"
   xmlns:cc="http://creativecommons.org/ns#"
   xmlns:rdf="http://www.w3.org/1999/02/22-rdf-syntax-ns#"
   xmlns:svg="http://www.w3.org/2000/svg"
   xmlns="http://www.w3.org/2000/svg"
   xmlns:sodipodi="http://sodipodi.sourceforge.net/DTD/sodipodi-0.dtd"
   xmlns:inkscape="http://www.inkscape.org/namespaces/inkscape"
   version="1.1"
   id="Layer_1"
   x="0px"
   y="0px"
   width="310.29514"
   height="328.56564"
   viewBox="0 0 310.29514 328.56564"
   enable-background="new 0 0 612 792"
   xml:space="preserve"
   inkscape:version="0.48.3.1 r9886"
   sodipodi:docname="educativo.svg"><metadata
   id="metadata9"><rdf:RDF><cc:Work
       rdf:about=""><dc:format>image/svg+xml</dc:format><dc:type
         rdf:resource="http://purl.org/dc/dcmitype/StillImage" /></cc:Work></rdf:RDF></metadata><defs
   id="defs7" /><sodipodi:namedview
   pagecolor="#ffffff"
   bordercolor="#666666"
   borderopacity="1"
   objecttolerance="10"
   gridtolerance="10"
   guidetolerance="10"
   inkscape:pageopacity="0"
   inkscape:pageshadow="2"
   inkscape:window-width="640"
   inkscape:window-height="480"
   id="namedview5"
   showgrid="false"
   fit-margin-top="0"
   fit-margin-left="0"
   fit-margin-right="0"
   fit-margin-bottom="0"
   inkscape:zoom="0.2979798"
   inkscape:cx="155.424"
   inkscape:cy="164.53463"
   inkscape:window-x="0"
   inkscape:window-y="27"
   inkscape:window-maximized="0"
   inkscape:current-layer="Layer_1" />
<path
   d="m 299.87,210.54701 -101.748,-63.003 v -0.095 -122.195004 c -0.138,-14.742 -10.485,-25.37300029 -24.644,-25.25300029 -4.376,0.034 -8.825,1.11499999 -13.262,3.19199999 L 23.597,67.109006 c -14.931,6.985 -23.666,23.914 -23.537,39.368004 v 142.905 l -0.06,0.051 0.06,0.034 0.017,0.292 0.249,-0.12 113.22,70.738 c 12.193,9.49 32.417,10.915 47.031,3.312 l 133.801,-69.64 c 4.342,-2.248 7.911,-5.147 10.605,-8.598 8.685,-11.153 6.54,-25.826 -5.113,-34.904 z m -151.966,88.808 c -5.526,2.9 -14.106,2.042 -17.487,-0.617 l -105.353,-63.291 v -129.21 c -0.034,-4.299 4.488,-11.627004 10.16,-14.270004 l 135.492,-63.394 V 143.14101 l -97.085,45.644 v -58.138 l 61.076,-29.646 V 80.974006 L 53.801,120.97701 v 94.527 l 77.685,50.969 78.804,-42.662 c -5.921,-3.947 -11.359,-8.266 -17.365,-12.281 l -62.053,33.328 -55.412,-38.607 98.568,-44.189 106.588,68.236 -132.712,69.057 z"
   id="path3"
   inkscape:connector-curvature="0"
   style="fill:#6d8d24" />
</svg>