<?xml version="1.0" encoding="utf-8"?>
<!-- Generator: Adobe Illustrator 15.0.0, SVG Export Plug-In . SVG Version: 6.00 Build 0)  -->
<!DOCTYPE svg PUBLIC "-//W3C//DTD SVG 1.1//EN" "http://www.w3.org/Graphics/SVG/1.1/DTD/svg11.dtd">
<svg version="1.1" id="Layer_1" xmlns="http://www.w3.org/2000/svg" xmlns:xlink="http://www.w3.org/1999/xlink" x="0px" y="0px"
	 width="612px" height="792px" viewBox="0 0 612 792" enable-background="new 0 0 612 792" xml:space="preserve">
<path fill="#6D8D24" d="M486.087,261.245v68.375h-15.369v-68.375H345.689v68.375h-15.387v-68.375h-0.06h-28.45h-0.042v68.375
	h-15.395v-68.375H161.328v68.375h-15.378v-68.375h-28.492v96.842h43.861V517.81h27.396v-86.907h69.14l-0.239,86.907h28.758V358.087
	h15.419h28.45h15.429V517.81h27.388v-86.907h69.14l-0.229,86.907h28.738V358.087h43.871v-96.842H486.087z M257.88,401.933h-68.017
	v-43.845h68.017V401.933z M257.88,329.62h-68.017v-39.89h68.017V329.62z M442.208,401.933h-68.034v-43.845h68.034V401.933z
	 M442.208,329.62h-68.034v-39.89h68.034V329.62z"/>
</svg>
