<?xml version="1.0" encoding="UTF-8" standalone="no"?>
<!-- Generator: Adobe Illustrator 15.0.0, SVG Export Plug-In . SVG Version: 6.00 Build 0)  -->

<svg
   xmlns:dc="http://purl.org/dc/elements/1.1/"
   xmlns:cc="http://creativecommons.org/ns#"
   xmlns:rdf="http://www.w3.org/1999/02/22-rdf-syntax-ns#"
   xmlns:svg="http://www.w3.org/2000/svg"
   xmlns="http://www.w3.org/2000/svg"
   xmlns:sodipodi="http://sodipodi.sourceforge.net/DTD/sodipodi-0.dtd"
   xmlns:inkscape="http://www.inkscape.org/namespaces/inkscape"
   version="1.1"
   id="Layer_1"
   x="0px"
   y="0px"
   width="327.32101"
   height="235.13"
   viewBox="0 0 327.32101 235.13"
   enable-background="new 0 0 612 792"
   xml:space="preserve"
   inkscape:version="0.48.3.1 r9886"
   sodipodi:docname="estar_conectado.svg"><metadata
   id="metadata9"><rdf:RDF><cc:Work
       rdf:about=""><dc:format>image/svg+xml</dc:format><dc:type
         rdf:resource="http://purl.org/dc/dcmitype/StillImage" /></cc:Work></rdf:RDF></metadata><defs
   id="defs7" /><sodipodi:namedview
   pagecolor="#ffffff"
   bordercolor="#666666"
   borderopacity="1"
   objecttolerance="10"
   gridtolerance="10"
   guidetolerance="10"
   inkscape:pageopacity="0"
   inkscape:pageshadow="2"
   inkscape:window-width="640"
   inkscape:window-height="480"
   id="namedview5"
   showgrid="false"
   fit-margin-top="0"
   fit-margin-left="0"
   fit-margin-right="0"
   fit-margin-bottom="0"
   inkscape:zoom="0.2979798"
   inkscape:cx="163.66"
   inkscape:cy="110.85314"
   inkscape:window-x="0"
   inkscape:window-y="27"
   inkscape:window-maximized="0"
   inkscape:current-layer="Layer_1" />
<path
   d="M 307.401,62.846 V 0 H 192.816 V 62.846 H 189.262 134.37 V 0 H 19.793 V 62.846 H 0 V 86.742 H 19.793 V 235.13 h 25.101 v -79.655 h 63.375 l -0.227,79.655 h 26.343 V 86.742 h 54.885 3.554 V 235.13 h 25.102 V 155.475 H 281.3 l -0.226,79.655 h 26.328 V 86.742 h 19.919 V 62.846 h -19.92 z M 108.254,128.914 H 45.909 V 88.752 h 62.345 v 40.162 z m 0,-66.28 H 45.909 V 26.082 h 62.345 v 36.552 z m 173.03,66.28 H 218.94 V 88.752 h 62.344 v 40.162 z m 0,-66.28 H 218.94 V 26.082 h 62.344 v 36.552 z"
   id="path3"
   inkscape:connector-curvature="0"
   style="fill:#6d8d24" />
</svg>