<?xml version="1.0" encoding="utf-8"?>
<!-- Generator: Adobe Illustrator 15.0.0, SVG Export Plug-In . SVG Version: 6.00 Build 0)  -->
<!DOCTYPE svg PUBLIC "-//W3C//DTD SVG 1.1//EN" "http://www.w3.org/Graphics/SVG/1.1/DTD/svg11.dtd">
<svg version="1.1" id="Layer_1" xmlns="http://www.w3.org/2000/svg" xmlns:xlink="http://www.w3.org/1999/xlink" x="0px" y="0px"
	 width="612px" height="792px" viewBox="0 0 612 792" enable-background="new 0 0 612 792" xml:space="preserve">
<path fill="#6D8D24" d="M449.741,341.281v-62.846H335.156v62.846h-3.554h-54.892v-62.846H162.133v62.846H142.34v23.896h19.793
	v148.388h25.101v-79.655h63.375l-0.227,79.655h26.343V365.177h54.885h3.554v148.388h25.102v-79.655h63.374l-0.226,79.655h26.328
	V365.177h19.919v-23.896H449.741z M250.594,407.349h-62.345v-40.162h62.345V407.349z M250.594,341.069h-62.345v-36.552h62.345
	V341.069z M423.624,407.349H361.28v-40.162h62.344V407.349z M423.624,341.069H361.28v-36.552h62.344V341.069z"/>
</svg>
