<?xml version="1.0" encoding="utf-8"?>
<!-- Generator: Adobe Illustrator 15.0.0, SVG Export Plug-In . SVG Version: 6.00 Build 0)  -->
<!DOCTYPE svg PUBLIC "-//W3C//DTD SVG 1.1//EN" "http://www.w3.org/Graphics/SVG/1.1/DTD/svg11.dtd">
<svg version="1.1" id="Layer_1" xmlns="http://www.w3.org/2000/svg" xmlns:xlink="http://www.w3.org/1999/xlink" x="0px" y="0px"
	 width="612px" height="792px" viewBox="0 0 612 792" enable-background="new 0 0 612 792" xml:space="preserve">
<g>
	<path fill="#6D8D24" d="M306,228.758c-92.214,0-167.242,75.02-167.242,167.242c0,92.214,75.028,167.242,167.242,167.242
		S473.242,488.214,473.242,396C473.242,303.777,398.214,228.758,306,228.758z M306,537.512
		c-78.026,0-141.513-63.485-141.513-141.512c0-78.034,63.487-141.513,141.513-141.513c78.026,0,141.512,63.479,141.512,141.513
		C447.512,474.026,384.026,537.512,306,537.512z"/>
	<path fill="#6D8D24" d="M323.104,388.21h81.124c-1.725-22.195-10.805-42.263-24.791-57.892L323.104,388.21z"/>
	<path fill="#6D8D24" d="M380.123,460.927c13.602-15.527,22.412-35.319,24.104-57.146h-79.701L380.123,460.927z"/>
	<path fill="#6D8D24" d="M368.648,319.816C351.613,305.787,329.787,297.37,306,297.37c-24.154,0-46.25,8.711-63.385,23.117
		l62.682,64.843L368.648,319.816z"/>
	<path fill="#6D8D24" d="M243.368,472.184c17.036,14.021,38.845,22.447,62.632,22.447c24.154,0,46.267-8.72,63.419-23.134
		l-62.682-64.843L243.368,472.184z"/>
	<path fill="#6D8D24" d="M207.772,403.78c1.742,22.188,10.805,42.271,24.808,57.9l56.334-57.9H207.772z"/>
	<path fill="#6D8D24" d="M231.894,331.065c-13.619,15.52-22.414,35.319-24.122,57.146h79.718L231.894,331.065z"/>
</g>
</svg>
