<?xml version="1.0" encoding="utf-8"?>
<!-- Generator: Adobe Illustrator 15.0.0, SVG Export Plug-In . SVG Version: 6.00 Build 0)  -->
<!DOCTYPE svg PUBLIC "-//W3C//DTD SVG 1.1//EN" "http://www.w3.org/Graphics/SVG/1.1/DTD/svg11.dtd">
<svg version="1.1" id="Layer_1" xmlns="http://www.w3.org/2000/svg" xmlns:xlink="http://www.w3.org/1999/xlink" x="0px" y="0px"
	 width="612px" height="792px" viewBox="0 0 612 792" enable-background="new 0 0 612 792" xml:space="preserve">
<path fill="#6D8D24" d="M305.996,260.399c-74.78,0-135.604,60.832-135.604,135.612c0,74.774,60.831,135.59,135.604,135.59
	c74.781,0,135.612-60.824,135.612-135.59C441.608,321.23,380.777,260.399,305.996,260.399z M328.414,292.984
	c37.375,8.128,67.417,36.093,78.474,72.312l-18.576,18.569l-4.063-26.511l-38.859-5.948l-5.939-38.859l-26.541-4.063
	L328.414,292.984z M202.977,418.437l22.855-22.871l3.219,27.364l40.074,4.717l4.731,40.061l27.356,3.248l-25.933,25.939
	C239.076,485.854,211.119,455.812,202.977,418.437z M305.996,501.479c-2.217,0-4.375-0.178-6.57-0.326l45.296-45.281l-52.771-6.236
	l-4.725-40.045l-40.074-4.732l-6.223-52.785l-40.207,40.23c1.928-55.188,46.37-99.631,101.551-101.574l-31.621,31.643l51.184,7.816
	l5.934,38.851l38.851,5.933l7.823,51.184l36.709-36.701c0.133,2.181,0.326,4.338,0.326,6.563
	C411.479,454.174,364.158,501.479,305.996,501.479z"/>
</svg>
