<?xml version="1.0" encoding="UTF-8" standalone="no"?>
<!-- Generator: Adobe Illustrator 15.0.0, SVG Export Plug-In . SVG Version: 6.00 Build 0)  -->

<svg
   xmlns:dc="http://purl.org/dc/elements/1.1/"
   xmlns:cc="http://creativecommons.org/ns#"
   xmlns:rdf="http://www.w3.org/1999/02/22-rdf-syntax-ns#"
   xmlns:svg="http://www.w3.org/2000/svg"
   xmlns="http://www.w3.org/2000/svg"
   xmlns:sodipodi="http://sodipodi.sourceforge.net/DTD/sodipodi-0.dtd"
   xmlns:inkscape="http://www.inkscape.org/namespaces/inkscape"
   version="1.1"
   id="Layer_1"
   x="0px"
   y="0px"
   width="250.47052"
   height="41.275002"
   viewBox="0 0 250.47052 41.275002"
   enable-background="new 0 0 257 50"
   xml:space="preserve"
   inkscape:version="0.48.3.1 r9886"
   sodipodi:docname="geo_canaima.svg"><metadata
   id="metadata37"><rdf:RDF><cc:Work
       rdf:about=""><dc:format>image/svg+xml</dc:format><dc:type
         rdf:resource="http://purl.org/dc/dcmitype/StillImage" /></cc:Work></rdf:RDF></metadata><defs
   id="defs35" /><sodipodi:namedview
   pagecolor="#ffffff"
   bordercolor="#666666"
   borderopacity="1"
   objecttolerance="10"
   gridtolerance="10"
   guidetolerance="10"
   inkscape:pageopacity="0"
   inkscape:pageshadow="2"
   inkscape:window-width="640"
   inkscape:window-height="480"
   id="namedview33"
   showgrid="false"
   fit-margin-top="0"
   fit-margin-left="0"
   fit-margin-right="0"
   fit-margin-bottom="0"
   inkscape:zoom="1.770428"
   inkscape:cx="125.235"
   inkscape:cy="20.638"
   inkscape:window-x="0"
   inkscape:window-y="27"
   inkscape:window-maximized="0"
   inkscape:current-layer="Layer_1" />
<g
   id="g3"
   transform="translate(-3.265,-4.363)">
	<g
   id="g5">
		<path
   d="m 194.407,10.727 c 0,-1.387 1.119,-2.509 2.507,-2.509 1.382,0 2.504,1.122 2.504,2.509 0,1.383 -1.122,2.504 -2.504,2.504 -1.388,0 -2.507,-1.121 -2.507,-2.504 z"
   id="path7"
   inkscape:connector-curvature="0"
   style="fill:#6d8d24" />
		<path
   d="M 110.317,20.69 H 121.3 c 0.199,0 0.361,-0.163 0.361,-0.364 v -4.332 c 0,-0.203 -0.162,-0.371 -0.361,-0.371 h -10.982 c -2.993,0 -5.427,2.289 -5.427,5.107 v 15.012 c 0,2.813 2.434,5.225 5.427,5.225 h 10.974 c 0.204,0 0.37,-0.164 0.37,-0.37 v -4.415 c 0,-0.205 -0.166,-0.374 -0.37,-0.374 h -10.974 c -0.195,0 -0.363,0.042 -0.363,-0.194 v -14.71 c -0.001,-0.202 0.167,-0.214 0.362,-0.214 z"
   id="path9"
   inkscape:connector-curvature="0"
   style="fill:#6d8d24" />
		<path
   d="m 194.411,15.618 -0.004,24.979 c 0,0.204 0.168,0.37 0.374,0.37 h 4.402 c 0.207,0 0.371,-0.166 0.371,-0.37 V 15.618 h -5.143 z"
   id="path11"
   inkscape:connector-curvature="0"
   style="fill:#6d8d24" />
		<path
   d="m 222.833,15.52 h -4.863 -0.116 v 20.963 h -2.447 V 15.52 h -12.019 l 0.012,25.07 c 0,0.208 0.159,0.376 0.355,0.376 h 4.144 c 0.192,0 0.35,-0.168 0.35,-0.376 l -0.007,-20.241 h 2.622 v 20.617 h 11.956 0.014 V 20.349 h 2.605 l 0.009,20.241 c 0,0.208 0.155,0.376 0.345,0.376 h 4.07 c 0.187,0 0.343,-0.168 0.343,-0.376 V 15.377 l -7.373,0.143 z"
   id="path13"
   inkscape:connector-curvature="0"
   style="fill:#6d8d24" />
		<path
   d="m 167.464,15.626 h -4.435 c -0.206,0 -0.376,0.164 -0.376,0.372 v 20.444 h -2.547 V 15.618 h -12.512 v 24.979 c 0,0.204 0.167,0.37 0.37,0.37 h 4.318 c 0.2,0 0.364,-0.166 0.364,-0.37 V 20.341 h 2.729 v 20.625 h 12.461 v -23.03 -1.938 c 0.002,-0.207 -0.166,-0.372 -0.372,-0.372 z"
   id="path15"
   inkscape:connector-curvature="0"
   style="fill:#6d8d24" />
		<path
   d="m 139.167,15.618 h -9.769 l -5.607,25.01 c -0.026,0.188 0.096,0.339 0.286,0.339 h 4.393 c 0.192,0 0.381,-0.15 0.44,-0.339 l 0.936,-4.245 h 8.872 l 0.951,4.252 c 0.061,0.19 0.246,0.341 0.442,0.341 h 4.39 c 0.192,0 0.313,-0.15 0.289,-0.341 l -5.623,-25.017 z m -8.351,16.292 2.469,-11.562 h 1.993 l 2.471,11.562 h -6.933 z"
   id="path17"
   inkscape:connector-curvature="0"
   style="fill:#6d8d24" />
		<path
   d="m 186.119,15.618 h -9.767 l -5.61,25.01 c -0.022,0.188 0.096,0.339 0.288,0.339 h 4.395 c 0.191,0 0.379,-0.15 0.437,-0.339 l 0.938,-4.245 h 8.874 l 0.949,4.252 c 0.06,0.19 0.247,0.341 0.44,0.341 h 4.389 c 0.196,0 0.314,-0.15 0.292,-0.341 l -5.625,-25.017 z m -8.35,16.292 2.469,-11.562 h 1.997 L 184.7,31.91 h -6.931 z"
   id="path19"
   inkscape:connector-curvature="0"
   style="fill:#6d8d24" />
		<path
   d="m 248.108,15.618 h -9.767 l -5.608,25.01 c -0.026,0.188 0.096,0.339 0.29,0.339 h 4.392 c 0.191,0 0.38,-0.15 0.438,-0.339 l 0.939,-4.245 h 8.873 l 0.951,4.252 c 0.056,0.19 0.244,0.341 0.437,0.341 h 4.393 c 0.192,0 0.312,-0.15 0.286,-0.341 l -5.624,-25.017 z m -8.348,16.292 2.471,-11.562 h 1.995 l 2.471,11.562 h -6.937 z"
   id="path21"
   inkscape:connector-curvature="0"
   style="fill:#6d8d24" />
	</g>
	<g
   enable-background="new    "
   id="g23">
		<path
   d="m 60.736,33.887 v -3.324 h 5.482 v 9.775 c -2.642,0.424 -4.781,0.637 -6.424,0.637 -2.936,0 -4.955,-0.785 -6.053,-2.354 -1.095,-1.57 -1.646,-4.062 -1.646,-7.477 0,-3.414 0.572,-5.88 1.716,-7.393 1.146,-1.516 3.091,-2.269 5.843,-2.269 1.717,0 3.574,0.193 5.567,0.58 l 0.996,0.194 -0.111,2.963 c -2.217,-0.241 -4.028,-0.358 -5.441,-0.358 -1.411,0 -2.406,0.165 -2.976,0.497 -0.572,0.332 -0.993,0.947 -1.259,1.841 -0.27,0.894 -0.402,2.425 -0.402,4.595 0,2.17 0.268,3.689 0.804,4.555 0.532,0.867 1.641,1.301 3.322,1.301 l 2.298,-0.109 v -3.654 h -1.716 z"
   id="path25"
   inkscape:connector-curvature="0"
   style="fill:#6d8d24" />
		<path
   d="M 69.815,40.643 V 21.814 H 82 v 3.323 h -8.361 v 4.403 h 6.698 v 3.268 h -6.698 v 4.511 H 82 v 3.324 H 69.815 z"
   id="path27"
   inkscape:connector-curvature="0"
   style="fill:#6d8d24" />
		<path
   d="m 98.018,38.635 c -1.174,1.562 -3.191,2.34 -6.049,2.34 -2.863,0 -4.88,-0.778 -6.048,-2.34 -1.175,-1.561 -1.761,-4.004 -1.761,-7.324 0,-3.321 0.586,-5.79 1.761,-7.406 1.168,-1.615 3.185,-2.421 6.048,-2.421 2.857,0 4.875,0.806 6.049,2.421 1.173,1.616 1.757,4.085 1.757,7.406 -0.001,3.32 -0.585,5.764 -1.757,7.324 z M 88.906,36.2 c 0.545,0.969 1.566,1.451 3.062,1.451 1.492,0 2.515,-0.482 3.061,-1.451 0.542,-0.972 0.814,-2.595 0.814,-4.872 0,-2.284 -0.276,-3.938 -0.83,-4.973 -0.557,-1.034 -1.57,-1.551 -3.045,-1.551 -1.479,0 -2.494,0.517 -3.049,1.551 -0.553,1.035 -0.829,2.688 -0.829,4.973 10e-4,2.277 0.27,3.9 0.816,4.872 z"
   id="path29"
   inkscape:connector-curvature="0"
   style="fill:#6d8d24" />
	</g>
	<path
   d="m 23.903,4.363 c -11.381,0 -20.638,9.258 -20.638,20.641 0,11.377 9.257,20.634 20.638,20.634 11.379,0 20.635,-9.259 20.635,-20.634 0,-11.383 -9.256,-20.641 -20.635,-20.641 z m 3.409,4.959 c 5.689,1.239 10.262,5.493 11.943,11.008 L 36.428,23.154 35.811,19.12 29.898,18.213 28.993,12.3 24.954,11.681 27.312,9.322 z m -19.088,19.091 3.479,-3.479 0.489,4.167 6.097,0.717 0.721,6.094 4.165,0.496 -3.946,3.948 C 13.716,38.672 9.463,34.101 8.224,28.413 z M 23.903,41.05 c -0.34,0 -0.665,-0.027 -0.999,-0.047 L 29.795,34.112 21.767,33.161 21.048,27.069 14.947,26.347 14,18.318 7.882,24.437 C 8.178,16.038 14.939,9.276 23.337,8.979 l -4.813,4.817 7.791,1.188 0.902,5.915 5.911,0.9 1.192,7.789 L 39.905,24 c 0.022,0.334 0.049,0.664 0.049,1.002 0,8.852 -7.201,16.048 -16.051,16.048 z"
   id="path31"
   inkscape:connector-curvature="0"
   style="fill:#6d8d24" />
</g>
</svg>