<?xml version="1.0" encoding="utf-8"?>
<!-- Generator: Adobe Illustrator 15.0.0, SVG Export Plug-In . SVG Version: 6.00 Build 0)  -->
<!DOCTYPE svg PUBLIC "-//W3C//DTD SVG 1.1//EN" "http://www.w3.org/Graphics/SVG/1.1/DTD/svg11.dtd">
<svg version="1.1" id="Layer_1" xmlns="http://www.w3.org/2000/svg" xmlns:xlink="http://www.w3.org/1999/xlink" x="0px" y="0px"
	 width="396px" height="512px" viewBox="58.5 0 396 512" enable-background="new 58.5 0 396 512" xml:space="preserve">
<g>
	<path d="M108.382,0h23.077v22.8h21.11V0h23.078v69.044H152.57v-23.12h-21.11v23.12h-23.077L108.382,0L108.382,0z"/>
	<path d="M205.994,22.896h-20.316V0h63.72v22.896h-20.325v46.148h-23.078L205.994,22.896L205.994,22.896z"/>
	<path d="M259.511,0h24.063l14.802,24.26L313.163,0h24.072v69.044h-22.982V34.822l-15.877,24.549h-0.397l-15.888-24.549v34.222
		h-22.58V0z"/>
	<path d="M348.72,0h23.084v46.222h32.453v22.822H348.72V0z"/>
</g>
<path d="M74.633,100.62l33.011,370.257L255.778,512l148.543-41.181l33.046-370.199H74.633z M368.511,188.488l-2.068,23.021
	l-0.911,10.207h-0.146H256h-0.157H191.76l4.15,46.501h59.933H256h93.162h12.237l-1.108,12.194L349.62,399.962l-0.683,7.672
	L256,433.391v0.009l-0.209,0.058l-93.02-25.823l-6.362-71.301h21.01h24.575l3.233,36.217l50.574,13.656l0.042-0.012v-0.003
	l50.647-13.67l5.271-58.895H256h-0.157H154.38l-11.161-125.139l-1.087-12.183h113.711H256h113.597L368.511,188.488z"/>
</svg>
