<?xml version="1.0" encoding="utf-8"?>
<!-- Generator: Adobe Illustrator 15.0.0, SVG Export Plug-In . SVG Version: 6.00 Build 0)  -->
<!DOCTYPE svg PUBLIC "-//W3C//DTD SVG 1.1//EN" "http://www.w3.org/Graphics/SVG/1.1/DTD/svg11.dtd">
<svg version="1.1" xmlns="http://www.w3.org/2000/svg" xmlns:xlink="http://www.w3.org/1999/xlink" x="0px" y="0px" width="535px"
	 height="133px" viewBox="0 0 535 133" enable-background="new 0 0 535 133" xml:space="preserve">
<g id="Logotipo">
</g>
<g id="Isotipo">
	<g>
		<path fill="#FFFFFF" d="M17.248,32.575l0.418-1.359c-0.234,0,1.841-3.188,1.608-3.188C4.086,42.726,5.403,62.405,12.707,76.551
			c5.093,9.867,14.415,19.104,25.501,24.083c5.135,2.303,12.998,4.42,21.251,4.25c17.652-0.368,30.027-8.712,37.011-22.312
			l0.411-1.063c-6.163,6.212-16.207,10.526-24.084,11.333C40.021,96.2,6.302,66.839,17.248,32.575z"/>
		<path fill="#FFFFFF" d="M60.755,37.591c4.328,6.963,12.594,13.083,25.5,10.335c3.259-0.694,10.64-6.248,11.922-9.188
			c-11.064,7.53-17.929,5.008-21.18,4.052c-0.716-0.205-2.373-0.949-3.917-1.877c-3.428-2.062-5.122-3.004-7.792-6.885
			c-1.466-2.132-2.933-5.519-3.414-7.459c-0.794-3.209-0.574-8.146,0.935-12.396c-5.008,4.469-5.78,13.104-4.102,18.814
			C58.92,33.709,60.11,36.55,60.755,37.591z"/>
		<path fill="#FFFFFF" d="M40.212,27.673c0.198-1.983,0.991-5.093,3.116-9.124c-6.113,7.708-9.824,14.062-8.783,24.708
			c1.423,14.627,15.244,29.227,29.751,31.167c17.326,2.317,30.247-4.965,34.709-16.291c-5.1,5.411-13.714,9.265-21.959,9.208
			C58.608,67.221,37.888,50.702,40.212,27.673z"/>
		<path fill="#FFFFFF" d="M505.723,13.386l-31.289,43.331l-2.832-11.334h-20.543c0,0,2.039,10.314,3.541,15.584
			c1.488,5.206,4.137,10.391,4.25,15.584c0.129,5.942-2.982,17.099-2.982,17.099l19.984-0.099c0,0,2.152-10.704,4.25-15.584
			c0.828-1.941,2.465-3.506,3.541-4.958c3.314-4.484,43.918-59.502,43.918-59.502L505.723,13.386z"/>
		<path fill="#FFFFFF" d="M464.369,24.989c-4.393-2.642-14.834-1.501-23.766-1.501H426.77c-8.664,0-13.793-0.574-14.67,2.769
			c-2.707,10.328-14.168,67.294-14.168,67.294h18.418l12.041-52.418h9.918c11.475,0,32.562-0.312,32.562-0.312
			S468.398,27.419,464.369,24.989z"/>
		<path fill="#FFFFFF" d="M393.857,30.563c-3.859-5.383-11.764-7.253-17-7.792c-13.904-1.423-25.479,2.296-31.875,7.084
			c-1.934,1.445-3.543,2.607-4.959,4.25c-0.51,0.595-1.062,1.261-1.537,1.948c-0.41,0.581-0.9,0.978-1.297,1.594
			c-0.588,0.892-1.211,2.579-1.947,4.073c-0.588,1.197-1.148,2.607-1.594,3.719c-3.84,9.591-7.756,27.491-4.25,36.834
			c0.518,1.382,1.672,3.131,2.068,3.662c0.496,0.666,0.949,1.438,1.473,2.005c1.92,2.069,4.762,3.528,7.793,4.25
			c15.35,3.662,46.043,2.125,46.043,2.125l3.762-16.66c0,0-21.721,0.978-32.096-0.34c-1.553-0.198-5.873-0.418-8.09-2.359
			c-1.928-1.686-4.201-5.674-2.535-8.266c1.182-1.849,5.941-1.297,9.916-1.417c12.785-0.39,36.125,0,36.125,0
			s4.471-19.877,2.125-28.334C395.402,34.856,394.893,32.001,393.857,30.563z M378.629,50.518l-27.449-0.177
			c0,0-0.311-11.858,15.691-11.355c5.666,0.177,7.656,0.949,9.811,4.271C379.203,47.153,378.629,50.518,378.629,50.518z"/>
		<path fill="#FFFFFF" d="M311.512,23.423l-12.75,53.127c0,0-7.055,0.049-9.209,0c-6.799-0.156-9.031-0.383-10.625-3.542
			c-1.678-3.322-0.07-7.551,0.709-12.042c2.174-12.538,7.402-37.649,7.402-37.649l-18.502,0.17c0,0-3.522,16.129-5.193,24.02
			c-2.366,11.15-7.402,27.562-2.125,37.543c5.44,10.278,18.226,8.5,32.583,8.5h20.543c5.072-23.022,15.023-70.233,15.023-70.233
			L311.512,23.423z"/>
		<path fill="#FFFFFF" d="M252.718,31.215c-1.09-7.919-6.254-16.526-11.921-20.131c-0.234-0.142-1.247-0.95-1.538-1.12
			c-4.193-2.429-10.908-4.477-15.583-4.958c-24.105-2.472-38.485,8.238-46.751,22.667c-3.252,5.667-5.405,11.858-7.084,18.418
			c-1.856,7.267-3.188,16.079-2.125,24.083c0.637,4.796,3.272,11.61,7.084,15.584c9.385,9.783,27.788,8.5,47.459,8.5
			c6.028,0,20.486-0.12,24.849-0.233c1.41-0.042,5.455-16.505,5.093-17.036c-0.347-0.411-5.164,0.163-10.66-0.333
			C246.931,62.418,254.759,46.048,252.718,31.215z M227.926,57.424c-1.785,6.326-3.542,12.722-5.667,18.417
			c-14.316-0.084-27.612,1.871-31.876-7.083c-2.408-5.065-1.325-11.922,0-18.417c1.778-8.749,3.478-15.103,8.501-20.543
			c3.881-4.2,13.649-9.35,24.084-5.666c3.463,1.225,8.833,7.055,9.208,13.458C232.523,43.576,229.796,50.78,227.926,57.424z"/>
		<path fill="#FFFFFF" d="M142.215,40.424h19.834c1.254-5.355,2.444-11.497,3.634-16.916c-6.97,0-12.871-0.085-19.218-0.085
			C144.928,28.587,143.752,34.487,142.215,40.424z"/>
		<path fill="#FFFFFF" d="M133.715,77.966c-2.925,13.757-3.308,28.037-18.417,26.209c-1.445,5.313-3.28,12.432-4.902,18.361
			c6.198,0.128,11.901,0.602,16.944,0.057c3.103-0.34,8.706-1.679,9.917-2.834c0.489-0.467,0.829-0.248,1.417-0.708
			c6.573-5.135,8.195-12.233,10.625-21.959c3.882-15.541,8.833-37.869,11.333-51.71h-19.125
			C140.537,48.57,135.408,70.02,133.715,77.966z"/>
	</g>
</g>
</svg>
