<?xml version="1.0" encoding="utf-8"?>
<!-- Generator: Adobe Illustrator 15.0.0, SVG Export Plug-In . SVG Version: 6.00 Build 0)  -->
<!DOCTYPE svg PUBLIC "-//W3C//DTD SVG 1.1//EN" "http://www.w3.org/Graphics/SVG/1.1/DTD/svg11.dtd">
<svg version="1.1" id="Layer_1" xmlns="http://www.w3.org/2000/svg" xmlns:xlink="http://www.w3.org/1999/xlink" x="0px" y="0px"
	 width="394.48px" height="505.475px" viewBox="0 0 394.48 505.475" enable-background="new 0 0 394.48 505.475"
	 xml:space="preserve">
<g>
	<polygon fill="#FFFFFF" points="149.504,60.345 119.934,60.345 119.934,40.077 149.504,40.077 149.504,17.899 97.755,17.899 
		97.755,80.583 149.504,80.583 	"/>
	<path fill="#FFFFFF" d="M223.372,60.345L202.7,40.077h20.672V17.899H171.62c0,0,0,11.132,0,22.178
		c6.923,6.924,10.535,10.238,20.548,20.252c-5.853,0-20.548,0.021-20.548,0.02v20.234h51.752V60.345z"/>
	<path fill="#FFFFFF" d="M296.726,60.345l-20.674-20.268h20.674V17.899h-51.758c0,0,0,11.132,0,22.178
		c6.924,6.924,10.537,10.238,20.551,20.252c-5.852,0-20.551,0.021-20.551,0.02v20.234h51.758V60.345z"/>
	<path fill="#FFFFFF" d="M29.595,110.375l31.432,340.524l136.212,36.678l136.209-36.678l31.438-340.524H29.595z M297.38,220.735
		l-100.263,42.867l-0.24,0.104h0.24h96.722l-11.09,127.523l-85.478,24.951l-0.155-0.047v0.047l-85.94-25.412l-5.544-64.225h0.149
		h42.358h0.15l2.772,33.268l45.666,11.529l0.389-0.109v0.045l47.283-13.314l3.234-53.596l-50.517-0.162l-94.257-0.301l-3.234-40.197
		l97.491-40.604l5.683-2.367h-5.683H95.929l-5.082-41.122h106.27h104.421L297.38,220.735z"/>
</g>
</svg>
