<?xml version="1.0" encoding="UTF-8" standalone="no"?>
<!-- Generator: Adobe Illustrator 15.0.0, SVG Export Plug-In . SVG Version: 6.00 Build 0)  -->

<svg
   xmlns:dc="http://purl.org/dc/elements/1.1/"
   xmlns:cc="http://creativecommons.org/ns#"
   xmlns:rdf="http://www.w3.org/1999/02/22-rdf-syntax-ns#"
   xmlns:svg="http://www.w3.org/2000/svg"
   xmlns="http://www.w3.org/2000/svg"
   xmlns:sodipodi="http://sodipodi.sourceforge.net/DTD/sodipodi-0.dtd"
   xmlns:inkscape="http://www.inkscape.org/namespaces/inkscape"
   version="1.1"
   id="Layer_1"
   x="0px"
   y="0px"
   width="335.29102"
   height="469.67801"
   viewBox="0 0 335.29101 469.678"
   enable-background="new 0 0 394.48 505.475"
   xml:space="preserve"
   inkscape:version="0.48.3.1 r9886"
   sodipodi:docname="logo_css3.svg"><metadata
   id="metadata17"><rdf:RDF><cc:Work
       rdf:about=""><dc:format>image/svg+xml</dc:format><dc:type
         rdf:resource="http://purl.org/dc/dcmitype/StillImage" /></cc:Work></rdf:RDF></metadata><defs
   id="defs15" /><sodipodi:namedview
   pagecolor="#ffffff"
   bordercolor="#666666"
   borderopacity="1"
   objecttolerance="10"
   gridtolerance="10"
   guidetolerance="10"
   inkscape:pageopacity="0"
   inkscape:pageshadow="2"
   inkscape:window-width="640"
   inkscape:window-height="480"
   id="namedview13"
   showgrid="false"
   fit-margin-top="0"
   fit-margin-left="0"
   fit-margin-right="0"
   fit-margin-bottom="0"
   inkscape:zoom="0.46688758"
   inkscape:cx="167.645"
   inkscape:cy="234.8395"
   inkscape:window-x="0"
   inkscape:window-y="27"
   inkscape:window-maximized="0"
   inkscape:current-layer="Layer_1" />
<g
   id="g3"
   transform="translate(-29.595003,-17.899)">
	<polygon
   points="149.504,40.077 149.504,17.899 97.755,17.899 97.755,80.583 149.504,80.583 149.504,60.345 119.934,60.345 119.934,40.077 "
   id="polygon5"
   style="fill:#ffffff" />
	<path
   d="M 223.372,60.345 202.7,40.077 h 20.672 V 17.899 H 171.62 c 0,0 0,11.132 0,22.178 6.923,6.924 10.535,10.238 20.548,20.252 -5.853,0 -20.548,0.021 -20.548,0.02 v 20.234 h 51.752 V 60.345 z"
   id="path7"
   inkscape:connector-curvature="0"
   style="fill:#ffffff" />
	<path
   d="M 296.726,60.345 276.052,40.077 h 20.674 V 17.899 h -51.758 c 0,0 0,11.132 0,22.178 6.924,6.924 10.537,10.238 20.551,20.252 -5.852,0 -20.551,0.021 -20.551,0.02 v 20.234 h 51.758 V 60.345 z"
   id="path9"
   inkscape:connector-curvature="0"
   style="fill:#ffffff" />
	<path
   d="m 29.595,110.375 31.432,340.524 136.212,36.678 136.209,-36.678 31.438,-340.524 H 29.595 z m 267.785,110.36 -100.263,42.867 -0.24,0.104 h 0.24 96.722 l -11.09,127.523 -85.478,24.951 -0.155,-0.047 v 0.047 l -85.94,-25.412 -5.544,-64.225 h 0.149 42.358 0.15 l 2.772,33.268 45.666,11.529 0.389,-0.109 v 0.045 l 47.283,-13.314 3.234,-53.596 -50.517,-0.162 -94.257,-0.301 -3.234,-40.197 97.491,-40.604 5.683,-2.367 H 197.116 95.929 l -5.082,-41.122 h 106.27 104.421 l -4.158,41.122 z"
   id="path11"
   inkscape:connector-curvature="0"
   style="fill:#ffffff" />
</g>
</svg>