<?xml version="1.0" encoding="utf-8"?>
<!-- Generator: Adobe Illustrator 15.0.0, SVG Export Plug-In . SVG Version: 6.00 Build 0)  -->
<!DOCTYPE svg PUBLIC "-//W3C//DTD SVG 1.1//EN" "http://www.w3.org/Graphics/SVG/1.1/DTD/svg11.dtd">
<svg version="1.1" id="Layer_1" xmlns="http://www.w3.org/2000/svg" xmlns:xlink="http://www.w3.org/1999/xlink" x="0px" y="0px"
	 width="612px" height="792px" viewBox="0 0 612 792" enable-background="new 0 0 612 792" xml:space="preserve">
<g>
	<path fill="#6D8D24" d="M329.024,528.738v-34.323H478.08V229.859H132.329v264.556h149.054v34.323H135.242v33.402h344.429v-33.402
		H329.024z M168.412,458.349V265.943h273.584v192.405H168.412z"/>
	<path fill="#6D8D24" d="M198.481,437.299h213.446V286.966H198.481V437.299z M305.99,305.996c30.658,0,55.498,24.849,55.498,55.489
		c0,30.667-24.857,55.516-55.498,55.516c-30.667,0-55.506-24.866-55.506-55.516C250.484,330.844,275.332,305.996,305.99,305.996z"/>
	<path fill="#6D8D24" d="M305.99,333.74c15.33,0,27.763,12.433,27.763,27.762c0,15.33-12.433,27.762-27.763,27.762
		c-15.338,0-27.762-12.433-27.762-27.762C278.229,346.173,290.652,333.74,305.99,333.74z"/>
</g>
</svg>
