<?xml version="1.0" encoding="utf-8"?>
<!-- Generator: Adobe Illustrator 15.0.0, SVG Export Plug-In . SVG Version: 6.00 Build 0)  -->
<!DOCTYPE svg PUBLIC "-//W3C//DTD SVG 1.1//EN" "http://www.w3.org/Graphics/SVG/1.1/DTD/svg11.dtd">
<svg version="1.1" id="Layer_1" xmlns="http://www.w3.org/2000/svg" xmlns:xlink="http://www.w3.org/1999/xlink" x="0px" y="0px"
	 width="612px" height="792px" viewBox="0 0 612 792" enable-background="new 0 0 612 792" xml:space="preserve">
<g>
	<path fill="#6D8D24" d="M353.125,525.73L223.684,396.287l129.441-129.444l129.438,129.444L353.125,525.73z M263.452,396.287
		l89.673,89.676l89.676-89.676l-89.676-89.676L263.452,396.287z"/>
	<g>
		<polygon fill="#6D8D24" points="286.285,458.885 259.216,485.951 169.534,396.287 259.216,306.611 286.291,333.68 
			306.172,313.805 259.216,266.843 129.772,396.287 259.216,525.725 306.172,478.766 		"/>
	</g>
	<g>
		<path fill="#6D8D24" d="M370.29,445.135h-34.324v-31.683h-31.688v-34.321h31.688v-31.691h34.324v31.691h31.683v34.321H370.29
			V445.135z M346.528,434.571h13.205V402.89h31.683v-13.208h-31.683V358h-13.205v31.682h-31.682v13.208h31.682V434.571z"/>
	</g>
</g>
</svg>
