<?xml version="1.0" encoding="UTF-8" standalone="no"?>
<!-- Generator: Adobe Illustrator 15.0.0, SVG Export Plug-In . SVG Version: 6.00 Build 0)  -->

<svg
   xmlns:dc="http://purl.org/dc/elements/1.1/"
   xmlns:cc="http://creativecommons.org/ns#"
   xmlns:rdf="http://www.w3.org/1999/02/22-rdf-syntax-ns#"
   xmlns:svg="http://www.w3.org/2000/svg"
   xmlns="http://www.w3.org/2000/svg"
   xmlns:sodipodi="http://sodipodi.sourceforge.net/DTD/sodipodi-0.dtd"
   xmlns:inkscape="http://www.inkscape.org/namespaces/inkscape"
   version="1.1"
   id="Layer_1"
   x="0px"
   y="0px"
   width="240.248"
   height="224.13699"
   viewBox="0 0 240.248 224.13699"
   enable-background="new 0 0 612 792"
   xml:space="preserve"
   inkscape:version="0.48.3.1 r9886"
   sodipodi:docname="musica_tmoviles.svg"><metadata
   id="metadata3013"><rdf:RDF><cc:Work
       rdf:about=""><dc:format>image/svg+xml</dc:format><dc:type
         rdf:resource="http://purl.org/dc/dcmitype/StillImage" /></cc:Work></rdf:RDF></metadata><defs
   id="defs3011" /><sodipodi:namedview
   pagecolor="#ffffff"
   bordercolor="#666666"
   borderopacity="1"
   objecttolerance="10"
   gridtolerance="10"
   guidetolerance="10"
   inkscape:pageopacity="0"
   inkscape:pageshadow="2"
   inkscape:window-width="640"
   inkscape:window-height="480"
   id="namedview3009"
   showgrid="false"
   fit-margin-top="0"
   fit-margin-left="0"
   fit-margin-right="0"
   fit-margin-bottom="0"
   inkscape:zoom="0.2979798"
   inkscape:cx="120.124"
   inkscape:cy="112.069"
   inkscape:window-x="0"
   inkscape:window-y="27"
   inkscape:window-maximized="0"
   inkscape:current-layer="Layer_1" />
<g
   id="g2997"
   transform="translate(-185.876,-283.932)">
	<path
   d="M 264.296,487.888 V 431.16 h -56.722 l -0.013,56.728 h 56.735 z m -43.615,-43.604 h 30.496 v 30.484 h -30.496 v -30.484 z"
   id="path2999"
   inkscape:connector-curvature="0"
   style="fill:#6d8d24" />
	<polygon
   points="243.12,452.33 228.739,452.336 228.739,466.723 243.131,466.723 "
   id="polygon3001"
   style="fill:#6d8d24" />
	<path
   d="m 426.123,410.984 h -82.57 V 283.932 H 185.876 v 224.137 h 1.517 14.514 82.57 v -97.084 h -82.57 V 299.969 h 125.615 v 208.1 h 1.518 14.514 82.57 v -97.085 z m -154.764,13.113 v 70.854 h -69.452 v -70.848 l 69.452,-0.006 z m 141.647,70.853 h -69.453 v -70.848 l 69.453,-0.006 v 70.854 z"
   id="path3003"
   inkscape:connector-curvature="0"
   style="fill:#6d8d24" />
	<path
   d="M 405.941,487.888 V 431.16 H 349.22 l -0.012,56.728 h 56.733 z M 362.34,444.284 h 30.484 v 30.484 H 362.34 v -30.484 z"
   id="path3005"
   inkscape:connector-curvature="0"
   style="fill:#6d8d24" />
	<polygon
   points="384.766,452.33 370.385,452.336 370.385,466.723 384.777,466.723 "
   id="polygon3007"
   style="fill:#6d8d24" />
</g>
</svg>