<?xml version="1.0" encoding="utf-8"?>
<!-- Generator: Adobe Illustrator 15.0.0, SVG Export Plug-In . SVG Version: 6.00 Build 0)  -->
<!DOCTYPE svg PUBLIC "-//W3C//DTD SVG 1.1//EN" "http://www.w3.org/Graphics/SVG/1.1/DTD/svg11.dtd">
<svg version="1.1" id="Layer_1" xmlns="http://www.w3.org/2000/svg" xmlns:xlink="http://www.w3.org/1999/xlink" x="0px" y="0px"
	 width="612px" height="792px" viewBox="0 0 612 792" enable-background="new 0 0 612 792" xml:space="preserve">
<g>
	<path fill="#6D8D24" d="M264.296,487.888V431.16h-56.722l-0.013,56.728H264.296z M220.681,444.284h30.496v30.484h-30.496V444.284z"
		/>
	<polygon fill="#6D8D24" points="228.739,452.336 228.739,466.723 243.131,466.723 243.12,452.33 	"/>
	<path fill="#6D8D24" d="M426.123,410.984h-82.57V283.932H185.876v224.137h1.517h14.514h82.57v-97.084h-82.57V299.969h125.615v208.1
		h1.518h14.514h82.57V410.984z M271.359,424.097v70.854h-69.452v-70.848L271.359,424.097z M413.006,494.95h-69.453v-70.848
		l69.453-0.006V494.95z"/>
	<path fill="#6D8D24" d="M405.941,487.888V431.16h-56.721l-0.012,56.728H405.941z M362.34,444.284h30.484v30.484H362.34V444.284z"/>
	<polygon fill="#6D8D24" points="370.385,452.336 370.385,466.723 384.777,466.723 384.766,452.33 	"/>
</g>
</svg>
