<?xml version="1.0" encoding="UTF-8" standalone="no"?>
<!-- Generator: Adobe Illustrator 15.0.0, SVG Export Plug-In . SVG Version: 6.00 Build 0)  -->

<svg
   xmlns:dc="http://purl.org/dc/elements/1.1/"
   xmlns:cc="http://creativecommons.org/ns#"
   xmlns:rdf="http://www.w3.org/1999/02/22-rdf-syntax-ns#"
   xmlns:svg="http://www.w3.org/2000/svg"
   xmlns="http://www.w3.org/2000/svg"
   xmlns:sodipodi="http://sodipodi.sourceforge.net/DTD/sodipodi-0.dtd"
   xmlns:inkscape="http://www.inkscape.org/namespaces/inkscape"
   version="1.1"
   id="Layer_1"
   x="0px"
   y="0px"
   width="271.12799"
   height="271.121"
   viewBox="0 0 271.12799 271.121"
   enable-background="new 0 0 612 792"
   xml:space="preserve"
   inkscape:version="0.48.3.1 r9886"
   sodipodi:docname="navegando_web.svg"><metadata
   id="metadata3022"><rdf:RDF><cc:Work
       rdf:about=""><dc:format>image/svg+xml</dc:format><dc:type
         rdf:resource="http://purl.org/dc/dcmitype/StillImage" /></cc:Work></rdf:RDF></metadata><defs
   id="defs3020" /><sodipodi:namedview
   pagecolor="#ffffff"
   bordercolor="#666666"
   borderopacity="1"
   objecttolerance="10"
   gridtolerance="10"
   guidetolerance="10"
   inkscape:pageopacity="0"
   inkscape:pageshadow="2"
   inkscape:window-width="640"
   inkscape:window-height="480"
   id="namedview3018"
   showgrid="false"
   fit-margin-top="0"
   fit-margin-left="0"
   fit-margin-right="0"
   fit-margin-bottom="0"
   inkscape:zoom="0.2979798"
   inkscape:cx="135.564"
   inkscape:cy="135.56"
   inkscape:window-x="0"
   inkscape:window-y="27"
   inkscape:window-maximized="0"
   inkscape:current-layer="Layer_1" />
<path
   d="M 135.567,0 C 60.824,0 0,60.817 0,135.554 c 0,74.75 60.824,135.567 135.567,135.567 74.75,0 135.561,-60.817 135.561,-135.567 C 271.128,60.818 210.31,0 135.567,0 z m 0,17.607 c 65.045,0 117.961,52.922 117.961,117.961 0,11.555 -1.74,22.678 -4.84,33.232 L 136.431,56.411 22.87,170.431 C 19.457,159.41 17.606,147.705 17.606,135.568 17.6,70.522 70.515,17.607 135.567,17.607 z m -9.464,190.34 V 253.05 C 102.808,251.193 81.454,242.523 63.922,229.07 l 71.975,-72.427 71.878,72.009 c -17.641,13.693 -39.201,22.521 -62.75,24.405 v -45.103 h -18.922 v -0.007 z m 96.818,6.613 -87.025,-87.168 -87.217,87.676 C 42.018,207.803 36.205,199.792 31.518,191.047 L 136.43,85.669 240.289,189.641 c -4.717,9.074 -10.569,17.408 -17.368,24.919 z"
   id="path3016"
   inkscape:connector-curvature="0"
   style="fill:#6d8d24" />
</svg>