<?xml version="1.0" encoding="utf-8"?>
<!-- Generator: Adobe Illustrator 15.0.0, SVG Export Plug-In . SVG Version: 6.00 Build 0)  -->
<!DOCTYPE svg PUBLIC "-//W3C//DTD SVG 1.1//EN" "http://www.w3.org/Graphics/SVG/1.1/DTD/svg11.dtd">
<svg version="1.1" id="Layer_1" xmlns="http://www.w3.org/2000/svg" xmlns:xlink="http://www.w3.org/1999/xlink" x="0px" y="0px"
	 width="612px" height="792px" viewBox="0 0 612 792" enable-background="new 0 0 612 792" xml:space="preserve">
<path fill="#6D8D24" d="M306.003,260.439c-74.743,0-135.567,60.817-135.567,135.554c0,74.75,60.824,135.567,135.567,135.567
	c74.75,0,135.561-60.817,135.561-135.567C441.564,321.257,380.746,260.439,306.003,260.439z M306.003,278.046
	c65.045,0,117.961,52.922,117.961,117.961c0,11.555-1.74,22.678-4.84,33.232L306.867,316.85L193.306,430.87
	c-3.413-11.021-5.264-22.726-5.264-34.863C188.036,330.961,240.951,278.046,306.003,278.046z M296.539,468.386v45.103
	c-23.295-1.857-44.649-10.527-62.181-23.98l71.975-72.427l71.878,72.009c-17.641,13.693-39.201,22.521-62.75,24.405v-45.103h-18.922
	V468.386z M393.357,474.999l-87.025-87.168l-87.217,87.676c-6.661-7.265-12.474-15.276-17.161-24.021l104.912-105.378
	L410.725,450.08C406.008,459.154,400.156,467.488,393.357,474.999z"/>
</svg>
