<?xml version="1.0" encoding="utf-8"?>
<!-- Generator: Adobe Illustrator 15.0.0, SVG Export Plug-In . SVG Version: 6.00 Build 0)  -->
<!DOCTYPE svg PUBLIC "-//W3C//DTD SVG 1.1//EN" "http://www.w3.org/Graphics/SVG/1.1/DTD/svg11.dtd">
<svg version="1.1" id="Layer_1" xmlns="http://www.w3.org/2000/svg" xmlns:xlink="http://www.w3.org/1999/xlink" x="0px" y="0px"
	 width="612px" height="792px" viewBox="0 0 612 792" enable-background="new 0 0 612 792" xml:space="preserve">
<path fill="#6D8D24" d="M306.009,255.22c-77.746,0-140.789,63.035-140.789,140.78c0,77.771,63.043,140.78,140.789,140.78
	c77.762,0,140.771-63.01,140.771-140.78C446.78,318.255,383.771,255.22,306.009,255.22z M193.659,405.813
	c-6.134,0-11.113-4.979-11.113-11.112c0-6.142,4.979-11.137,11.113-11.137c6.133,0,11.12,4.995,11.12,11.137
	C204.779,400.851,199.792,405.813,193.659,405.813z M330.364,354.626c4.35-4.317,11.378-4.317,15.728,0
	c4.333,4.35,4.333,11.402,0,15.712c-4.35,4.31-11.378,4.31-15.728,0C326.022,366.028,326.022,358.976,330.364,354.626z
	 M306.009,271.23c6.133,0,11.111,4.987,11.111,11.137s-4.979,11.097-11.111,11.097s-11.129-4.963-11.129-11.097
	C294.88,276.234,299.859,271.23,306.009,271.23z M265.933,354.626c4.326-4.317,11.371-4.317,15.705,0
	c4.342,4.35,4.342,11.402,0,15.712c-4.334,4.31-11.379,4.31-15.705,0C261.591,366.028,261.591,358.976,265.933,354.626z
	 M218.708,307.408c4.325-4.333,11.371-4.333,15.721,0c4.324,4.342,4.324,11.371,0,15.721c-4.35,4.333-11.396,4.333-15.721,0
	C214.366,318.779,214.366,311.75,218.708,307.408z M234.429,482.01c-4.35,4.342-11.396,4.342-15.721,0
	c-4.342-4.325-4.342-11.379,0-15.729c4.325-4.334,11.371-4.334,15.721,0C238.762,470.631,238.762,477.685,234.429,482.01z
	 M281.638,434.784c-4.334,4.334-11.379,4.334-15.705,0c-4.342-4.35-4.342-11.379,0-15.704c4.326-4.31,11.371-4.31,15.705,0
	C285.995,423.405,285.995,430.435,281.638,434.784z M306.009,518.163c-6.133,0-11.129-4.995-11.129-11.112
	c0-6.142,4.996-11.137,11.129-11.137s11.111,4.995,11.111,11.137C317.112,513.191,312.142,518.163,306.009,518.163z
	 M346.092,434.784c-4.358,4.334-11.378,4.334-15.728,0c-4.342-4.35-4.342-11.379,0-15.729c4.35-4.301,11.369-4.301,15.728,0
	C350.425,423.405,350.425,430.435,346.092,434.784z M393.301,482.01c-4.333,4.342-11.378,4.342-15.712,0
	c-4.326-4.325-4.326-11.379,0-15.729c4.334-4.334,11.379-4.334,15.712,0C397.634,470.631,397.634,477.685,393.301,482.01z
	 M393.31,323.129c-4.342,4.35-11.387,4.35-15.721,0c-4.326-4.334-4.326-11.379,0-15.704c4.334-4.334,11.379-4.334,15.721,0
	C397.634,311.75,397.634,318.779,393.31,323.129z M418.351,405.813c-6.134,0-11.129-4.979-11.129-11.112
	c0-6.142,4.995-11.137,11.129-11.137c6.125,0,11.111,4.995,11.111,11.137C429.462,400.851,424.476,405.813,418.351,405.813z"/>
</svg>
