<?xml version="1.0" encoding="UTF-8" standalone="no"?>
<!-- Generator: Adobe Illustrator 15.0.0, SVG Export Plug-In . SVG Version: 6.00 Build 0)  -->

<svg
   xmlns:dc="http://purl.org/dc/elements/1.1/"
   xmlns:cc="http://creativecommons.org/ns#"
   xmlns:rdf="http://www.w3.org/1999/02/22-rdf-syntax-ns#"
   xmlns:svg="http://www.w3.org/2000/svg"
   xmlns="http://www.w3.org/2000/svg"
   xmlns:sodipodi="http://sodipodi.sourceforge.net/DTD/sodipodi-0.dtd"
   xmlns:inkscape="http://www.inkscape.org/namespaces/inkscape"
   version="1.1"
   id="Layer_1"
   x="0px"
   y="0px"
   width="281.56"
   height="281.56"
   viewBox="0 0 281.56 281.56"
   enable-background="new 0 0 612 792"
   xml:space="preserve"
   inkscape:version="0.48.3.1 r9886"
   sodipodi:docname="organizacion.svg"><metadata
   id="metadata9"><rdf:RDF><cc:Work
       rdf:about=""><dc:format>image/svg+xml</dc:format><dc:type
         rdf:resource="http://purl.org/dc/dcmitype/StillImage" /></cc:Work></rdf:RDF></metadata><defs
   id="defs7" /><sodipodi:namedview
   pagecolor="#ffffff"
   bordercolor="#666666"
   borderopacity="1"
   objecttolerance="10"
   gridtolerance="10"
   guidetolerance="10"
   inkscape:pageopacity="0"
   inkscape:pageshadow="2"
   inkscape:window-width="640"
   inkscape:window-height="480"
   id="namedview5"
   showgrid="false"
   fit-margin-top="0"
   fit-margin-left="0"
   fit-margin-right="0"
   fit-margin-bottom="0"
   inkscape:zoom="0.2979798"
   inkscape:cx="140.78"
   inkscape:cy="140.78"
   inkscape:window-x="0"
   inkscape:window-y="27"
   inkscape:window-maximized="0"
   inkscape:current-layer="Layer_1" />
<path
   d="M 140.789,0 C 63.043,0 0,63.035 0,140.78 0,218.551 63.043,281.56 140.789,281.56 218.551,281.56 281.56,218.55 281.56,140.78 281.56,63.035 218.551,0 140.789,0 z M 28.439,150.593 c -6.134,0 -11.113,-4.979 -11.113,-11.112 0,-6.142 4.979,-11.137 11.113,-11.137 6.133,0 11.12,4.995 11.12,11.137 0,6.15 -4.987,11.112 -11.12,11.112 z M 165.144,99.406 c 4.35,-4.317 11.378,-4.317 15.728,0 4.333,4.35 4.333,11.402 0,15.712 -4.35,4.31 -11.378,4.31 -15.728,0 -4.342,-4.31 -4.342,-11.362 0,-15.712 z M 140.789,16.01 c 6.133,0 11.111,4.987 11.111,11.137 0,6.15 -4.979,11.097 -11.111,11.097 -6.132,0 -11.129,-4.963 -11.129,-11.097 0,-6.133 4.979,-11.137 11.129,-11.137 z m -40.076,83.396 c 4.326,-4.317 11.371,-4.317 15.705,0 4.342,4.35 4.342,11.402 0,15.712 -4.334,4.31 -11.379,4.31 -15.705,0 -4.342,-4.31 -4.342,-11.362 0,-15.712 z M 53.488,52.188 c 4.325,-4.333 11.371,-4.333 15.721,0 4.324,4.342 4.324,11.371 0,15.721 -4.35,4.333 -11.396,4.333 -15.721,0 -4.342,-4.35 -4.342,-11.379 0,-15.721 z M 69.209,226.79 c -4.35,4.342 -11.396,4.342 -15.721,0 -4.342,-4.325 -4.342,-11.379 0,-15.729 4.325,-4.334 11.371,-4.334 15.721,0 4.333,4.35 4.333,11.404 0,15.729 z m 47.209,-47.226 c -4.334,4.334 -11.379,4.334 -15.705,0 -4.342,-4.35 -4.342,-11.379 0,-15.704 4.326,-4.31 11.371,-4.31 15.705,0 4.357,4.325 4.357,11.355 0,15.704 z m 24.371,83.379 c -6.133,0 -11.129,-4.995 -11.129,-11.112 0,-6.142 4.996,-11.137 11.129,-11.137 6.133,0 11.111,4.995 11.111,11.137 -0.008,6.14 -4.978,11.112 -11.111,11.112 z m 40.083,-83.379 c -4.358,4.334 -11.378,4.334 -15.728,0 -4.342,-4.35 -4.342,-11.379 0,-15.729 4.35,-4.301 11.369,-4.301 15.728,0 4.333,4.35 4.333,11.38 0,15.729 z m 47.209,47.226 c -4.333,4.342 -11.378,4.342 -15.712,0 -4.326,-4.325 -4.326,-11.379 0,-15.729 4.334,-4.334 11.379,-4.334 15.712,0 4.333,4.35 4.333,11.404 0,15.729 z M 228.09,67.909 c -4.342,4.35 -11.387,4.35 -15.721,0 -4.326,-4.334 -4.326,-11.379 0,-15.704 4.334,-4.334 11.379,-4.334 15.721,0 4.324,4.325 4.324,11.354 0,15.704 z m 25.041,82.684 c -6.134,0 -11.129,-4.979 -11.129,-11.112 0,-6.142 4.995,-11.137 11.129,-11.137 6.125,0 11.111,4.995 11.111,11.137 0,6.15 -4.986,11.112 -11.111,11.112 z"
   id="path3"
   inkscape:connector-curvature="0"
   style="fill:#6d8d24" />
</svg>