<?xml version="1.0" encoding="UTF-8" standalone="no"?>
<!-- Generator: Adobe Illustrator 15.0.0, SVG Export Plug-In . SVG Version: 6.00 Build 0)  -->

<svg
   xmlns:dc="http://purl.org/dc/elements/1.1/"
   xmlns:cc="http://creativecommons.org/ns#"
   xmlns:rdf="http://www.w3.org/1999/02/22-rdf-syntax-ns#"
   xmlns:svg="http://www.w3.org/2000/svg"
   xmlns="http://www.w3.org/2000/svg"
   xmlns:sodipodi="http://sodipodi.sourceforge.net/DTD/sodipodi-0.dtd"
   xmlns:inkscape="http://www.inkscape.org/namespaces/inkscape"
   version="1.1"
   id="Layer_1"
   x="0px"
   y="0px"
   width="364.38599"
   height="281.91"
   viewBox="0 0 364.38599 281.91"
   enable-background="new 0 0 612 792"
   xml:space="preserve"
   inkscape:version="0.48.3.1 r9886"
   sodipodi:docname="porque_usar_canaima.svg"><metadata
   id="metadata3005"><rdf:RDF><cc:Work
       rdf:about=""><dc:format>image/svg+xml</dc:format><dc:type
         rdf:resource="http://purl.org/dc/dcmitype/StillImage" /></cc:Work></rdf:RDF></metadata><defs
   id="defs3003" /><sodipodi:namedview
   pagecolor="#ffffff"
   bordercolor="#666666"
   borderopacity="1"
   objecttolerance="10"
   gridtolerance="10"
   guidetolerance="10"
   inkscape:pageopacity="0"
   inkscape:pageshadow="2"
   inkscape:window-width="640"
   inkscape:window-height="480"
   id="namedview3001"
   showgrid="false"
   fit-margin-top="0"
   fit-margin-left="0"
   fit-margin-right="0"
   fit-margin-bottom="0"
   inkscape:zoom="0.2979798"
   inkscape:cx="182.227"
   inkscape:cy="141.477"
   inkscape:window-x="0"
   inkscape:window-y="27"
   inkscape:window-maximized="0"
   inkscape:current-layer="Layer_1" />
<g
   id="g2991"
   transform="translate(-123.773,-255.567)">
	<polygon
   points="197.967,456.725 197.967,431.125 280.44,431.125 280.44,509.584 151.677,509.584 151.677,380.816 265.723,380.816 265.723,301.715 237.818,301.715 237.818,352.908 123.773,352.908 123.773,537.477 308.345,537.477 308.345,403.225 170.063,403.225 170.063,484.625 251.772,484.625 251.772,456.725 "
   id="polygon2993"
   style="fill:#6d8d24" />
	<rect
   x="236.46201"
   y="255.567"
   width="30.516001"
   height="30.507999"
   id="rect2995"
   style="fill:#6d8d24" />
	<polygon
   points="441.873,308.422 360.164,308.422 360.164,336.318 413.973,336.318 413.973,361.919 331.5,361.919 331.5,283.463 460.259,283.463 460.259,412.227 346.205,412.227 346.205,491.328 374.121,491.328 374.121,440.135 488.159,440.135 488.159,255.567 303.596,255.567 303.596,389.819 441.873,389.819 "
   id="polygon2997"
   style="fill:#6d8d24" />
	<rect
   x="344.95401"
   y="506.96799"
   width="30.517"
   height="30.509001"
   id="rect2999"
   style="fill:#6d8d24" />
</g>
</svg>