<?xml version="1.0" encoding="UTF-8" standalone="no"?>
<!-- Generator: Adobe Illustrator 15.0.0, SVG Export Plug-In . SVG Version: 6.00 Build 0)  -->

<svg
   xmlns:dc="http://purl.org/dc/elements/1.1/"
   xmlns:cc="http://creativecommons.org/ns#"
   xmlns:rdf="http://www.w3.org/1999/02/22-rdf-syntax-ns#"
   xmlns:svg="http://www.w3.org/2000/svg"
   xmlns="http://www.w3.org/2000/svg"
   xmlns:sodipodi="http://sodipodi.sourceforge.net/DTD/sodipodi-0.dtd"
   xmlns:inkscape="http://www.inkscape.org/namespaces/inkscape"
   version="1.1"
   id="Layer_1"
   x="0px"
   y="0px"
   width="329.81"
   height="329.811"
   viewBox="0 0 329.81 329.811"
   enable-background="new 0 0 612 792"
   xml:space="preserve"
   inkscape:version="0.48.3.1 r9886"
   sodipodi:docname="porque_usar_Softlibre.svg"><metadata
   id="metadata3028"><rdf:RDF><cc:Work
       rdf:about=""><dc:format>image/svg+xml</dc:format><dc:type
         rdf:resource="http://purl.org/dc/dcmitype/StillImage" /></cc:Work></rdf:RDF></metadata><defs
   id="defs3026" /><sodipodi:namedview
   pagecolor="#ffffff"
   bordercolor="#666666"
   borderopacity="1"
   objecttolerance="10"
   gridtolerance="10"
   guidetolerance="10"
   inkscape:pageopacity="0"
   inkscape:pageshadow="2"
   inkscape:window-width="640"
   inkscape:window-height="480"
   id="namedview3024"
   showgrid="false"
   fit-margin-top="0"
   fit-margin-left="0"
   fit-margin-right="0"
   fit-margin-bottom="0"
   inkscape:zoom="0.2979798"
   inkscape:cx="164.187"
   inkscape:cy="165.199"
   inkscape:window-x="0"
   inkscape:window-y="27"
   inkscape:window-maximized="0"
   inkscape:current-layer="Layer_1" />
<g
   id="g3008"
   transform="translate(-141.813,-231.388)">
	<polygon
   points="262.627,418.125 262.627,408.838 292.54,408.838 292.54,437.291 245.825,437.291 245.825,390.597 287.204,390.597 287.204,361.906 277.079,361.906 277.079,380.477 235.717,380.477 235.717,447.42 302.664,447.42 302.664,398.726 252.503,398.726 252.503,428.246 282.14,428.246 282.14,418.125 "
   id="polygon3010"
   style="fill:#6d8d24" />
	<rect
   x="276.59201"
   y="345.15399"
   width="11.062"
   height="11.066"
   id="rect3012"
   style="fill:#6d8d24" />
	<polygon
   points="351.092,364.328 321.447,364.328 321.447,374.449 340.972,374.449 340.972,383.736 311.06,383.736 311.06,355.283 357.762,355.283 357.762,401.977 316.395,401.977 316.395,430.68 326.516,430.68 326.516,412.098 367.882,412.098 367.882,345.154 300.938,345.154 300.938,393.856 351.092,393.856 "
   id="polygon3014"
   style="fill:#6d8d24" />
	<rect
   x="315.93701"
   y="436.349"
   width="11.062"
   height="11.063"
   id="rect3016"
   style="fill:#6d8d24" />
</g>
<g
   id="g3018"
   transform="translate(-141.813,-231.388)">
	<path
   d="m 306.716,269.94 c -69.657,0 -126.351,56.681 -126.351,126.351 0,69.678 56.694,126.359 126.351,126.359 69.678,0 126.359,-56.682 126.359,-126.359 0,-69.669 -56.681,-126.351 -126.359,-126.351 z m 0,231.293 c -57.86,0 -104.934,-47.077 -104.934,-104.942 0,-57.86 47.073,-104.934 104.934,-104.934 57.882,0 104.942,47.081 104.942,104.934 0,57.865 -47.06,104.942 -104.942,104.942 z"
   id="path3020"
   inkscape:connector-curvature="0"
   style="fill:#6d8d24" />
	<path
   d="m 306.716,231.388 c -90.915,0 -164.903,73.979 -164.903,164.903 0,90.937 73.988,164.908 164.903,164.908 90.937,0 164.907,-73.98 164.907,-164.908 0,-90.924 -73.971,-164.903 -164.907,-164.903 z m 0,308.393 c -79.115,0 -143.49,-64.375 -143.49,-143.49 0,-79.119 64.375,-143.495 143.49,-143.495 79.124,0 143.499,64.376 143.499,143.495 -0.017,79.132 -64.375,143.49 -143.499,143.49 z"
   id="path3022"
   inkscape:connector-curvature="0"
   style="fill:#6d8d24" />
</g>
</svg>