<?xml version="1.0" encoding="utf-8"?>
<!-- Generator: Adobe Illustrator 15.0.0, SVG Export Plug-In . SVG Version: 6.00 Build 0)  -->
<!DOCTYPE svg PUBLIC "-//W3C//DTD SVG 1.1//EN" "http://www.w3.org/Graphics/SVG/1.1/DTD/svg11.dtd">
<svg version="1.1" id="Layer_1" xmlns="http://www.w3.org/2000/svg" xmlns:xlink="http://www.w3.org/1999/xlink" x="0px" y="0px"
	 width="612px" height="792px" viewBox="0 0 612 792" enable-background="new 0 0 612 792" xml:space="preserve">
<g>
	<polygon fill="#6D8D24" points="170.063,484.625 251.772,484.625 251.772,456.725 197.967,456.725 197.967,431.125 280.44,431.125 
		280.44,509.584 151.677,509.584 151.677,380.816 265.723,380.816 265.723,301.715 237.818,301.715 237.818,352.908 
		123.773,352.908 123.773,537.477 308.345,537.477 308.345,403.225 170.063,403.225 	"/>
	<rect x="236.462" y="255.567" fill="#6D8D24" width="30.516" height="30.508"/>
	<polygon fill="#6D8D24" points="303.596,255.567 303.596,389.819 441.873,389.819 441.873,308.422 360.164,308.422 
		360.164,336.318 413.973,336.318 413.973,361.919 331.5,361.919 331.5,283.463 460.259,283.463 460.259,412.227 346.205,412.227 
		346.205,491.328 374.121,491.328 374.121,440.135 488.159,440.135 488.159,255.567 	"/>
	<rect x="344.954" y="506.968" fill="#6D8D24" width="30.517" height="30.509"/>
</g>
</svg>
