<?xml version="1.0" encoding="utf-8"?>
<!-- Generator: Adobe Illustrator 15.0.0, SVG Export Plug-In . SVG Version: 6.00 Build 0)  -->
<!DOCTYPE svg PUBLIC "-//W3C//DTD SVG 1.1//EN" "http://www.w3.org/Graphics/SVG/1.1/DTD/svg11.dtd">
<svg version="1.1" id="Layer_1" xmlns="http://www.w3.org/2000/svg" xmlns:xlink="http://www.w3.org/1999/xlink" x="0px" y="0px"
	 width="612px" height="792px" viewBox="0 0 612 792" enable-background="new 0 0 612 792" xml:space="preserve">
<g>
	<polygon fill="#6D8D24" points="252.503,428.246 282.14,428.246 282.14,418.125 262.627,418.125 262.627,408.838 292.54,408.838 
		292.54,437.291 245.825,437.291 245.825,390.597 287.204,390.597 287.204,361.906 277.079,361.906 277.079,380.477 
		235.717,380.477 235.717,447.42 302.664,447.42 302.664,398.726 252.503,398.726 	"/>
	<rect x="276.592" y="345.154" fill="#6D8D24" width="11.062" height="11.066"/>
	<polygon fill="#6D8D24" points="300.938,345.154 300.938,393.856 351.092,393.856 351.092,364.328 321.447,364.328 
		321.447,374.449 340.972,374.449 340.972,383.736 311.06,383.736 311.06,355.283 357.762,355.283 357.762,401.977 316.395,401.977 
		316.395,430.68 326.516,430.68 326.516,412.098 367.882,412.098 367.882,345.154 	"/>
	<rect x="315.937" y="436.349" fill="#6D8D24" width="11.062" height="11.063"/>
</g>
<g>
	<path fill="#6D8D24" d="M306.716,269.94c-69.657,0-126.351,56.681-126.351,126.351c0,69.678,56.694,126.359,126.351,126.359
		c69.678,0,126.359-56.682,126.359-126.359C433.075,326.622,376.394,269.94,306.716,269.94z M306.716,501.233
		c-57.86,0-104.934-47.077-104.934-104.942c0-57.86,47.073-104.934,104.934-104.934c57.882,0,104.942,47.081,104.942,104.934
		C411.658,454.156,364.598,501.233,306.716,501.233z"/>
	<path fill="#6D8D24" d="M306.716,231.388c-90.915,0-164.903,73.979-164.903,164.903c0,90.937,73.988,164.908,164.903,164.908
		c90.937,0,164.907-73.98,164.907-164.908C471.623,305.367,397.652,231.388,306.716,231.388z M306.716,539.781
		c-79.115,0-143.49-64.375-143.49-143.49c0-79.119,64.375-143.495,143.49-143.495c79.124,0,143.499,64.376,143.499,143.495
		C450.198,475.423,385.84,539.781,306.716,539.781z"/>
</g>
</svg>
