<?xml version="1.0" encoding="UTF-8" standalone="no"?>
<!-- Generator: Adobe Illustrator 15.0.0, SVG Export Plug-In . SVG Version: 6.00 Build 0)  -->

<svg
   xmlns:dc="http://purl.org/dc/elements/1.1/"
   xmlns:cc="http://creativecommons.org/ns#"
   xmlns:rdf="http://www.w3.org/1999/02/22-rdf-syntax-ns#"
   xmlns:svg="http://www.w3.org/2000/svg"
   xmlns="http://www.w3.org/2000/svg"
   xmlns:sodipodi="http://sodipodi.sourceforge.net/DTD/sodipodi-0.dtd"
   xmlns:inkscape="http://www.inkscape.org/namespaces/inkscape"
   version="1.1"
   id="Layer_1"
   x="0px"
   y="0px"
   width="274.32101"
   height="367.26401"
   viewBox="0 0 274.32101 367.26401"
   enable-background="new 0 0 612 792"
   xml:space="preserve"
   inkscape:version="0.48.3.1 r9886"
   sodipodi:docname="que_hay_nuevo.svg"><metadata
   id="metadata9"><rdf:RDF><cc:Work
       rdf:about=""><dc:format>image/svg+xml</dc:format><dc:type
         rdf:resource="http://purl.org/dc/dcmitype/StillImage" /></cc:Work></rdf:RDF></metadata><defs
   id="defs7" /><sodipodi:namedview
   pagecolor="#ffffff"
   bordercolor="#666666"
   borderopacity="1"
   objecttolerance="10"
   gridtolerance="10"
   guidetolerance="10"
   inkscape:pageopacity="0"
   inkscape:pageshadow="2"
   inkscape:window-width="640"
   inkscape:window-height="480"
   id="namedview5"
   showgrid="false"
   fit-margin-top="0"
   fit-margin-left="0"
   fit-margin-right="0"
   fit-margin-bottom="0"
   inkscape:zoom="0.2979798"
   inkscape:cx="136.791"
   inkscape:cy="183.515"
   inkscape:window-x="0"
   inkscape:window-y="27"
   inkscape:window-maximized="0"
   inkscape:current-layer="Layer_1" />
<path
   d="M 274.321,137.161 C 274.321,61.414 212.918,0 137.155,0 61.408,0 0,61.414 0,137.161 c 0,70.42 53.075,128.36 121.384,136.189 v 93.914 h 31.569 V 273.35 c 68.309,-7.849 121.368,-65.779 121.368,-136.189 z M 246.62,125.047 c 5.979,0 10.83,4.855 10.83,10.851 0,5.99 -4.851,10.814 -10.83,10.814 -5.979,0 -10.851,-4.839 -10.851,-10.814 0.001,-5.996 4.872,-10.851 10.851,-10.851 z M 27.701,146.712 c -5.975,0 -10.83,-4.839 -10.83,-10.814 0,-5.996 4.855,-10.851 10.83,-10.851 5.975,0 10.84,4.855 10.84,10.851 -0.01,5.99 -4.865,10.814 -10.84,10.814 z M 160.896,96.853 c 4.223,-4.218 11.076,-4.218 15.309,0 4.244,4.238 4.244,11.102 0,15.299 -4.223,4.208 -11.086,4.208 -15.309,0 -4.223,-4.197 -4.223,-11.061 0,-15.299 z m 20.663,28.209 c 5.98,0 10.83,4.865 10.83,10.85 0,5.975 -4.85,10.82 -10.83,10.82 -5.979,0 -10.83,-4.845 -10.83,-10.82 0,-6.01 4.85,-10.85 10.83,-10.85 z M 137.155,15.598 c 5.976,0 10.835,4.86 10.835,10.851 0,5.975 -4.859,10.804 -10.835,10.804 -5.97,0 -10.824,-4.83 -10.824,-10.804 0,-5.981 4.855,-10.851 10.824,-10.851 z m 0,32.551 c 5.976,-0.021 10.835,4.855 10.835,10.83 0,5.96 -4.859,10.835 -10.835,10.835 -5.97,0 -10.824,-4.86 -10.824,-10.835 0,-5.975 4.855,-10.851 10.824,-10.83 z m 0,32.526 c 5.976,-0.011 10.835,4.839 10.835,10.835 0,5.954 -4.859,10.83 -10.835,10.83 -5.97,0 -10.824,-4.86 -10.824,-10.83 0,-5.996 4.855,-10.846 10.824,-10.835 z M 75.1,73.852 c 4.239,-4.223 11.087,-4.223 15.315,0 4.233,4.224 4.233,11.062 0,15.31 -4.218,4.239 -11.077,4.239 -15.315,0 -4.218,-4.249 -4.218,-11.087 0,-15.31 z m 28.482,62.061 c 0,5.975 -4.845,10.82 -10.825,10.82 -5.975,0 -10.84,-4.845 -10.84,-10.82 0,-5.985 4.865,-10.85 10.84,-10.85 5.98,-0.001 10.825,4.839 10.825,10.85 z M 52.104,50.841 c 4.228,-4.218 11.076,-4.218 15.314,0 4.218,4.218 4.218,11.082 0,15.305 -4.238,4.238 -11.086,4.238 -15.314,0 -4.233,-4.223 -4.233,-11.061 0,-15.305 z m 15.315,170.118 c -4.238,4.243 -11.086,4.243 -15.314,0 -4.233,-4.224 -4.233,-11.087 0,-15.32 4.228,-4.223 11.076,-4.223 15.314,0 4.218,4.233 4.218,11.096 0,15.32 z m -7.182,-74.247 c -5.98,0 -10.835,-4.839 -10.835,-10.814 0,-5.996 4.854,-10.851 10.835,-10.851 5.985,0 10.83,4.855 10.83,10.851 0,5.99 -4.855,10.814 -10.83,10.814 z m 30.178,51.241 c -4.218,4.233 -11.077,4.233 -15.315,0 -4.218,-4.213 -4.218,-11.076 0,-15.299 4.239,-4.238 11.087,-4.238 15.315,0 4.233,4.223 4.233,11.072 0,15.299 z m 23.011,-23.006 c -4.229,4.223 -11.082,4.223 -15.315,0 -4.238,-4.238 -4.238,-11.086 0,-15.299 4.233,-4.208 11.087,-4.208 15.315,0 4.222,4.213 4.222,11.061 0,15.299 z m 0,-62.795 c -4.229,4.208 -11.082,4.208 -15.315,0 -4.238,-4.197 -4.238,-11.061 0,-15.299 4.229,-4.218 11.087,-4.218 15.315,0 4.233,4.238 4.233,11.102 0,15.299 z m 23.729,89.819 c 5.976,0 10.835,4.881 10.835,10.851 0,5.97 -4.859,10.83 -10.835,10.83 -5.97,0 -10.824,-4.86 -10.824,-10.83 0,-5.96 4.855,-10.851 10.824,-10.851 z m -10.824,-21.66 c 0,-6 4.854,-10.851 10.824,-10.851 5.976,0 10.835,4.85 10.835,10.851 0,5.975 -4.859,10.809 -10.835,10.809 -5.969,0 -10.824,-4.834 -10.824,-10.809 z m 10.824,54.201 c 5.976,0 10.835,4.86 10.835,10.84 0,5.97 -4.859,10.83 -10.835,10.83 -5.97,0 -10.824,-4.86 -10.824,-10.83 0,-5.98 4.855,-10.84 10.824,-10.84 z m 0,-77.664 c -11.317,0 -20.493,-9.211 -20.493,-20.514 0,-11.323 9.176,-20.499 20.493,-20.499 11.339,0 20.504,9.176 20.504,20.499 0,11.318 -9.165,20.514 -20.504,20.514 z m 39.05,18.099 c -4.223,4.223 -11.086,4.223 -15.309,0 -4.234,-4.238 -4.234,-11.086 0,-15.325 4.223,-4.188 11.076,-4.188 15.309,0 4.244,4.239 4.244,11.087 0,15.325 z m 23.006,23.006 c -4.232,4.233 -11.086,4.233 -15.31,0 -4.233,-4.213 -4.233,-11.076 0,-15.299 4.213,-4.238 11.077,-4.238 15.31,0 4.233,4.223 4.233,11.072 0,15.299 z m 0,-108.791 c -4.232,4.239 -11.086,4.239 -15.31,0 -4.233,-4.249 -4.233,-11.086 0,-15.31 4.213,-4.223 11.077,-4.223 15.31,0 4.233,4.223 4.233,11.061 0,15.31 z m 22.996,131.797 c -4.223,4.243 -11.076,4.243 -15.311,0 -4.212,-4.224 -4.212,-11.087 0,-15.32 4.234,-4.223 11.088,-4.223 15.311,0 4.243,4.233 4.243,11.096 0,15.32 z M 203.26,135.913 c 0,-5.985 4.85,-10.85 10.819,-10.85 5.99,0 10.841,4.865 10.841,10.85 0,5.975 -4.851,10.82 -10.841,10.82 -5.979,-0.021 -10.819,-4.845 -10.819,-10.82 z m 18.968,-69.757 c -4.243,4.238 -11.097,4.238 -15.331,0 -4.212,-4.224 -4.212,-11.087 0,-15.31 4.234,-4.212 11.088,-4.212 15.331,0 4.222,4.239 4.222,11.077 0,15.31 z"
   id="path3"
   inkscape:connector-curvature="0"
   style="fill:#6d8d24" />
</svg>