<?xml version="1.0" encoding="utf-8"?>
<!-- Generator: Adobe Illustrator 15.0.0, SVG Export Plug-In . SVG Version: 6.00 Build 0)  -->
<!DOCTYPE svg PUBLIC "-//W3C//DTD SVG 1.1//EN" "http://www.w3.org/Graphics/SVG/1.1/DTD/svg11.dtd">
<svg version="1.1" id="Layer_1" xmlns="http://www.w3.org/2000/svg" xmlns:xlink="http://www.w3.org/1999/xlink" x="0px" y="0px"
	 width="612px" height="792px" viewBox="0 0 612 792" enable-background="new 0 0 612 792" xml:space="preserve">
<g>
	<rect x="279.381" y="262.308" fill="#6D8D24" width="51.376" height="37.492"/>
	<polygon fill="#6D8D24" points="402.937,502.479 402.937,418.263 318.239,418.263 318.239,358.104 402.937,358.104 
		402.937,262.308 375.152,262.308 375.152,330.336 239.111,330.336 239.111,262.308 211.352,262.308 211.352,358.104 
		290.479,358.104 290.479,418.263 211.352,418.263 211.352,502.479 186.349,502.479 186.349,530.255 265.485,530.255 
		265.485,502.479 239.111,502.479 239.111,446.03 375.152,446.03 375.152,502.479 346.929,502.479 346.929,530.255 426.064,530.255 
		426.064,502.479 	"/>
</g>
</svg>
