<?xml version="1.0" encoding="UTF-8" standalone="no"?>
<!-- Generator: Adobe Illustrator 15.0.0, SVG Export Plug-In . SVG Version: 6.00 Build 0)  -->

<svg
   xmlns:dc="http://purl.org/dc/elements/1.1/"
   xmlns:cc="http://creativecommons.org/ns#"
   xmlns:rdf="http://www.w3.org/1999/02/22-rdf-syntax-ns#"
   xmlns:svg="http://www.w3.org/2000/svg"
   xmlns="http://www.w3.org/2000/svg"
   xmlns:sodipodi="http://sodipodi.sourceforge.net/DTD/sodipodi-0.dtd"
   xmlns:inkscape="http://www.inkscape.org/namespaces/inkscape"
   version="1.1"
   id="Layer_1"
   x="0px"
   y="0px"
   width="239.715"
   height="267.94699"
   viewBox="0 0 239.715 267.94699"
   enable-background="new 0 0 612 792"
   xml:space="preserve"
   inkscape:version="0.48.3.1 r9886"
   sodipodi:docname="quien_usa_canaima.svg"><metadata
   id="metadata3067"><rdf:RDF><cc:Work
       rdf:about=""><dc:format>image/svg+xml</dc:format><dc:type
         rdf:resource="http://purl.org/dc/dcmitype/StillImage" /></cc:Work></rdf:RDF></metadata><defs
   id="defs3065" /><sodipodi:namedview
   pagecolor="#ffffff"
   bordercolor="#666666"
   borderopacity="1"
   objecttolerance="10"
   gridtolerance="10"
   guidetolerance="10"
   inkscape:pageopacity="0"
   inkscape:pageshadow="2"
   inkscape:window-width="640"
   inkscape:window-height="480"
   id="namedview3063"
   showgrid="false"
   fit-margin-top="0"
   fit-margin-left="0"
   fit-margin-right="0"
   fit-margin-bottom="0"
   inkscape:zoom="0.2979798"
   inkscape:cx="119.651"
   inkscape:cy="134.25501"
   inkscape:window-x="0"
   inkscape:window-y="27"
   inkscape:window-maximized="0"
   inkscape:current-layer="Layer_1" />
<g
   id="g3057"
   transform="translate(-186.349,-262.308)">
	<rect
   x="279.38101"
   y="262.30801"
   width="51.375999"
   height="37.492001"
   id="rect3059"
   style="fill:#6d8d24" />
	<polygon
   points="375.152,262.308 375.152,330.336 239.111,330.336 239.111,262.308 211.352,262.308 211.352,358.104 290.479,358.104 290.479,418.263 211.352,418.263 211.352,502.479 186.349,502.479 186.349,530.255 265.485,530.255 265.485,502.479 239.111,502.479 239.111,446.03 375.152,446.03 375.152,502.479 346.929,502.479 346.929,530.255 426.064,530.255 426.064,502.479 402.937,502.479 402.937,418.263 318.239,418.263 318.239,358.104 402.937,358.104 402.937,262.308 "
   id="polygon3061"
   style="fill:#6d8d24" />
</g>
</svg>