<?xml version="1.0" encoding="utf-8"?>
<!-- Generator: Adobe Illustrator 15.0.0, SVG Export Plug-In . SVG Version: 6.00 Build 0)  -->
<!DOCTYPE svg PUBLIC "-//W3C//DTD SVG 1.1//EN" "http://www.w3.org/Graphics/SVG/1.1/DTD/svg11.dtd">
<svg version="1.1" id="Layer_1" xmlns="http://www.w3.org/2000/svg" xmlns:xlink="http://www.w3.org/1999/xlink" x="0px" y="0px"
	 width="612px" height="792px" viewBox="0 0 612 792" enable-background="new 0 0 612 792" xml:space="preserve">
<g>
	<polygon fill="#6D8D24" points="414.205,324.956 414.205,307.535 393.727,307.535 393.727,286.554 376.307,286.554 
		376.307,324.956 	"/>
	<polygon fill="#6D8D24" points="417.314,461.249 378.92,461.257 378.92,499.155 396.322,499.155 396.34,478.669 417.314,478.669 	
		"/>
	<polygon fill="#6D8D24" points="305.598,563.921 290.825,549.036 278.459,561.308 305.513,588.558 332.412,561.845 
		320.133,549.488 	"/>
	<polygon fill="#6D8D24" points="459.09,410.455 471.387,422.795 498.594,395.69 471.83,368.842 459.5,381.139 473.949,395.647 	"/>
	<polygon fill="#6D8D24" points="306.384,228.083 321.174,242.968 333.523,230.696 306.469,203.442 279.57,230.149 291.85,242.515 	
		"/>
	<polygon fill="#6D8D24" points="152.893,381.54 140.596,369.209 113.406,396.313 140.152,423.162 152.5,410.865 138.034,396.356 	
		"/>
	<polygon fill="#6D8D24" points="200.305,464.221 200.305,481.642 220.784,481.633 220.784,502.614 238.204,502.614 
		238.204,464.212 	"/>
	<polygon fill="#6D8D24" points="197.385,325.537 235.779,325.537 235.779,287.639 218.358,287.63 218.358,308.116 197.385,308.116 
			"/>
	<path fill="#6D8D24" d="M371.713,459.028V330.132H242.815v128.896H371.713z M354.291,347.552v94.056h-94.072l0.018-94.056H354.291z
		"/>
	<path fill="#6D8D24" d="M344.914,432.239v-75.311h-75.318v75.303L344.914,432.239z M327.494,374.341v40.486h-40.478v-40.486
		H327.494z"/>
	<polygon fill="#6D8D24" points="316.803,404.136 316.803,385.032 297.708,385.041 297.708,404.136 	"/>
	<rect x="378.15" y="332.292" fill="#6D8D24" width="17.422" height="121.288"/>
	<polygon fill="#6D8D24" points="404.623,453.699 422.045,453.708 422.045,333.001 404.623,333.001 	"/>
	<polygon fill="#6D8D24" points="448.482,456.475 448.5,335.768 431.08,335.768 431.08,456.475 	"/>
	
		<rect x="245.625" y="492.794" transform="matrix(1 0.0029 -0.0029 1 1.4766 -0.9078)" fill="#6D8D24" width="127.479" height="17.42"/>
	
		<rect x="245.625" y="518.041" transform="matrix(1 0.0029 -0.0029 1 1.5185 -0.8889)" fill="#6D8D24" width="127.479" height="17.421"/>
	<polygon fill="#6D8D24" points="372.361,483.93 372.412,466.509 245.531,466.142 245.479,483.554 	"/>
	<polygon fill="#6D8D24" points="368.484,322.42 368.484,305.008 243.311,304.999 243.311,322.42 	"/>
	<rect x="243.191" y="278.535" fill="#6D8D24" width="124.592" height="17.421"/>
	<rect x="243.191" y="253.283" fill="#6D8D24" width="124.592" height="17.412"/>
	<polygon fill="#6D8D24" points="209.579,332.232 192.175,332.352 193.046,456.577 210.467,456.458 	"/>
	<polygon fill="#6D8D24" points="166.608,333.581 167.479,457.808 184.899,457.679 184.029,333.462 	"/>
	<polygon fill="#6D8D24" points="236.922,456.586 236.051,332.94 218.648,333.061 219.502,456.705 	"/>
</g>
</svg>
