<?xml version="1.0" encoding="UTF-8" standalone="no"?>
<!-- Generator: Adobe Illustrator 15.0.0, SVG Export Plug-In . SVG Version: 6.00 Build 0)  -->

<svg
   xmlns:dc="http://purl.org/dc/elements/1.1/"
   xmlns:cc="http://creativecommons.org/ns#"
   xmlns:rdf="http://www.w3.org/1999/02/22-rdf-syntax-ns#"
   xmlns:svg="http://www.w3.org/2000/svg"
   xmlns="http://www.w3.org/2000/svg"
   xmlns:sodipodi="http://sodipodi.sourceforge.net/DTD/sodipodi-0.dtd"
   xmlns:inkscape="http://www.inkscape.org/namespaces/inkscape"
   version="1.1"
   id="Layer_1"
   x="0px"
   y="0px"
   width="359.86801"
   height="359.84799"
   viewBox="0 0 359.86801 359.84799"
   enable-background="new 0 0 612 792"
   xml:space="preserve"
   inkscape:version="0.48.3.1 r9886"
   sodipodi:docname="reuniones.svg"><metadata
   id="metadata77"><rdf:RDF><cc:Work
       rdf:about=""><dc:format>image/svg+xml</dc:format><dc:type
         rdf:resource="http://purl.org/dc/dcmitype/StillImage" /></cc:Work></rdf:RDF></metadata><defs
   id="defs75" /><sodipodi:namedview
   pagecolor="#ffffff"
   bordercolor="#666666"
   borderopacity="1"
   objecttolerance="10"
   gridtolerance="10"
   guidetolerance="10"
   inkscape:pageopacity="0"
   inkscape:pageshadow="2"
   inkscape:window-width="640"
   inkscape:window-height="480"
   id="namedview73"
   showgrid="false"
   fit-margin-top="0"
   fit-margin-left="0"
   fit-margin-right="0"
   fit-margin-bottom="0"
   inkscape:zoom="0.2979798"
   inkscape:cx="179.934"
   inkscape:cy="179.924"
   inkscape:window-x="0"
   inkscape:window-y="27"
   inkscape:window-maximized="0"
   inkscape:current-layer="Layer_1" />
<g
   id="g3"
   transform="translate(-126.066,-216.076)">
	<path
   d="m 252.693,276.429 -20.033,-44.79 c -5.758,2.557 -11.361,5.45 -16.791,8.6 l 24.654,42.417 c 3.938,-2.3 8.008,-4.366 12.17,-6.227 z"
   id="path5"
   inkscape:connector-curvature="0"
   style="fill:#6d8d24" />
	<path
   d="m 229.03,290.142 -28.909,-39.656 c -5.062,3.712 -9.939,7.639 -14.603,11.852 l 32.846,36.455 c 3.406,-3.068 6.974,-5.941 10.666,-8.651 z"
   id="path7"
   inkscape:connector-curvature="0"
   style="fill:#6d8d24" />
	<path
   d="m 278.636,268.023 -10.185,-48.041 c -6.177,1.309 -12.251,2.945 -18.182,4.888 l 15.154,46.671 c 4.306,-1.401 8.714,-2.587 13.213,-3.518 z"
   id="path9"
   inkscape:connector-curvature="0"
   style="fill:#6d8d24" />
	<path
   d="m 208.711,308.467 -36.506,-32.815 c -4.173,4.673 -8.12,9.531 -11.801,14.623 l 39.676,28.847 c 2.7,-3.722 5.573,-7.26 8.631,-10.655 z"
   id="path11"
   inkscape:connector-curvature="0"
   style="fill:#6d8d24" />
	<path
   d="m 192.615,330.616 -42.479,-24.573 c -3.139,5.399 -6.002,11.024 -8.549,16.771 l 44.82,19.971 c 1.852,-4.182 3.918,-8.243 6.208,-12.169 z"
   id="path13"
   inkscape:connector-curvature="0"
   style="fill:#6d8d24" />
	<path
   d="m 175.845,382.247 -48.818,-5.011 c -0.654,6.176 -0.961,12.435 -0.961,18.764 v 0.634 L 175.129,396 c 0,-4.643 0.256,-9.224 0.716,-13.753 z"
   id="path15"
   inkscape:connector-curvature="0"
   style="fill:#6d8d24" />
	<path
   d="m 181.489,355.537 -46.681,-15.094 c -1.933,5.931 -3.568,12.005 -4.878,18.192 l 48.021,10.134 c 0.962,-4.51 2.148,-8.917 3.538,-13.232 z"
   id="path17"
   inkscape:connector-curvature="0"
   style="fill:#6d8d24" />
	<path
   d="m 430.449,355.342 46.63,-15.268 c -1.974,-6.013 -4.233,-11.852 -6.79,-17.599 L 425.51,342.56 c 1.851,4.151 3.487,8.436 4.939,12.782 z"
   id="path19"
   inkscape:connector-curvature="0"
   style="fill:#6d8d24" />
	<path
   d="m 175.906,410.225 -48.798,5.205 c 0.675,6.33 1.688,12.516 2.996,18.621 l 47.98,-10.349 c -0.95,-4.397 -1.697,-8.907 -2.178,-13.477 z"
   id="path21"
   inkscape:connector-curvature="0"
   style="fill:#6d8d24" />
	<path
   d="m 419.252,330.401 42.438,-24.655 c -3.14,-5.43 -6.576,-10.666 -10.257,-15.758 l -39.677,28.888 c 2.689,3.723 5.195,7.547 7.496,11.525 z"
   id="path23"
   inkscape:connector-curvature="0"
   style="fill:#6d8d24" />
	<path
   d="m 436.114,382.021 48.818,-5.133 c -0.665,-6.299 -1.657,-12.496 -2.966,-18.611 l -48,10.247 c 0.942,4.427 1.657,8.927 2.148,13.497 z"
   id="path25"
   inkscape:connector-curvature="0"
   style="fill:#6d8d24" />
	<path
   d="m 343.161,219.911 c -6.095,-1.289 -12.281,-2.24 -18.581,-2.894 l -5.021,48.798 c 4.592,0.501 9.111,1.187 13.539,2.127 l 10.063,-48.031 z"
   id="path27"
   inkscape:connector-curvature="0"
   style="fill:#6d8d24" />
	<path
   d="m 403.125,308.272 36.426,-32.887 c -4.214,-4.642 -8.652,-9.101 -13.314,-13.283 l -32.825,36.455 c 3.414,3.12 6.646,6.341 9.713,9.715 z"
   id="path29"
   inkscape:connector-curvature="0"
   style="fill:#6d8d24" />
	<path
   d="m 378.992,231.476 c -5.727,-2.526 -11.586,-4.786 -17.578,-6.729 l -15.104,46.671 c 4.356,1.421 8.631,3.068 12.793,4.908 l 19.889,-44.85 z"
   id="path31"
   inkscape:connector-curvature="0"
   style="fill:#6d8d24" />
	<path
   d="m 382.766,289.999 28.807,-39.728 c -5.072,-3.702 -10.328,-7.097 -15.769,-10.246 l -24.532,42.509 c 3.957,2.3 7.802,4.796 11.494,7.465 z"
   id="path33"
   inkscape:connector-curvature="0"
   style="fill:#6d8d24" />
	<path
   d="m 305.836,265.15 v -49.074 c -6.34,0 -12.607,0.297 -18.784,0.961 l 5.103,48.818 c 4.509,-0.47 9.06,-0.705 13.681,-0.705 z"
   id="path35"
   inkscape:connector-curvature="0"
   style="fill:#6d8d24" />
	<path
   d="m 403.433,483.359 36.588,32.693 c 4.162,-4.674 8.089,-9.521 11.78,-14.613 l -39.738,-28.816 c -2.679,3.752 -5.563,7.291 -8.63,10.736 z"
   id="path37"
   inkscape:connector-curvature="0"
   style="fill:#6d8d24" />
	<path
   d="m 383.195,501.674 28.93,39.646 c 5.082,-3.702 9.959,-7.7 14.623,-11.913 L 393.8,493.033 c -3.396,3.078 -6.933,5.951 -10.605,8.641 z"
   id="path39"
   inkscape:connector-curvature="0"
   style="fill:#6d8d24" />
	<path
   d="m 359.512,515.449 20.176,44.717 c 5.727,-2.547 11.3,-5.43 16.709,-8.559 l -24.674,-42.438 c -3.938,2.311 -8.008,4.388 -12.211,6.28 z"
   id="path41"
   inkscape:connector-curvature="0"
   style="fill:#6d8d24" />
	<path
   d="m 333.65,523.936 10.206,47.99 c 6.196,-1.309 12.281,-2.965 18.233,-4.918 l -15.268,-46.641 c -4.304,1.401 -8.702,2.618 -13.171,3.569 z"
   id="path43"
   inkscape:connector-curvature="0"
   style="fill:#6d8d24" />
	<path
   d="m 181.644,436.873 -46.6,15.41 c 1.974,5.962 4.243,11.852 6.8,17.527 l 44.759,-20.114 c -1.841,-4.162 -3.518,-8.436 -4.959,-12.823 z"
   id="path45"
   inkscape:connector-curvature="0"
   style="fill:#6d8d24" />
	<path
   d="m 430.572,436.178 46.722,15.053 c 1.912,-5.932 3.528,-11.995 4.816,-18.232 l -48.031,-10.021 c -0.95,4.467 -2.106,8.884 -3.507,13.2 z"
   id="path47"
   inkscape:connector-curvature="0"
   style="fill:#6d8d24" />
	<path
   d="m 419.527,461.16 42.54,24.48 c 3.119,-5.43 5.972,-11.034 8.528,-16.801 l -44.871,-19.85 c -1.861,4.174 -3.947,8.243 -6.197,12.171 z"
   id="path49"
   inkscape:connector-curvature="0"
   style="fill:#6d8d24" />
	<path
   d="m 436.861,395.99 c 0,4.53 -0.236,9.04 -0.686,13.407 l 48.839,5.01 c 0.613,-6.033 0.92,-12.188 0.92,-18.417 v -0.296 l -49.073,0.296 z"
   id="path51"
   inkscape:connector-curvature="0"
   style="fill:#6d8d24" />
	<path
   d="m 269.125,572.162 c 6.115,1.268 12.354,2.229 18.652,2.842 l 4.867,-48.818 c -4.55,-0.48 -9.049,-1.166 -13.457,-2.065 l -10.062,48.041 z"
   id="path53"
   inkscape:connector-curvature="0"
   style="fill:#6d8d24" />
	<path
   d="m 233.295,560.627 c 5.726,2.545 11.626,4.775 17.67,6.758 l 14.949,-46.752 c -4.355,-1.421 -8.589,-3.006 -12.73,-4.857 l -19.889,44.851 z"
   id="path55"
   inkscape:connector-curvature="0"
   style="fill:#6d8d24" />
	<path
   d="m 229.449,502.145 -28.766,39.748 c 5.103,3.713 10.379,7.148 15.851,10.256 l 24.399,-42.59 c -3.957,-2.26 -7.792,-4.725 -11.484,-7.414 z"
   id="path57"
   inkscape:connector-curvature="0"
   style="fill:#6d8d24" />
	<path
   d="m 209.049,483.912 -36.354,32.969 c 4.233,4.673 8.692,9.07 13.376,13.252 l 32.702,-36.608 c -3.416,-3.027 -6.657,-6.238 -9.724,-9.613 z"
   id="path59"
   inkscape:connector-curvature="0"
   style="fill:#6d8d24" />
	<path
   d="m 192.861,461.834 -42.396,24.706 c 3.18,5.45 6.636,10.706 10.348,15.759 l 39.554,-29.021 c -2.689,-3.682 -5.205,-7.516 -7.506,-11.444 z"
   id="path61"
   inkscape:connector-curvature="0"
   style="fill:#6d8d24" />
	<path
   d="m 306.491,526.84 v 49.084 c 6.351,0 12.64,-0.348 18.836,-1.021 l -5.235,-48.788 c -4.489,0.48 -9.02,0.725 -13.601,0.725 z"
   id="path63"
   inkscape:connector-curvature="0"
   style="fill:#6d8d24" />
	<path
   d="m 305.99,316.617 c 14.613,0 26.465,11.842 26.465,26.464 0,14.613 -11.852,26.455 -26.465,26.455 -14.613,0 -26.455,-11.842 -26.455,-26.455 0,-14.623 11.842,-26.464 26.455,-26.464 z"
   id="path65"
   inkscape:connector-curvature="0"
   style="fill:#6d8d24" />
	<path
   d="m 305.99,422.455 c 14.613,0 26.465,11.852 26.465,26.464 0,14.612 -11.852,26.465 -26.465,26.465 -14.613,0 -26.455,-11.853 -26.455,-26.465 0,-14.612 11.842,-26.464 26.455,-26.464 z"
   id="path67"
   inkscape:connector-curvature="0"
   style="fill:#6d8d24" />
	<path
   d="m 358.93,369.536 c 14.602,0 26.454,11.852 26.454,26.464 0,14.613 -11.853,26.455 -26.454,26.455 -14.623,0 -26.465,-11.842 -26.465,-26.455 0,-14.613 11.842,-26.464 26.465,-26.464 z"
   id="path69"
   inkscape:connector-curvature="0"
   style="fill:#6d8d24" />
	<path
   d="m 253.082,369.536 c 14.612,0 26.453,11.852 26.453,26.464 0,14.613 -11.841,26.455 -26.453,26.455 -14.613,0 -26.455,-11.842 -26.455,-26.455 0,-14.613 11.842,-26.464 26.455,-26.464 z"
   id="path71"
   inkscape:connector-curvature="0"
   style="fill:#6d8d24" />
</g>
</svg>