<?xml version="1.0" encoding="utf-8"?>
<!-- Generator: Adobe Illustrator 15.0.0, SVG Export Plug-In . SVG Version: 6.00 Build 0)  -->
<!DOCTYPE svg PUBLIC "-//W3C//DTD SVG 1.1//EN" "http://www.w3.org/Graphics/SVG/1.1/DTD/svg11.dtd">
<svg version="1.1" id="Layer_1" xmlns="http://www.w3.org/2000/svg" xmlns:xlink="http://www.w3.org/1999/xlink" x="0px" y="0px"
	 width="612px" height="792px" viewBox="0 0 612 792" enable-background="new 0 0 612 792" xml:space="preserve">
<g>
	<path fill="#6D8D24" d="M252.693,276.429l-20.033-44.79c-5.758,2.557-11.361,5.45-16.791,8.6l24.654,42.417
		C244.461,280.356,248.531,278.29,252.693,276.429z"/>
	<path fill="#6D8D24" d="M229.03,290.142l-28.909-39.656c-5.062,3.712-9.939,7.639-14.603,11.852l32.846,36.455
		C221.77,295.725,225.338,292.852,229.03,290.142z"/>
	<path fill="#6D8D24" d="M278.636,268.023l-10.185-48.041c-6.177,1.309-12.251,2.945-18.182,4.888l15.154,46.671
		C269.729,270.14,274.137,268.954,278.636,268.023z"/>
	<path fill="#6D8D24" d="M208.711,308.467l-36.506-32.815c-4.173,4.673-8.12,9.531-11.801,14.623l39.676,28.847
		C202.78,315.4,205.653,311.862,208.711,308.467z"/>
	<path fill="#6D8D24" d="M192.615,330.616l-42.479-24.573c-3.139,5.399-6.002,11.024-8.549,16.771l44.82,19.971
		C188.259,338.603,190.325,334.542,192.615,330.616z"/>
	<path fill="#6D8D24" d="M175.845,382.247l-48.818-5.011c-0.654,6.176-0.961,12.435-0.961,18.764v0.634L175.129,396
		C175.129,391.357,175.385,386.776,175.845,382.247z"/>
	<path fill="#6D8D24" d="M181.489,355.537l-46.681-15.094c-1.933,5.931-3.568,12.005-4.878,18.192l48.021,10.134
		C178.913,364.259,180.099,359.852,181.489,355.537z"/>
	<path fill="#6D8D24" d="M430.449,355.342l46.63-15.268c-1.974-6.013-4.233-11.852-6.79-17.599L425.51,342.56
		C427.361,346.711,428.997,350.996,430.449,355.342z"/>
	<path fill="#6D8D24" d="M175.906,410.225l-48.798,5.205c0.675,6.33,1.688,12.516,2.996,18.621l47.98-10.349
		C177.134,419.305,176.387,414.795,175.906,410.225z"/>
	<path fill="#6D8D24" d="M419.252,330.401l42.438-24.655c-3.14-5.43-6.576-10.666-10.257-15.758l-39.677,28.888
		C414.445,322.599,416.951,326.423,419.252,330.401z"/>
	<path fill="#6D8D24" d="M436.114,382.021l48.818-5.133c-0.665-6.299-1.657-12.496-2.966-18.611l-48,10.247
		C434.908,372.951,435.623,377.451,436.114,382.021z"/>
	<path fill="#6D8D24" d="M343.161,219.911c-6.095-1.289-12.281-2.24-18.581-2.894l-5.021,48.798
		c4.592,0.501,9.111,1.187,13.539,2.127L343.161,219.911z"/>
	<path fill="#6D8D24" d="M403.125,308.272l36.426-32.887c-4.214-4.642-8.652-9.101-13.314-13.283l-32.825,36.455
		C396.826,301.677,400.058,304.898,403.125,308.272z"/>
	<path fill="#6D8D24" d="M378.992,231.476c-5.727-2.526-11.586-4.786-17.578-6.729l-15.104,46.671
		c4.356,1.421,8.631,3.068,12.793,4.908L378.992,231.476z"/>
	<path fill="#6D8D24" d="M382.766,289.999l28.807-39.728c-5.072-3.702-10.328-7.097-15.769-10.246l-24.532,42.509
		C375.229,284.834,379.074,287.33,382.766,289.999z"/>
	<path fill="#6D8D24" d="M305.836,265.15v-49.074c-6.34,0-12.607,0.297-18.784,0.961l5.103,48.818
		C296.664,265.385,301.215,265.15,305.836,265.15z"/>
	<path fill="#6D8D24" d="M403.433,483.359l36.588,32.693c4.162-4.674,8.089-9.521,11.78-14.613l-39.738-28.816
		C409.384,476.375,406.5,479.914,403.433,483.359z"/>
	<path fill="#6D8D24" d="M383.195,501.674l28.93,39.646c5.082-3.702,9.959-7.7,14.623-11.913L393.8,493.033
		C390.404,496.111,386.867,498.984,383.195,501.674z"/>
	<path fill="#6D8D24" d="M359.512,515.449l20.176,44.717c5.727-2.547,11.3-5.43,16.709-8.559l-24.674-42.438
		C367.785,511.48,363.715,513.557,359.512,515.449z"/>
	<path fill="#6D8D24" d="M333.65,523.936l10.206,47.99c6.196-1.309,12.281-2.965,18.233-4.918l-15.268-46.641
		C342.517,521.768,338.119,522.985,333.65,523.936z"/>
	<path fill="#6D8D24" d="M181.644,436.873l-46.6,15.41c1.974,5.962,4.243,11.852,6.8,17.527l44.759-20.114
		C184.762,445.534,183.085,441.26,181.644,436.873z"/>
	<path fill="#6D8D24" d="M430.572,436.178l46.722,15.053c1.912-5.932,3.528-11.995,4.816-18.232l-48.031-10.021
		C433.129,427.445,431.973,431.862,430.572,436.178z"/>
	<path fill="#6D8D24" d="M419.527,461.16l42.54,24.48c3.119-5.43,5.972-11.034,8.528-16.801l-44.871-19.85
		C423.863,453.163,421.777,457.232,419.527,461.16z"/>
	<path fill="#6D8D24" d="M436.861,395.99c0,4.53-0.236,9.04-0.686,13.407l48.839,5.01c0.613-6.033,0.92-12.188,0.92-18.417v-0.296
		L436.861,395.99z"/>
	<path fill="#6D8D24" d="M269.125,572.162c6.115,1.268,12.354,2.229,18.652,2.842l4.867-48.818c-4.55-0.48-9.049-1.166-13.457-2.065
		L269.125,572.162z"/>
	<path fill="#6D8D24" d="M233.295,560.627c5.726,2.545,11.626,4.775,17.67,6.758l14.949-46.752
		c-4.355-1.421-8.589-3.006-12.73-4.857L233.295,560.627z"/>
	<path fill="#6D8D24" d="M229.449,502.145l-28.766,39.748c5.103,3.713,10.379,7.148,15.851,10.256l24.399-42.59
		C236.976,507.299,233.141,504.834,229.449,502.145z"/>
	<path fill="#6D8D24" d="M209.049,483.912l-36.354,32.969c4.233,4.673,8.692,9.07,13.376,13.252l32.702-36.608
		C215.357,490.498,212.116,487.287,209.049,483.912z"/>
	<path fill="#6D8D24" d="M192.861,461.834l-42.396,24.706c3.18,5.45,6.636,10.706,10.348,15.759l39.554-29.021
		C197.678,469.596,195.162,465.762,192.861,461.834z"/>
	<path fill="#6D8D24" d="M306.491,526.84v49.084c6.351,0,12.64-0.348,18.836-1.021l-5.235-48.788
		C315.603,526.595,311.072,526.84,306.491,526.84z"/>
	<path fill="#6D8D24" d="M305.99,316.617c14.613,0,26.465,11.842,26.465,26.464c0,14.613-11.852,26.455-26.465,26.455
		s-26.455-11.842-26.455-26.455C279.535,328.458,291.377,316.617,305.99,316.617z"/>
	<path fill="#6D8D24" d="M305.99,422.455c14.613,0,26.465,11.852,26.465,26.464s-11.852,26.465-26.465,26.465
		s-26.455-11.853-26.455-26.465S291.377,422.455,305.99,422.455z"/>
	<path fill="#6D8D24" d="M358.93,369.536c14.602,0,26.454,11.852,26.454,26.464c0,14.613-11.853,26.455-26.454,26.455
		c-14.623,0-26.465-11.842-26.465-26.455C332.465,381.387,344.307,369.536,358.93,369.536z"/>
	<path fill="#6D8D24" d="M253.082,369.536c14.612,0,26.453,11.852,26.453,26.464c0,14.613-11.841,26.455-26.453,26.455
		c-14.613,0-26.455-11.842-26.455-26.455C226.627,381.387,238.469,369.536,253.082,369.536z"/>
</g>
</svg>
