<?xml version="1.0" encoding="utf-8"?>
<!-- Generator: Adobe Illustrator 15.0.0, SVG Export Plug-In . SVG Version: 6.00 Build 0)  -->
<!DOCTYPE svg PUBLIC "-//W3C//DTD SVG 1.1//EN" "http://www.w3.org/Graphics/SVG/1.1/DTD/svg11.dtd">
<svg version="1.1" id="Layer_1" xmlns="http://www.w3.org/2000/svg" xmlns:xlink="http://www.w3.org/1999/xlink" x="0px" y="0px"
	 width="612px" height="792px" viewBox="0 0 612 792" enable-background="new 0 0 612 792" xml:space="preserve">
<path fill="#6D8D24" d="M305.996,247.721c-81.896,0-148.279,66.392-148.279,148.279c0,81.904,66.384,148.279,148.279,148.279
	c81.887,0,148.288-66.375,148.288-148.279C454.266,314.112,387.883,247.721,305.996,247.721z M187.661,406.327
	c-6.459,0-11.703-5.236-11.703-11.695c0-6.478,5.244-11.73,11.703-11.73c6.461,0,11.722,5.253,11.722,11.73
	C199.374,401.108,194.122,406.327,187.661,406.327z M331.648,352.421c4.572-4.556,11.984-4.556,16.557,0
	c4.582,4.582,4.582,12.002,0,16.541c-4.572,4.548-11.984,4.548-16.557,0C327.084,364.423,327.084,357.003,331.648,352.421z
	 M353.986,382.919c6.477,0,11.713,5.261,11.713,11.729c0,6.46-5.236,11.695-11.713,11.695c-6.461,0-11.705-5.235-11.705-11.695
	C342.281,388.154,347.525,382.919,353.986,382.919z M305.996,264.584c6.459,0,11.704,5.253,11.704,11.729
	c0,6.46-5.244,11.679-11.704,11.679c-6.46,0-11.713-5.219-11.713-11.679C294.283,269.846,299.536,264.584,305.996,264.584z
	 M305.996,323.19c-6.46,0-11.713-5.253-11.713-11.713s5.253-11.729,11.713-11.704c6.459-0.025,11.704,5.244,11.704,11.704
	C317.699,317.921,312.455,323.19,305.996,323.19z M317.699,346.649c0,6.435-5.244,11.705-11.704,11.705
	c-6.46,0-11.713-5.253-11.713-11.705c0-6.485,5.253-11.729,11.713-11.712C312.455,334.92,317.699,340.164,317.699,346.649z
	 M263.786,352.421c4.564-4.556,11.984-4.556,16.549,0c4.582,4.582,4.582,12.002,0,16.541c-4.564,4.548-11.977,4.548-16.549,0
	C259.196,364.423,259.196,357.003,263.786,352.421z M269.702,394.648c0,6.46-5.244,11.695-11.713,11.695
	c-6.46,0-11.713-5.235-11.713-11.695c0-6.469,5.253-11.729,11.713-11.729C264.458,382.919,269.702,388.154,269.702,394.648z
	 M214.044,302.681c4.573-4.557,11.977-4.557,16.558,0c4.557,4.564,4.557,11.984,0,16.549c-4.581,4.581-11.984,4.581-16.558,0
	C209.471,314.665,209.471,307.271,214.044,302.681z M230.602,486.591c-4.581,4.582-11.984,4.582-16.558,0
	c-4.573-4.564-4.573-11.984,0-16.566c4.573-4.563,11.977-4.563,16.558,0C235.159,474.606,235.159,482.026,230.602,486.591z
	 M222.833,406.327c-6.46,0-11.713-5.236-11.713-11.695c0-6.478,5.253-11.73,11.713-11.73c6.477,0,11.713,5.253,11.713,11.73
	C234.546,401.108,229.293,406.327,222.833,406.327z M238.898,327.56c4.59-4.564,11.993-4.564,16.558,0
	c4.582,4.564,4.582,11.959,0,16.549c-4.556,4.581-11.968,4.581-16.558,0C234.342,339.519,234.342,332.124,238.898,327.56z
	 M255.456,461.712c-4.556,4.582-11.968,4.582-16.558,0c-4.556-4.547-4.556-11.968,0-16.532c4.59-4.581,11.993-4.581,16.558,0
	C260.038,449.744,260.038,457.147,255.456,461.712z M280.334,436.85c-4.564,4.564-11.977,4.564-16.549,0
	c-4.59-4.581-4.59-11.984,0-16.54c4.572-4.548,11.984-4.548,16.549,0C284.899,424.865,284.899,432.269,280.334,436.85z
	 M305.996,524.67c-6.46,0-11.713-5.261-11.713-11.712c0-6.46,5.253-11.722,11.713-11.722c6.459,0,11.704,5.262,11.704,11.722
	C317.699,519.409,312.455,524.67,305.996,524.67z M294.283,477.794c0-6.443,5.253-11.729,11.713-11.729
	c6.459,0,11.704,5.27,11.704,11.729s-5.244,11.704-11.704,11.704C299.536,489.498,294.283,484.254,294.283,477.794z
	 M305.996,454.334c-6.46,0-11.713-5.228-11.713-11.688c0-6.485,5.253-11.729,11.713-11.729c6.459,0,11.704,5.244,11.704,11.729
	C317.699,449.106,312.455,454.334,305.996,454.334z M305.996,417.283c-12.239,0-22.167-9.962-22.167-22.176
	c0-12.24,9.928-22.159,22.167-22.159c12.239,0,22.159,9.919,22.159,22.159C328.154,407.339,318.234,417.283,305.996,417.283z
	 M348.205,436.85c-4.572,4.564-11.984,4.564-16.557,0c-4.574-4.581-4.574-11.984,0-16.565c4.572-4.53,11.984-4.53,16.557,0
	C352.787,424.865,352.787,432.269,348.205,436.85z M373.076,461.712c-4.582,4.582-11.984,4.582-16.559,0
	c-4.572-4.547-4.572-11.968,0-16.532c4.557-4.581,11.977-4.581,16.559,0C377.648,449.744,377.648,457.147,373.076,461.712z
	 M373.076,344.108c-4.582,4.581-11.984,4.581-16.559,0c-4.572-4.59-4.572-11.984,0-16.549c4.557-4.564,11.977-4.564,16.559,0
	C377.648,332.124,377.648,339.519,373.076,344.108z M397.947,486.591c-4.574,4.582-11.986,4.582-16.559,0
	c-4.564-4.564-4.564-11.984,0-16.566c4.572-4.563,11.984-4.563,16.559,0C402.52,474.606,402.52,482.026,397.947,486.591z
	 M377.445,394.648c0-6.469,5.244-11.729,11.703-11.729c6.479,0,11.723,5.261,11.723,11.729c0,6.46-5.244,11.695-11.723,11.695
	C382.682,406.327,377.445,401.108,377.445,394.648z M397.947,319.238c-4.574,4.581-11.986,4.581-16.559,0
	c-4.564-4.564-4.564-11.985,0-16.55c4.572-4.556,11.984-4.556,16.559,0C402.52,307.271,402.52,314.665,397.947,319.238z
	 M424.322,406.327c-6.461,0-11.723-5.236-11.723-11.695c0-6.478,5.262-11.73,11.723-11.73c6.467,0,11.703,5.253,11.703,11.73
	C436.025,401.108,430.789,406.327,424.322,406.327z"/>
</svg>
