<?xml version="1.0" encoding="UTF-8" standalone="no"?>
<!-- Generator: Adobe Illustrator 15.0.0, SVG Export Plug-In . SVG Version: 6.00 Build 0)  -->

<svg
   xmlns:dc="http://purl.org/dc/elements/1.1/"
   xmlns:cc="http://creativecommons.org/ns#"
   xmlns:rdf="http://www.w3.org/1999/02/22-rdf-syntax-ns#"
   xmlns:svg="http://www.w3.org/2000/svg"
   xmlns="http://www.w3.org/2000/svg"
   xmlns:sodipodi="http://sodipodi.sourceforge.net/DTD/sodipodi-0.dtd"
   xmlns:inkscape="http://www.inkscape.org/namespaces/inkscape"
   version="1.1"
   id="Layer_1"
   x="0px"
   y="0px"
   width="296.56699"
   height="296.55801"
   viewBox="0 0 296.56699 296.55801"
   enable-background="new 0 0 612 792"
   xml:space="preserve"
   inkscape:version="0.48.3.1 r9886"
   sodipodi:docname="servicios_estado.svg"><metadata
   id="metadata3153"><rdf:RDF><cc:Work
       rdf:about=""><dc:format>image/svg+xml</dc:format><dc:type
         rdf:resource="http://purl.org/dc/dcmitype/StillImage" /></cc:Work></rdf:RDF></metadata><defs
   id="defs3151" /><sodipodi:namedview
   pagecolor="#ffffff"
   bordercolor="#666666"
   borderopacity="1"
   objecttolerance="10"
   gridtolerance="10"
   guidetolerance="10"
   inkscape:pageopacity="0"
   inkscape:pageshadow="2"
   inkscape:window-width="640"
   inkscape:window-height="480"
   id="namedview3149"
   showgrid="false"
   fit-margin-top="0"
   fit-margin-left="0"
   fit-margin-right="0"
   fit-margin-bottom="0"
   inkscape:zoom="0.2979798"
   inkscape:cx="148.283"
   inkscape:cy="148.279"
   inkscape:window-x="0"
   inkscape:window-y="27"
   inkscape:window-maximized="0"
   inkscape:current-layer="Layer_1" />
<path
   d="M 148.279,0 C 66.383,0 0,66.392 0,148.279 c 0,81.904 66.384,148.279 148.279,148.279 81.887,0 148.288,-66.375 148.288,-148.279 C 296.549,66.391 230.166,0 148.279,0 z M 29.944,158.606 c -6.459,0 -11.703,-5.236 -11.703,-11.695 0,-6.478 5.244,-11.73 11.703,-11.73 6.461,0 11.722,5.253 11.722,11.73 -0.009,6.476 -5.261,11.695 -11.722,11.695 z M 173.931,104.7 c 4.572,-4.556 11.984,-4.556 16.557,0 4.582,4.582 4.582,12.002 0,16.541 -4.572,4.548 -11.984,4.548 -16.557,0 -4.564,-4.539 -4.564,-11.959 0,-16.541 z m 22.338,30.498 c 6.477,0 11.713,5.261 11.713,11.729 0,6.46 -5.236,11.695 -11.713,11.695 -6.461,0 -11.705,-5.235 -11.705,-11.695 0,-6.494 5.244,-11.729 11.705,-11.729 z M 148.279,16.863 c 6.459,0 11.704,5.253 11.704,11.729 0,6.46 -5.244,11.679 -11.704,11.679 -6.46,0 -11.713,-5.219 -11.713,-11.679 0,-6.467 5.253,-11.729 11.713,-11.729 z m 0,58.606 c -6.46,0 -11.713,-5.253 -11.713,-11.713 0,-6.46 5.253,-11.729 11.713,-11.704 6.459,-0.025 11.704,5.244 11.704,11.704 -0.001,6.444 -5.245,11.713 -11.704,11.713 z m 11.703,23.459 c 0,6.435 -5.244,11.705 -11.704,11.705 -6.46,0 -11.713,-5.253 -11.713,-11.705 0,-6.485 5.253,-11.729 11.713,-11.712 6.46,-0.017 11.704,5.227 11.704,11.712 z m -53.913,5.772 c 4.564,-4.556 11.984,-4.556 16.549,0 4.582,4.582 4.582,12.002 0,16.541 -4.564,4.548 -11.977,4.548 -16.549,0 -4.59,-4.539 -4.59,-11.959 0,-16.541 z m 5.916,42.227 c 0,6.46 -5.244,11.695 -11.713,11.695 -6.46,0 -11.713,-5.235 -11.713,-11.695 0,-6.469 5.253,-11.729 11.713,-11.729 6.469,0 11.713,5.235 11.713,11.729 z M 56.327,54.96 c 4.573,-4.557 11.977,-4.557 16.558,0 4.557,4.564 4.557,11.984 0,16.549 -4.581,4.581 -11.984,4.581 -16.558,0 -4.573,-4.565 -4.573,-11.959 0,-16.549 z m 16.558,183.91 c -4.581,4.582 -11.984,4.582 -16.558,0 -4.573,-4.564 -4.573,-11.984 0,-16.566 4.573,-4.563 11.977,-4.563 16.558,0 4.557,4.581 4.557,12.001 0,16.566 z m -7.769,-80.264 c -6.46,0 -11.713,-5.236 -11.713,-11.695 0,-6.478 5.253,-11.73 11.713,-11.73 6.477,0 11.713,5.253 11.713,11.73 0,6.476 -5.253,11.695 -11.713,11.695 z M 81.181,79.839 c 4.59,-4.564 11.993,-4.564 16.558,0 4.582,4.564 4.582,11.959 0,16.549 -4.556,4.581 -11.968,4.581 -16.558,0 -4.556,-4.59 -4.556,-11.985 0,-16.549 z m 16.558,134.152 c -4.556,4.582 -11.968,4.582 -16.558,0 -4.556,-4.547 -4.556,-11.968 0,-16.532 4.59,-4.581 11.993,-4.581 16.558,0 4.582,4.564 4.582,11.967 0,16.532 z m 24.878,-24.862 c -4.564,4.564 -11.977,4.564 -16.549,0 -4.59,-4.581 -4.59,-11.984 0,-16.54 4.572,-4.548 11.984,-4.548 16.549,0 4.565,4.555 4.565,11.959 0,16.54 z m 25.662,87.82 c -6.46,0 -11.713,-5.261 -11.713,-11.712 0,-6.46 5.253,-11.722 11.713,-11.722 6.459,0 11.704,5.262 11.704,11.722 -0.001,6.451 -5.245,11.712 -11.704,11.712 z m -11.713,-46.876 c 0,-6.443 5.253,-11.729 11.713,-11.729 6.459,0 11.704,5.27 11.704,11.729 0,6.459 -5.244,11.704 -11.704,11.704 -6.46,0 -11.713,-5.244 -11.713,-11.704 z m 11.713,-23.46 c -6.46,0 -11.713,-5.228 -11.713,-11.688 0,-6.485 5.253,-11.729 11.713,-11.729 6.459,0 11.704,5.244 11.704,11.729 -0.001,6.46 -5.245,11.688 -11.704,11.688 z m 0,-37.051 c -12.239,0 -22.167,-9.962 -22.167,-22.176 0,-12.24 9.928,-22.159 22.167,-22.159 12.239,0 22.159,9.919 22.159,22.159 -10e-4,12.232 -9.921,22.176 -22.159,22.176 z m 42.209,19.567 c -4.572,4.564 -11.984,4.564 -16.557,0 -4.574,-4.581 -4.574,-11.984 0,-16.565 4.572,-4.53 11.984,-4.53 16.557,0 4.582,4.58 4.582,11.984 0,16.565 z m 24.871,24.862 c -4.582,4.582 -11.984,4.582 -16.559,0 -4.572,-4.547 -4.572,-11.968 0,-16.532 4.557,-4.581 11.977,-4.581 16.559,0 4.572,4.564 4.572,11.967 0,16.532 z m 0,-117.604 c -4.582,4.581 -11.984,4.581 -16.559,0 -4.572,-4.59 -4.572,-11.984 0,-16.549 4.557,-4.564 11.977,-4.564 16.559,0 4.572,4.565 4.572,11.96 0,16.549 z M 240.23,238.87 c -4.574,4.582 -11.986,4.582 -16.559,0 -4.564,-4.564 -4.564,-11.984 0,-16.566 4.572,-4.563 11.984,-4.563 16.559,0 4.573,4.581 4.573,12.001 0,16.566 z m -20.502,-91.943 c 0,-6.469 5.244,-11.729 11.703,-11.729 6.479,0 11.723,5.261 11.723,11.729 0,6.46 -5.244,11.695 -11.723,11.695 -6.466,-0.016 -11.703,-5.235 -11.703,-11.695 z m 20.502,-75.41 c -4.574,4.581 -11.986,4.581 -16.559,0 -4.564,-4.564 -4.564,-11.985 0,-16.55 4.572,-4.556 11.984,-4.556 16.559,0 4.573,4.583 4.573,11.977 0,16.55 z m 26.375,87.089 c -6.461,0 -11.723,-5.236 -11.723,-11.695 0,-6.478 5.262,-11.73 11.723,-11.73 6.467,0 11.703,5.253 11.703,11.73 0,6.476 -5.236,11.695 -11.703,11.695 z"
   id="path3147"
   inkscape:connector-curvature="0"
   style="fill:#6d8d24" />
</svg>