<?xml version="1.0" encoding="utf-8"?>
<!-- Generator: Adobe Illustrator 15.0.0, SVG Export Plug-In . SVG Version: 6.00 Build 0)  -->
<!DOCTYPE svg PUBLIC "-//W3C//DTD SVG 1.1//EN" "http://www.w3.org/Graphics/SVG/1.1/DTD/svg11.dtd">
<svg version="1.1" id="Layer_1" xmlns="http://www.w3.org/2000/svg" xmlns:xlink="http://www.w3.org/1999/xlink" x="0px" y="0px"
	 width="612px" height="792px" viewBox="0 0 612 792" enable-background="new 0 0 612 792" xml:space="preserve">
<path fill="#6D8D24" d="M307.294,551.875c86.305,0,156.53-70.212,156.53-156.544c0-86.306-70.226-156.504-156.53-156.504
	c-86.306,0-156.532,70.199-156.532,156.504C150.762,481.663,220.988,551.875,307.294,551.875z M437.303,395.331
	c0,71.704-58.333,130.011-130.009,130.011c-20.536,0-39.915-4.907-57.179-13.42l82.635-112.654l-86.877-118.439
	c18.301-9.869,39.223-15.482,61.421-15.482C378.97,265.333,437.303,323.669,437.303,395.331z M211.518,307.748l67.113,91.52
	l-63.948,87.132c-23.076-23.49-37.375-55.61-37.375-91.081C177.283,361.575,190.331,330.864,211.518,307.748z"/>
</svg>
