<?xml version="1.0" encoding="UTF-8" standalone="no"?>
<!-- Generator: Adobe Illustrator 15.0.0, SVG Export Plug-In . SVG Version: 6.00 Build 0)  -->

<svg
   xmlns:dc="http://purl.org/dc/elements/1.1/"
   xmlns:cc="http://creativecommons.org/ns#"
   xmlns:rdf="http://www.w3.org/1999/02/22-rdf-syntax-ns#"
   xmlns:svg="http://www.w3.org/2000/svg"
   xmlns="http://www.w3.org/2000/svg"
   xmlns:sodipodi="http://sodipodi.sourceforge.net/DTD/sodipodi-0.dtd"
   xmlns:inkscape="http://www.inkscape.org/namespaces/inkscape"
   version="1.1"
   id="Layer_1"
   x="0px"
   y="0px"
   width="313.06201"
   height="313.048"
   viewBox="0 0 313.06201 313.048"
   enable-background="new 0 0 612 792"
   xml:space="preserve"
   inkscape:version="0.48.3.1 r9886"
   sodipodi:docname="siguiente.svg"><metadata
   id="metadata3162"><rdf:RDF><cc:Work
       rdf:about=""><dc:format>image/svg+xml</dc:format><dc:type
         rdf:resource="http://purl.org/dc/dcmitype/StillImage" /></cc:Work></rdf:RDF></metadata><defs
   id="defs3160" /><sodipodi:namedview
   pagecolor="#ffffff"
   bordercolor="#666666"
   borderopacity="1"
   objecttolerance="10"
   gridtolerance="10"
   guidetolerance="10"
   inkscape:pageopacity="0"
   inkscape:pageshadow="2"
   inkscape:window-width="640"
   inkscape:window-height="480"
   id="namedview3158"
   showgrid="false"
   fit-margin-top="0"
   fit-margin-left="0"
   fit-margin-right="0"
   fit-margin-bottom="0"
   inkscape:zoom="0.2979798"
   inkscape:cx="155.238"
   inkscape:cy="155.875"
   inkscape:window-x="0"
   inkscape:window-y="27"
   inkscape:window-maximized="0"
   inkscape:current-layer="Layer_1" />
<path
   d="m 156.532,313.048 c 86.305,0 156.53,-70.212 156.53,-156.544 C 313.062,70.198 242.836,0 156.532,0 70.226,0 0,70.199 0,156.504 0,242.836 70.226,313.048 156.532,313.048 z M 286.541,156.504 c 0,71.704 -58.333,130.011 -130.009,130.011 -20.536,0 -39.915,-4.907 -57.179,-13.42 L 181.988,160.441 95.111,42.002 C 113.412,32.133 134.334,26.52 156.532,26.52 228.208,26.506 286.541,84.842 286.541,156.504 z M 60.756,68.921 l 67.113,91.52 -63.948,87.132 C 40.845,224.083 26.546,191.963 26.546,156.492 26.521,122.748 39.569,92.037 60.756,68.921 z"
   id="path3156"
   inkscape:connector-curvature="0"
   style="fill:#6d8d24" />
</svg>