<?xml version="1.0" encoding="utf-8"?>
<!-- Generator: Adobe Illustrator 15.0.0, SVG Export Plug-In . SVG Version: 6.00 Build 0)  -->
<!DOCTYPE svg PUBLIC "-//W3C//DTD SVG 1.1//EN" "http://www.w3.org/Graphics/SVG/1.1/DTD/svg11.dtd">
<svg version="1.1" id="Layer_1" xmlns="http://www.w3.org/2000/svg" xmlns:xlink="http://www.w3.org/1999/xlink" x="0px" y="0px"
	 width="612px" height="792px" viewBox="0 0 612 792" enable-background="new 0 0 612 792" xml:space="preserve">
<g>
	<path fill="#6D8D24" d="M306.055,275.147c5.57,0,10.076-4.515,10.076-10.079V220.3c0-5.563-4.506-10.073-10.076-10.073
		s-10.06,4.509-10.06,10.073v44.769C295.982,270.633,300.484,275.147,306.055,275.147z"/>
	<path fill="#6D8D24" d="M306.055,517.988c-5.57,0-10.06,4.509-10.06,10.066v44.774c0,5.558,4.49,10.067,10.06,10.067
		s10.076-4.516,10.076-10.067v-44.774C316.131,522.497,311.625,517.988,306.055,517.988z"/>
	<path fill="#6D8D24" d="M482.319,386.495h-44.774c-5.552,0-10.073,4.509-10.073,10.073c0,5.557,4.521,10.067,10.073,10.067h44.774
		c5.563,0,10.073-4.51,10.073-10.067C492.393,391.004,487.883,386.495,482.319,386.495z"/>
	<path fill="#6D8D24" d="M184.635,396.568c0-5.564-4.521-10.073-10.073-10.073h-44.769c-5.558,0-10.06,4.509-10.06,10.073
		c0,5.557,4.502,10.067,10.06,10.067h44.769C180.113,406.641,184.635,402.125,184.635,396.568z"/>
	<path fill="#6D8D24" d="M399.037,313.655c2.574,0,5.148-0.979,7.121-2.945l31.662-31.656c3.932-3.931,3.932-10.312,0-14.242
		c-3.943-3.938-10.323-3.938-14.255,0l-31.663,31.65c-3.918,3.938-3.918,10.318,0,14.249
		C393.875,312.676,396.462,313.655,399.037,313.655z"/>
	<path fill="#6D8D24" d="M205.948,482.419l-31.669,31.65c-3.912,3.931-3.912,10.312,0,14.249c1.984,1.965,4.553,2.945,7.127,2.945
		s5.143-0.98,7.127-2.945l31.65-31.65c3.919-3.932,3.919-10.305,0-14.249C216.253,478.488,209.892,478.488,205.948,482.419z"/>
	<path fill="#6D8D24" d="M205.948,310.71c1.959,1.966,4.547,2.945,7.103,2.945c2.581,0,5.156-0.979,7.127-2.945
		c3.925-3.937,3.925-10.311,0-14.249l-31.669-31.65c-3.918-3.938-10.312-3.938-14.243,0c-3.925,3.937-3.925,10.305,0,14.242
		L205.948,310.71z"/>
	<path fill="#6D8D24" d="M406.158,482.419c-3.932-3.931-10.324-3.931-14.256,0c-3.918,3.931-3.918,10.312,0,14.243l31.663,31.656
		c1.96,1.972,4.547,2.945,7.108,2.945c2.575,0,5.162-0.974,7.122-2.945c3.931-3.925,3.931-10.306,0-14.243L406.158,482.419z"/>
</g>
<g>
	<path fill="#6D8D24" d="M319.371,486.35L319.371,486.35c-19.709,0-38.225-7.674-52.154-21.602
		c-11.589-11.593-17.976-27.004-17.976-43.4c0-16.391,6.387-31.801,17.976-43.399c9.721-9.715,22.651-15.071,36.398-15.071l0,0
		c13.753,0,26.677,5.356,36.397,15.077c16.98,16.981,16.98,44.612,0,61.593c-14.506,14.519-38.125,14.506-52.631-0.006
		c-4.638-4.629-4.638-12.146,0-16.78c4.638-4.641,12.148-4.641,16.783,0c5.256,5.25,13.806,5.25,19.062,0
		c7.725-7.724,7.725-20.296,0-28.026c-5.237-5.237-12.198-8.12-19.611-8.12c-7.407,0-14.375,2.883-19.612,8.12
		c-7.111,7.108-11.024,16.566-11.024,26.613c0,10.055,3.918,19.506,11.024,26.614c9.445,9.444,22.005,14.65,35.368,14.65
		c13.351,0,25.91-5.199,35.361-14.65c25.527-25.527,25.527-67.075,0-92.608c-16.02-16.02-37.32-24.843-59.978-24.843
		c-22.655,0-43.962,8.823-59.979,24.843c-4.638,4.641-12.148,4.641-16.786,0c-4.634-4.635-4.634-12.151,0-16.78
		c20.5-20.51,47.761-31.801,76.765-31.801l0,0c28.994,0,56.254,11.291,76.764,31.801c34.784,34.784,34.784,91.39,0,126.174
		C357.59,478.676,339.064,486.35,319.371,486.35z"/>
</g>
</svg>
