<?xml version="1.0" encoding="UTF-8" standalone="no"?>
<!-- Generator: Adobe Illustrator 15.0.0, SVG Export Plug-In . SVG Version: 6.00 Build 0)  -->

<svg
   xmlns:dc="http://purl.org/dc/elements/1.1/"
   xmlns:cc="http://creativecommons.org/ns#"
   xmlns:rdf="http://www.w3.org/1999/02/22-rdf-syntax-ns#"
   xmlns:svg="http://www.w3.org/2000/svg"
   xmlns="http://www.w3.org/2000/svg"
   xmlns:sodipodi="http://sodipodi.sourceforge.net/DTD/sodipodi-0.dtd"
   xmlns:inkscape="http://www.inkscape.org/namespaces/inkscape"
   version="1.1"
   id="Layer_1"
   x="0px"
   y="0px"
   width="372.659"
   height="372.668"
   viewBox="0 0 372.659 372.668"
   enable-background="new 0 0 612 792"
   xml:space="preserve"
   inkscape:version="0.48.3.1 r9886"
   sodipodi:docname="sistema_poderoso.svg"><metadata
   id="metadata3191"><rdf:RDF><cc:Work
       rdf:about=""><dc:format>image/svg+xml</dc:format><dc:type
         rdf:resource="http://purl.org/dc/dcmitype/StillImage" /></cc:Work></rdf:RDF></metadata><defs
   id="defs3189" /><sodipodi:namedview
   pagecolor="#ffffff"
   bordercolor="#666666"
   borderopacity="1"
   objecttolerance="10"
   gridtolerance="10"
   guidetolerance="10"
   inkscape:pageopacity="0"
   inkscape:pageshadow="2"
   inkscape:window-width="640"
   inkscape:window-height="480"
   id="namedview3187"
   showgrid="false"
   fit-margin-top="0"
   fit-margin-left="0"
   fit-margin-right="0"
   fit-margin-bottom="0"
   inkscape:zoom="0.2979798"
   inkscape:cx="186.267"
   inkscape:cy="186.895"
   inkscape:window-x="0"
   inkscape:window-y="27"
   inkscape:window-maximized="0"
   inkscape:current-layer="Layer_1" />
<g
   id="g3165"
   transform="translate(-119.733,-210.227)">
	<path
   d="m 306.055,275.147 c 5.57,0 10.076,-4.515 10.076,-10.079 V 220.3 c 0,-5.563 -4.506,-10.073 -10.076,-10.073 -5.57,0 -10.06,4.509 -10.06,10.073 v 44.769 c -0.013,5.564 4.489,10.078 10.06,10.078 z"
   id="path3167"
   inkscape:connector-curvature="0"
   style="fill:#6d8d24" />
	<path
   d="m 306.055,517.988 c -5.57,0 -10.06,4.509 -10.06,10.066 v 44.774 c 0,5.558 4.49,10.067 10.06,10.067 5.57,0 10.076,-4.516 10.076,-10.067 v -44.774 c 0,-5.557 -4.506,-10.066 -10.076,-10.066 z"
   id="path3169"
   inkscape:connector-curvature="0"
   style="fill:#6d8d24" />
	<path
   d="m 482.319,386.495 h -44.774 c -5.552,0 -10.073,4.509 -10.073,10.073 0,5.557 4.521,10.067 10.073,10.067 h 44.774 c 5.563,0 10.073,-4.51 10.073,-10.067 10e-4,-5.564 -4.509,-10.073 -10.073,-10.073 z"
   id="path3171"
   inkscape:connector-curvature="0"
   style="fill:#6d8d24" />
	<path
   d="m 184.635,396.568 c 0,-5.564 -4.521,-10.073 -10.073,-10.073 h -44.769 c -5.558,0 -10.06,4.509 -10.06,10.073 0,5.557 4.502,10.067 10.06,10.067 h 44.769 c 5.551,0.006 10.073,-4.51 10.073,-10.067 z"
   id="path3173"
   inkscape:connector-curvature="0"
   style="fill:#6d8d24" />
	<path
   d="m 399.037,313.655 c 2.574,0 5.148,-0.979 7.121,-2.945 l 31.662,-31.656 c 3.932,-3.931 3.932,-10.312 0,-14.242 -3.943,-3.938 -10.323,-3.938 -14.255,0 l -31.663,31.65 c -3.918,3.938 -3.918,10.318 0,14.249 1.973,1.965 4.56,2.944 7.135,2.944 z"
   id="path3175"
   inkscape:connector-curvature="0"
   style="fill:#6d8d24" />
	<path
   d="m 205.948,482.419 -31.669,31.65 c -3.912,3.931 -3.912,10.312 0,14.249 1.984,1.965 4.553,2.945 7.127,2.945 2.574,0 5.143,-0.98 7.127,-2.945 l 31.65,-31.65 c 3.919,-3.932 3.919,-10.305 0,-14.249 -3.93,-3.931 -10.291,-3.931 -14.235,0 z"
   id="path3177"
   inkscape:connector-curvature="0"
   style="fill:#6d8d24" />
	<path
   d="m 205.948,310.71 c 1.959,1.966 4.547,2.945 7.103,2.945 2.581,0 5.156,-0.979 7.127,-2.945 3.925,-3.937 3.925,-10.311 0,-14.249 l -31.669,-31.65 c -3.918,-3.938 -10.312,-3.938 -14.243,0 -3.925,3.937 -3.925,10.305 0,14.242 l 31.682,31.657 z"
   id="path3179"
   inkscape:connector-curvature="0"
   style="fill:#6d8d24" />
	<path
   d="m 406.158,482.419 c -3.932,-3.931 -10.324,-3.931 -14.256,0 -3.918,3.931 -3.918,10.312 0,14.243 l 31.663,31.656 c 1.96,1.972 4.547,2.945 7.108,2.945 2.575,0 5.162,-0.974 7.122,-2.945 3.931,-3.925 3.931,-10.306 0,-14.243 l -31.637,-31.656 z"
   id="path3181"
   inkscape:connector-curvature="0"
   style="fill:#6d8d24" />
</g>
<g
   id="g3183"
   transform="translate(-119.733,-210.227)">
	<path
   d="m 319.371,486.35 0,0 c -19.709,0 -38.225,-7.674 -52.154,-21.602 -11.589,-11.593 -17.976,-27.004 -17.976,-43.4 0,-16.391 6.387,-31.801 17.976,-43.399 9.721,-9.715 22.651,-15.071 36.398,-15.071 l 0,0 c 13.753,0 26.677,5.356 36.397,15.077 16.98,16.981 16.98,44.612 0,61.593 -14.506,14.519 -38.125,14.506 -52.631,-0.006 -4.638,-4.629 -4.638,-12.146 0,-16.78 4.638,-4.641 12.148,-4.641 16.783,0 5.256,5.25 13.806,5.25 19.062,0 7.725,-7.724 7.725,-20.296 0,-28.026 -5.237,-5.237 -12.198,-8.12 -19.611,-8.12 -7.407,0 -14.375,2.883 -19.612,8.12 -7.111,7.108 -11.024,16.566 -11.024,26.613 0,10.055 3.918,19.506 11.024,26.614 9.445,9.444 22.005,14.65 35.368,14.65 13.351,0 25.91,-5.199 35.361,-14.65 25.527,-25.527 25.527,-67.075 0,-92.608 -16.02,-16.02 -37.32,-24.843 -59.978,-24.843 -22.655,0 -43.962,8.823 -59.979,24.843 -4.638,4.641 -12.148,4.641 -16.786,0 -4.634,-4.635 -4.634,-12.151 0,-16.78 20.5,-20.51 47.761,-31.801 76.765,-31.801 l 0,0 c 28.994,0 56.254,11.291 76.764,31.801 34.784,34.784 34.784,91.39 0,126.174 -13.928,13.927 -32.454,21.601 -52.147,21.601 z"
   id="path3185"
   inkscape:connector-curvature="0"
   style="fill:#6d8d24" />
</g>
</svg>