<?xml version="1.0" encoding="utf-8"?>
<!-- Generator: Adobe Illustrator 15.0.0, SVG Export Plug-In . SVG Version: 6.00 Build 0)  -->
<!DOCTYPE svg PUBLIC "-//W3C//DTD SVG 1.1//EN" "http://www.w3.org/Graphics/SVG/1.1/DTD/svg11.dtd">
<svg version="1.1" id="Layer_1" xmlns="http://www.w3.org/2000/svg" xmlns:xlink="http://www.w3.org/1999/xlink" x="0px" y="0px"
	 width="612px" height="792px" viewBox="0 0 612 792" enable-background="new 0 0 612 792" xml:space="preserve">
<g>
	<path fill="#6D8D24" d="M356.213,346.406v-92.094h-99.775v92.094H164.34v99.791h92.098v92.098h99.775v-92.098h92.106v-99.791
		H356.213z M417.617,415.495h-92.113v92.098h-38.372v-92.098h-92.106v-38.383h92.106v-92.098h38.372v92.098h92.098L417.617,415.495
		L417.617,415.495z"/>
	<path fill="#6D8D24" d="M423.752,255.084c12.712,0,23.023,10.308,23.023,23.028c0,12.716-10.312,23.024-23.023,23.024
		c-12.713,0-23.033-10.308-23.033-23.024C400.719,265.392,411.039,255.084,423.752,255.084z"/>
	<path fill="#6D8D24" d="M423.752,489.939c12.712,0,23.023,10.304,23.023,23.023c0,12.721-10.312,23.025-23.023,23.025
		c-12.713,0-23.033-10.305-23.033-23.025C400.719,500.243,411.039,489.939,423.752,489.939z"/>
	<path fill="#6D8D24" d="M187.357,255.084c12.716,0,23.028,10.308,23.028,23.028c0,12.716-10.312,23.024-23.028,23.024
		s-23.025-10.308-23.025-23.024C164.332,265.392,174.641,255.084,187.357,255.084z"/>
	<path fill="#6D8D24" d="M187.357,489.939c12.716,0,23.028,10.304,23.028,23.023c0,12.721-10.312,23.025-23.028,23.025
		s-23.025-10.305-23.025-23.025C164.332,500.243,174.641,489.939,187.357,489.939z"/>
</g>
</svg>
