<?xml version="1.0" encoding="UTF-8" standalone="no"?>
<!-- Generator: Adobe Illustrator 15.0.0, SVG Export Plug-In . SVG Version: 6.00 Build 0)  -->

<svg
   xmlns:dc="http://purl.org/dc/elements/1.1/"
   xmlns:cc="http://creativecommons.org/ns#"
   xmlns:rdf="http://www.w3.org/1999/02/22-rdf-syntax-ns#"
   xmlns:svg="http://www.w3.org/2000/svg"
   xmlns="http://www.w3.org/2000/svg"
   xmlns:sodipodi="http://sodipodi.sourceforge.net/DTD/sodipodi-0.dtd"
   xmlns:inkscape="http://www.inkscape.org/namespaces/inkscape"
   version="1.1"
   id="Layer_1"
   x="0px"
   y="0px"
   width="283.987"
   height="283.983"
   viewBox="0 0 283.987 283.983"
   enable-background="new 0 0 612 792"
   xml:space="preserve"
   inkscape:version="0.48.3.1 r9886"
   sodipodi:docname="software_nuestra_medida.svg"><metadata
   id="metadata3227"><rdf:RDF><cc:Work
       rdf:about=""><dc:format>image/svg+xml</dc:format><dc:type
         rdf:resource="http://purl.org/dc/dcmitype/StillImage" /></cc:Work></rdf:RDF></metadata><defs
   id="defs3225" /><sodipodi:namedview
   pagecolor="#ffffff"
   bordercolor="#666666"
   borderopacity="1"
   objecttolerance="10"
   gridtolerance="10"
   guidetolerance="10"
   inkscape:pageopacity="0"
   inkscape:pageshadow="2"
   inkscape:window-width="640"
   inkscape:window-height="480"
   id="namedview3223"
   showgrid="false"
   fit-margin-top="0"
   fit-margin-left="0"
   fit-margin-right="0"
   fit-margin-bottom="0"
   inkscape:zoom="0.2979798"
   inkscape:cx="141.668"
   inkscape:cy="142.295"
   inkscape:window-x="0"
   inkscape:window-y="27"
   inkscape:window-maximized="0"
   inkscape:current-layer="Layer_1" />
<g
   id="g3211"
   transform="translate(-164.332,-254.312)">
	<path
   d="m 356.213,346.406 v -92.094 h -99.775 v 92.094 H 164.34 v 99.791 h 92.098 v 92.098 h 99.775 v -92.098 h 92.106 v -99.791 h -92.106 z m 61.404,69.089 h -92.113 v 92.098 h -38.372 v -92.098 h -92.106 v -38.383 h 92.106 v -92.098 h 38.372 v 92.098 h 92.098 l 0.015,38.383 0,0 z"
   id="path3213"
   inkscape:connector-curvature="0"
   style="fill:#6d8d24" />
	<path
   d="m 423.752,255.084 c 12.712,0 23.023,10.308 23.023,23.028 0,12.716 -10.312,23.024 -23.023,23.024 -12.713,0 -23.033,-10.308 -23.033,-23.024 0,-12.72 10.32,-23.028 23.033,-23.028 z"
   id="path3215"
   inkscape:connector-curvature="0"
   style="fill:#6d8d24" />
	<path
   d="m 423.752,489.939 c 12.712,0 23.023,10.304 23.023,23.023 0,12.721 -10.312,23.025 -23.023,23.025 -12.713,0 -23.033,-10.305 -23.033,-23.025 0,-12.719 10.32,-23.023 23.033,-23.023 z"
   id="path3217"
   inkscape:connector-curvature="0"
   style="fill:#6d8d24" />
	<path
   d="m 187.357,255.084 c 12.716,0 23.028,10.308 23.028,23.028 0,12.716 -10.312,23.024 -23.028,23.024 -12.716,0 -23.025,-10.308 -23.025,-23.024 0,-12.72 10.309,-23.028 23.025,-23.028 z"
   id="path3219"
   inkscape:connector-curvature="0"
   style="fill:#6d8d24" />
	<path
   d="m 187.357,489.939 c 12.716,0 23.028,10.304 23.028,23.023 0,12.721 -10.312,23.025 -23.028,23.025 -12.716,0 -23.025,-10.305 -23.025,-23.025 0,-12.719 10.309,-23.023 23.025,-23.023 z"
   id="path3221"
   inkscape:connector-curvature="0"
   style="fill:#6d8d24" />
</g>
</svg>